G04*
G04 #@! TF.GenerationSoftware,Altium Limited,Altium Designer,20.2.8 (258)*
G04*
G04 Layer_Color=16711935*
%FSLAX44Y44*%
%MOMM*%
G71*
G04*
G04 #@! TF.SameCoordinates,20419356-03F5-4277-A54B-D4DCEC2EED97*
G04*
G04*
G04 #@! TF.FilePolarity,Positive*
G04*
G01*
G75*
%ADD11C,0.2000*%
D11*
X614500Y70500D02*
G03*
X614500Y70500I-5000J0D01*
G01*
X397500Y-322000D02*
G03*
X397500Y-322000I-17500J0D01*
G01*
X517500D02*
G03*
X517500Y-322000I-17500J0D01*
G01*
X528500Y328000D02*
G03*
X528500Y328000I-16500J0D01*
G01*
X361500Y15500D02*
G03*
X361500Y15500I-5000J0D01*
G01*
X253500Y-260500D02*
G03*
X253500Y-260500I-5000J0D01*
G01*
X416500Y328000D02*
G03*
X416500Y328000I-16500J0D01*
G01*
X360500D02*
G03*
X360500Y328000I-16500J0D01*
G01*
X889500Y240000D02*
G03*
X889500Y240000I-17500J0D01*
G01*
X472500Y328000D02*
G03*
X472500Y328000I-16500J0D01*
G01*
X597750Y-216000D02*
X610250D01*
X597750Y-196000D02*
X610250D01*
X597750Y-216000D02*
Y-196000D01*
X610250Y-216000D02*
Y-196000D01*
X536000Y81750D02*
Y94250D01*
Y81750D02*
X556000D01*
X536000Y94250D02*
X556000D01*
Y81750D02*
Y94250D01*
X520000Y105500D02*
Y130500D01*
Y105500D02*
X552000D01*
X520000Y130500D02*
X552000D01*
Y105500D02*
Y130500D01*
X561750Y109000D02*
X574250D01*
X561750Y129000D02*
X574250D01*
X561750Y109000D02*
Y129000D01*
X574250Y109000D02*
Y129000D01*
X492000Y81750D02*
X512000D01*
X492000D02*
Y94250D01*
X512000D01*
Y81750D02*
Y94250D01*
X876000Y149750D02*
X896000D01*
X876000D02*
Y162250D01*
X896000D01*
Y149750D02*
Y162250D01*
X600000Y-80000D02*
Y80000D01*
X760000Y-80000D02*
Y80000D01*
X600000D02*
X760000D01*
X600000Y-80000D02*
X760000D01*
X530000Y59750D02*
Y72250D01*
X510000Y59750D02*
Y72250D01*
Y59750D02*
X530000D01*
X510000Y72250D02*
X530000D01*
X400000Y-260250D02*
X420000D01*
X400000D02*
Y-247750D01*
X420000D01*
Y-260250D02*
Y-247750D01*
X365000Y-260250D02*
X385000D01*
X365000D02*
Y-247750D01*
X385000D01*
Y-260250D02*
Y-247750D01*
X349000Y-353000D02*
Y-291000D01*
Y-353000D02*
X411000D01*
X349000Y-291000D02*
X411000D01*
Y-353000D02*
Y-291000D01*
X400000Y-280250D02*
X420000D01*
X400000D02*
Y-267750D01*
X420000D01*
Y-280250D02*
Y-267750D01*
X642250Y119000D02*
Y139000D01*
X629750Y119000D02*
X642250D01*
X629750D02*
Y139000D01*
X642250D01*
X819000Y-22250D02*
Y-9750D01*
X799000D02*
X819000D01*
X799000Y-22250D02*
Y-9750D01*
Y-22250D02*
X819000D01*
X795000Y-72250D02*
X815000D01*
X795000D02*
Y-59750D01*
X815000D01*
Y-72250D02*
Y-59750D01*
X688250Y-135000D02*
Y-115000D01*
X675750Y-135000D02*
Y-115000D01*
X688250D01*
X675750Y-135000D02*
X688250D01*
X545000Y-64250D02*
Y-51750D01*
X565000Y-64250D02*
Y-51750D01*
X545000D02*
X565000D01*
X545000Y-64250D02*
X565000D01*
X494000Y246000D02*
X510000D01*
Y214000D02*
Y246000D01*
X494000Y214000D02*
X510000D01*
X494000D02*
Y246000D01*
X146500Y-260750D02*
Y-239250D01*
X133500D02*
X146500D01*
X133500Y-260750D02*
X146500D01*
X133500D02*
Y-239250D01*
X594250Y312000D02*
Y332000D01*
X581750D02*
X594250D01*
X581750Y312000D02*
Y332000D01*
Y312000D02*
X594250D01*
X150000Y-208000D02*
Y-192000D01*
X118000D02*
X150000D01*
X118000Y-208000D02*
Y-192000D01*
Y-208000D02*
X150000D01*
X895240Y-63800D02*
X979060D01*
Y-216200D02*
Y-63800D01*
X895240Y-216200D02*
X979060D01*
X895240D02*
Y-63800D01*
X243877Y-94001D02*
Y94000D01*
X-23570D02*
X243877D01*
X-23570Y-94001D02*
X243877D01*
X-23570D02*
Y94000D01*
X-4709Y-294450D02*
X87239D01*
X-4709Y-205550D02*
X87239D01*
Y-294450D02*
Y-205550D01*
X-4709Y-294450D02*
Y-205550D01*
X123084Y134650D02*
Y185400D01*
X12599D02*
X123084D01*
X12599Y134650D02*
X123084D01*
X12599D02*
Y185400D01*
X828040Y318135D02*
Y367665D01*
X695960D02*
X828040D01*
X695960Y318135D02*
X828040D01*
X695960D02*
Y367665D01*
X96760Y221900D02*
Y298100D01*
X12940D02*
X96760D01*
X12940Y221900D02*
X96760D01*
X12940D02*
Y298100D01*
X428000Y-137000D02*
X444000D01*
Y-159000D02*
Y-137000D01*
X428000Y-159000D02*
Y-137000D01*
Y-159000D02*
X444000D01*
X451500Y206000D02*
Y226000D01*
X426500D02*
X451500D01*
X426500Y206000D02*
Y226000D01*
Y206000D02*
X451500D01*
X370750Y-189250D02*
Y-176250D01*
X349250D02*
X370750D01*
X349250Y-189250D02*
Y-176250D01*
Y-189250D02*
X370750D01*
X531000Y-353000D02*
Y-291000D01*
X469000D02*
X531000D01*
X469000Y-353000D02*
X531000D01*
X469000D02*
Y-291000D01*
X397000Y-25000D02*
Y25000D01*
X347000D02*
X397000D01*
X347000Y-25000D02*
X397000D01*
X347000D02*
Y25000D01*
X288500Y-269500D02*
Y-230500D01*
X239500D02*
X288500D01*
X239500Y-269500D02*
X288500D01*
X239500D02*
Y-230500D01*
X396750Y200750D02*
Y231250D01*
X379250D02*
X396750D01*
X379250Y200750D02*
X396750D01*
X379250D02*
Y231250D01*
X896000Y169750D02*
Y182250D01*
X876000D02*
X896000D01*
X876000Y169750D02*
Y182250D01*
Y169750D02*
X896000D01*
X838000Y162250D02*
X858000D01*
Y149750D02*
Y162250D01*
X838000Y149750D02*
X858000D01*
X838000D02*
Y162250D01*
X218000Y242000D02*
X234000D01*
Y210000D02*
Y242000D01*
X218000Y210000D02*
X234000D01*
X218000D02*
Y242000D01*
X285750Y-173000D02*
X298250D01*
Y-193000D02*
Y-173000D01*
X285750Y-193000D02*
Y-173000D01*
Y-193000D02*
X298250D01*
X318250Y-192000D02*
Y-172000D01*
X305750Y-192000D02*
Y-172000D01*
X318250D01*
X305750Y-192000D02*
X318250D01*
X338250D02*
Y-172000D01*
X325750Y-192000D02*
Y-172000D01*
X338250D01*
X325750Y-192000D02*
X338250D01*
X466250D02*
Y-172000D01*
X453750Y-192000D02*
Y-172000D01*
X466250D01*
X453750Y-192000D02*
X466250D01*
X442250D02*
Y-172000D01*
X429750Y-192000D02*
Y-172000D01*
X442250D01*
X429750Y-192000D02*
X442250D01*
X418250D02*
Y-172000D01*
X405750Y-192000D02*
Y-172000D01*
X418250D01*
X405750Y-192000D02*
X418250D01*
X632250Y-135000D02*
Y-115000D01*
X619750Y-135000D02*
Y-115000D01*
X632250D01*
X619750Y-135000D02*
X632250D01*
X754250Y-136000D02*
Y-116000D01*
X741750Y-136000D02*
Y-116000D01*
X754250D01*
X741750Y-136000D02*
X754250D01*
X818250Y-135000D02*
Y-115000D01*
X805750Y-135000D02*
Y-115000D01*
X818250D01*
X805750Y-135000D02*
X818250D01*
X845750Y-199000D02*
X858250D01*
X845750D02*
Y-179000D01*
X858250Y-199000D02*
Y-179000D01*
X845750D02*
X858250D01*
X718250Y-260000D02*
Y-240000D01*
X705750Y-260000D02*
Y-240000D01*
X718250D01*
X705750Y-260000D02*
X718250D01*
X778250D02*
Y-240000D01*
X765750Y-260000D02*
Y-240000D01*
X778250D01*
X765750Y-260000D02*
X778250D01*
X838250Y-300000D02*
Y-280000D01*
X825750Y-300000D02*
Y-280000D01*
X838250D01*
X825750Y-300000D02*
X838250D01*
X818250D02*
Y-280000D01*
X805750Y-300000D02*
Y-280000D01*
X818250D01*
X805750Y-300000D02*
X818250D01*
X798250D02*
Y-280000D01*
X785750Y-300000D02*
Y-280000D01*
X798250D01*
X785750Y-300000D02*
X798250D01*
X778250D02*
Y-280000D01*
X765750Y-300000D02*
Y-280000D01*
X778250D01*
X765750Y-300000D02*
X778250D01*
X758250D02*
Y-280000D01*
X745750Y-300000D02*
Y-280000D01*
X758250D01*
X745750Y-300000D02*
X758250D01*
X738250D02*
Y-280000D01*
X725750Y-300000D02*
Y-280000D01*
X738250D01*
X725750Y-300000D02*
X738250D01*
X718250D02*
Y-280000D01*
X705750Y-300000D02*
Y-280000D01*
X718250D01*
X705750Y-300000D02*
X718250D01*
X630250Y-330000D02*
Y-310000D01*
X617750Y-330000D02*
X630250D01*
X617750D02*
Y-310000D01*
X630250D01*
X594250Y-330000D02*
Y-310000D01*
X581750Y-330000D02*
X594250D01*
X581750D02*
Y-310000D01*
X594250D01*
X630250Y-290000D02*
Y-270000D01*
X617750Y-290000D02*
Y-270000D01*
X630250D01*
X617750Y-290000D02*
X630250D01*
X594250D02*
Y-270000D01*
X581750Y-290000D02*
Y-270000D01*
X594250D01*
X581750Y-290000D02*
X594250D01*
X253000Y-314250D02*
Y-301750D01*
X233000D02*
X253000D01*
X233000Y-314250D02*
Y-301750D01*
Y-314250D02*
X253000D01*
X173750Y-221000D02*
X186250D01*
Y-241000D02*
Y-221000D01*
X173750Y-241000D02*
Y-221000D01*
Y-241000D02*
X186250D01*
X220000Y-266250D02*
Y-253750D01*
X200000D02*
X220000D01*
X200000Y-266250D02*
Y-253750D01*
Y-266250D02*
X220000D01*
Y-246250D02*
Y-233750D01*
X200000D02*
X220000D01*
X200000Y-246250D02*
Y-233750D01*
Y-246250D02*
X220000D01*
X186250Y-279000D02*
Y-259000D01*
X173750Y-279000D02*
Y-259000D01*
X186250D01*
X173750Y-279000D02*
X186250D01*
X102000Y-294000D02*
X118000D01*
Y-326000D02*
Y-294000D01*
X102000Y-326000D02*
Y-294000D01*
Y-326000D02*
X118000D01*
X141750Y-159000D02*
X154250D01*
Y-179000D02*
Y-159000D01*
X141750Y-179000D02*
Y-159000D01*
Y-179000D02*
X154250D01*
X113750Y-159000D02*
X126250D01*
Y-179000D02*
Y-159000D01*
X113750Y-179000D02*
Y-159000D01*
Y-179000D02*
X126250D01*
X46000Y-119000D02*
X62000D01*
Y-151000D02*
Y-119000D01*
X46000Y-151000D02*
Y-119000D01*
Y-151000D02*
X62000D01*
X36250Y-139000D02*
Y-119000D01*
X23750Y-139000D02*
Y-119000D01*
X36250D01*
X23750Y-139000D02*
X36250D01*
X903000Y209000D02*
Y271000D01*
X841000D02*
X903000D01*
X841000Y209000D02*
X903000D01*
X841000D02*
Y271000D01*
X594250Y272000D02*
Y292000D01*
X581750D02*
X594250D01*
X581750Y272000D02*
X594250D01*
X581750D02*
Y292000D01*
X630250Y272000D02*
Y292000D01*
X617750Y272000D02*
Y292000D01*
X630250D01*
X617750Y272000D02*
X630250D01*
X356250Y226000D02*
Y246000D01*
X343750Y226000D02*
Y246000D01*
X356250D01*
X343750Y226000D02*
X356250D01*
Y188000D02*
Y208000D01*
X343750Y188000D02*
Y208000D01*
X356250D01*
X343750Y188000D02*
X356250D01*
X392000Y177750D02*
Y190250D01*
X372000D02*
X392000D01*
X372000Y177750D02*
Y190250D01*
Y177750D02*
X392000D01*
X796000Y-138500D02*
Y-113500D01*
X764000D02*
X796000D01*
X764000Y-138500D02*
Y-113500D01*
Y-138500D02*
X796000D01*
X837500Y96000D02*
X862500D01*
Y64000D02*
Y96000D01*
X837500Y64000D02*
X862500D01*
X837500D02*
Y96000D01*
X296750Y164750D02*
Y195250D01*
X279250D02*
X296750D01*
X279250Y164750D02*
X296750D01*
X279250D02*
Y195250D01*
X460000Y5750D02*
Y18250D01*
X440000D02*
X460000D01*
X440000Y5750D02*
X460000D01*
X440000D02*
Y18250D01*
X504000Y-6250D02*
Y6250D01*
X484000D02*
X504000D01*
X484000Y-6250D02*
Y6250D01*
Y-6250D02*
X504000D01*
X444000Y-58250D02*
Y-45750D01*
X424000D02*
X444000D01*
X424000Y-58250D02*
Y-45750D01*
Y-58250D02*
X444000D01*
X340000Y-82250D02*
Y-69750D01*
X320000D02*
X340000D01*
X320000Y-82250D02*
Y-69750D01*
Y-82250D02*
X340000D01*
X444000Y-38250D02*
Y-25750D01*
X424000D02*
X444000D01*
X424000Y-38250D02*
Y-25750D01*
Y-38250D02*
X444000D01*
X332250Y150000D02*
Y170000D01*
X319750Y150000D02*
Y170000D01*
X332250D01*
X319750Y150000D02*
X332250D01*
Y188000D02*
Y208000D01*
X319750Y188000D02*
Y208000D01*
X332250D01*
X319750Y188000D02*
X332250D01*
X304000Y205750D02*
Y218250D01*
X284000D02*
X304000D01*
X284000Y205750D02*
X304000D01*
X284000D02*
Y218250D01*
X540000Y-280250D02*
Y-267750D01*
X520000D02*
X540000D01*
X520000Y-280250D02*
Y-267750D01*
Y-280250D02*
X540000D01*
Y-260250D02*
Y-247750D01*
X520000D02*
X540000D01*
X520000Y-260250D02*
Y-247750D01*
Y-260250D02*
X540000D01*
X288000Y-102250D02*
Y-89750D01*
X268000D02*
X288000D01*
X268000Y-102250D02*
Y-89750D01*
Y-102250D02*
X288000D01*
X340000Y69750D02*
Y82250D01*
X320000D02*
X340000D01*
X320000Y69750D02*
X340000D01*
X320000D02*
Y82250D01*
X380000Y-122250D02*
Y-109750D01*
X360000D02*
X380000D01*
X360000Y-122250D02*
X380000D01*
X360000D02*
Y-109750D01*
X430250Y-96000D02*
Y-76000D01*
X417750Y-96000D02*
Y-76000D01*
X430250D01*
X417750Y-96000D02*
X430250D01*
X380000Y-102250D02*
Y-89750D01*
X360000D02*
X380000D01*
X360000Y-102250D02*
Y-89750D01*
Y-102250D02*
X380000D01*
X340000Y89750D02*
Y102250D01*
X320000D02*
X340000D01*
X320000Y89750D02*
X340000D01*
X320000D02*
Y102250D01*
X452000Y129750D02*
Y142250D01*
X432000D02*
X452000D01*
X432000Y129750D02*
Y142250D01*
Y129750D02*
X452000D01*
Y109750D02*
Y122250D01*
X432000D02*
X452000D01*
X432000Y109750D02*
X452000D01*
X432000D02*
Y122250D01*
X504000Y-26250D02*
Y-13750D01*
X484000D02*
X504000D01*
X484000Y-26250D02*
X504000D01*
X484000D02*
Y-13750D01*
X340000Y-102250D02*
Y-89750D01*
X320000D02*
X340000D01*
X320000Y-102250D02*
X340000D01*
X320000D02*
Y-89750D01*
X726250Y116000D02*
Y136000D01*
X713750Y116000D02*
Y136000D01*
X726250D01*
X713750Y116000D02*
X726250D01*
X520000Y52250D02*
X540000D01*
X520000Y39750D02*
X540000D01*
X520000D02*
Y52250D01*
X540000Y39750D02*
Y52250D01*
X288000Y-122250D02*
Y-109750D01*
X268000D02*
X288000D01*
X268000Y-122250D02*
Y-109750D01*
Y-122250D02*
X288000D01*
X294250Y32000D02*
Y52000D01*
X281750Y32000D02*
Y52000D01*
X294250D01*
X281750Y32000D02*
X294250D01*
X314250D02*
Y52000D01*
X301750Y32000D02*
Y52000D01*
X314250D01*
X301750Y32000D02*
X314250D01*
X294250Y-40000D02*
Y-20000D01*
X281750Y-40000D02*
Y-20000D01*
X294250D01*
X281750Y-40000D02*
X294250D01*
X314250D02*
Y-20000D01*
X301750Y-40000D02*
Y-20000D01*
X314250D01*
X301750Y-40000D02*
X314250D01*
X860000Y41750D02*
Y54250D01*
X840000D02*
X860000D01*
X840000Y41750D02*
Y54250D01*
Y41750D02*
X860000D01*
X650250Y-216000D02*
Y-196000D01*
X637750D02*
X650250D01*
X637750Y-216000D02*
X650250D01*
X637750D02*
Y-196000D01*
X630250Y-216000D02*
Y-196000D01*
X617750Y-216000D02*
Y-196000D01*
X630250D01*
X617750Y-216000D02*
X630250D01*
X698250Y280000D02*
Y300000D01*
X685750Y280000D02*
Y300000D01*
X698250D01*
X685750Y280000D02*
X698250D01*
X718250Y280000D02*
Y300000D01*
X705750Y280000D02*
Y300000D01*
X718250D01*
X705750Y280000D02*
X718250D01*
X678250Y280000D02*
Y300000D01*
X665750Y280000D02*
Y300000D01*
X678250D01*
X665750Y280000D02*
X678250D01*
X738250Y280000D02*
Y300000D01*
X725750Y280000D02*
Y300000D01*
X738250D01*
X725750Y280000D02*
X738250D01*
X818250D02*
Y300000D01*
X805750Y280000D02*
Y300000D01*
X818250D01*
X805750Y280000D02*
X818250D01*
X758250D02*
Y300000D01*
X745750Y280000D02*
Y300000D01*
X758250D01*
X745750Y280000D02*
X758250D01*
X798250D02*
Y300000D01*
X785750Y280000D02*
Y300000D01*
X798250D01*
X785750Y280000D02*
X798250D01*
X778250D02*
Y300000D01*
X765750Y280000D02*
Y300000D01*
X778250D01*
X765750Y280000D02*
X778250D01*
X828040Y-367665D02*
Y-318135D01*
X695960D02*
X828040D01*
X695960Y-367665D02*
X828040D01*
X695960D02*
Y-318135D01*
X182000Y140000D02*
Y156000D01*
X150000D02*
X182000D01*
X150000Y140000D02*
Y156000D01*
Y140000D02*
X182000D01*
X494000Y158000D02*
X510000D01*
X494000D02*
Y190000D01*
X510000Y158000D02*
Y190000D01*
X494000D02*
X510000D01*
X608000Y-124000D02*
Y-108000D01*
X576000D02*
X608000D01*
X576000Y-124000D02*
Y-108000D01*
Y-124000D02*
X608000D01*
X362750Y-133250D02*
X375750D01*
Y-154750D02*
Y-133250D01*
X362750Y-154750D02*
X375750D01*
X362750D02*
Y-133250D01*
X586750Y-213250D02*
Y-200250D01*
X565250D02*
X586750D01*
X565250Y-213250D02*
X586750D01*
X565250D02*
Y-200250D01*
X249500Y170000D02*
Y190000D01*
X224500D02*
X249500D01*
X224500Y170000D02*
Y190000D01*
Y170000D02*
X249500D01*
X452000Y-137000D02*
X468000D01*
Y-159000D02*
Y-137000D01*
X452000Y-159000D02*
Y-137000D01*
Y-159000D02*
X468000D01*
X404000Y-137000D02*
X420000D01*
Y-159000D02*
Y-137000D01*
X404000Y-159000D02*
Y-137000D01*
Y-159000D02*
X420000D01*
X432000Y264000D02*
Y280000D01*
X400000D02*
X432000D01*
X400000Y264000D02*
Y280000D01*
Y264000D02*
X432000D01*
X429000Y177750D02*
Y190250D01*
X409000D02*
X429000D01*
X409000Y177750D02*
Y190250D01*
Y177750D02*
X429000D01*
X192000Y242000D02*
X208000D01*
Y210000D02*
Y242000D01*
X192000Y210000D02*
X208000D01*
X192000D02*
Y242000D01*
X280250Y125000D02*
Y145000D01*
X267750Y125000D02*
Y145000D01*
X280250D01*
X267750Y125000D02*
X280250D01*
X242000Y114000D02*
X258000D01*
X242000D02*
Y146000D01*
X258000Y114000D02*
Y146000D01*
X242000D02*
X258000D01*
X186250Y169000D02*
Y189000D01*
X173750Y169000D02*
Y189000D01*
X186250D01*
X173750Y169000D02*
X186250D01*
X158250D02*
Y189000D01*
X145750Y169000D02*
Y189000D01*
X158250D01*
X145750Y169000D02*
X158250D01*
X267000Y205750D02*
Y218250D01*
X247000D02*
X267000D01*
X247000Y205750D02*
Y218250D01*
Y205750D02*
X267000D01*
X505000Y-260250D02*
Y-247750D01*
X485000D02*
X505000D01*
X485000Y-260250D02*
Y-247750D01*
Y-260250D02*
X505000D01*
X630250Y312000D02*
Y332000D01*
X617750Y312000D02*
X630250D01*
X617750Y332000D02*
X630250D01*
X617750Y312000D02*
Y332000D01*
X468000Y246000D02*
X484000D01*
Y214000D02*
Y246000D01*
X468000Y214000D02*
X484000D01*
X468000D02*
Y246000D01*
X421000Y241750D02*
Y254250D01*
X401000D02*
X421000D01*
X401000Y241750D02*
Y254250D01*
Y241750D02*
X421000D01*
X265000Y-198250D02*
Y-185750D01*
X245000D02*
X265000D01*
X245000Y-198250D02*
Y-185750D01*
Y-198250D02*
X265000D01*
Y-178250D02*
Y-165750D01*
X245000D02*
X265000D01*
X245000Y-178250D02*
Y-165750D01*
Y-178250D02*
X265000D01*
X339000Y-122250D02*
Y-109750D01*
X319000D02*
X339000D01*
X319000Y-122250D02*
Y-109750D01*
Y-122250D02*
X339000D01*
X294250Y67000D02*
Y87000D01*
X281750Y67000D02*
Y87000D01*
X294250D01*
X281750Y67000D02*
X294250D01*
Y-75000D02*
Y-55000D01*
X281750Y-75000D02*
Y-55000D01*
X294250D01*
X281750Y-75000D02*
X294250D01*
X379000Y-82250D02*
Y-69750D01*
X359000D02*
X379000D01*
X359000Y-82250D02*
Y-69750D01*
Y-82250D02*
X379000D01*
X711750Y-135000D02*
X724250D01*
Y-115000D01*
X711750D02*
X724250D01*
X711750Y-135000D02*
Y-115000D01*
X565000Y-4250D02*
Y8250D01*
X545000D02*
X565000D01*
X545000Y-4250D02*
Y8250D01*
Y-4250D02*
X565000D01*
X859000Y105750D02*
Y118250D01*
X839000D02*
X859000D01*
X839000Y105750D02*
Y118250D01*
Y105750D02*
X859000D01*
X657750Y-197000D02*
X670250D01*
Y-217000D02*
Y-197000D01*
X657750Y-217000D02*
Y-197000D01*
Y-217000D02*
X670250D01*
X427000Y41750D02*
Y54250D01*
X407000D02*
X427000D01*
X407000Y41750D02*
Y54250D01*
Y41750D02*
X427000D01*
X459000Y-14250D02*
Y-1750D01*
X439000D02*
X459000D01*
X439000Y-14250D02*
Y-1750D01*
Y-14250D02*
X459000D01*
X336250Y-49000D02*
Y-29000D01*
X323750Y-49000D02*
Y-29000D01*
X336250D01*
X323750Y-49000D02*
X336250D01*
X309000Y-2250D02*
Y10250D01*
X289000D02*
X309000D01*
X289000Y-2250D02*
Y10250D01*
Y-2250D02*
X309000D01*
X418250Y135000D02*
Y155000D01*
X405750Y135000D02*
Y155000D01*
X418250D01*
X405750Y135000D02*
X418250D01*
X468000Y190000D02*
X484000D01*
Y158000D02*
Y190000D01*
X468000Y158000D02*
X484000D01*
X468000D02*
Y190000D01*
X418250Y97000D02*
Y117000D01*
X405750Y97000D02*
Y117000D01*
X418250D01*
X405750Y97000D02*
X418250D01*
X704250Y115000D02*
Y135000D01*
X691750Y115000D02*
Y135000D01*
X704250D01*
X691750Y115000D02*
X704250D01*
X795000Y59750D02*
X815000D01*
X795000Y72250D02*
X815000D01*
Y59750D02*
Y72250D01*
X795000Y59750D02*
Y72250D01*
M02*
