G04*
G04 #@! TF.GenerationSoftware,Altium Limited,Altium Designer,20.2.8 (258)*
G04*
G04 Layer_Physical_Order=4*
G04 Layer_Color=16711680*
%FSLAX44Y44*%
%MOMM*%
G71*
G04*
G04 #@! TF.SameCoordinates,3C6D5B40-6E81-4EE8-AB30-EF2341ADE942*
G04*
G04*
G04 #@! TF.FilePolarity,Positive*
G04*
G01*
G75*
%ADD11C,0.2000*%
%ADD86C,0.1500*%
%ADD91C,1.8000*%
G04:AMPARAMS|DCode=92|XSize=4mm|YSize=4mm|CornerRadius=1mm|HoleSize=0mm|Usage=FLASHONLY|Rotation=270.000|XOffset=0mm|YOffset=0mm|HoleType=Round|Shape=RoundedRectangle|*
%AMROUNDEDRECTD92*
21,1,4.0000,2.0000,0,0,270.0*
21,1,2.0000,4.0000,0,0,270.0*
1,1,2.0000,-1.0000,-1.0000*
1,1,2.0000,-1.0000,1.0000*
1,1,2.0000,1.0000,1.0000*
1,1,2.0000,1.0000,-1.0000*
%
%ADD92ROUNDEDRECTD92*%
G04:AMPARAMS|DCode=93|XSize=1.5mm|YSize=1.5mm|CornerRadius=0.375mm|HoleSize=0mm|Usage=FLASHONLY|Rotation=90.000|XOffset=0mm|YOffset=0mm|HoleType=Round|Shape=RoundedRectangle|*
%AMROUNDEDRECTD93*
21,1,1.5000,0.7500,0,0,90.0*
21,1,0.7500,1.5000,0,0,90.0*
1,1,0.7500,0.3750,0.3750*
1,1,0.7500,0.3750,-0.3750*
1,1,0.7500,-0.3750,-0.3750*
1,1,0.7500,-0.3750,0.3750*
%
%ADD93ROUNDEDRECTD93*%
%ADD94C,2.3000*%
%ADD95C,1.5000*%
G04:AMPARAMS|DCode=96|XSize=1.8mm|YSize=1.8mm|CornerRadius=0.45mm|HoleSize=0mm|Usage=FLASHONLY|Rotation=90.000|XOffset=0mm|YOffset=0mm|HoleType=Round|Shape=RoundedRectangle|*
%AMROUNDEDRECTD96*
21,1,1.8000,0.9000,0,0,90.0*
21,1,0.9000,1.8000,0,0,90.0*
1,1,0.9000,0.4500,0.4500*
1,1,0.9000,0.4500,-0.4500*
1,1,0.9000,-0.4500,-0.4500*
1,1,0.9000,-0.4500,0.4500*
%
%ADD96ROUNDEDRECTD96*%
G04:AMPARAMS|DCode=97|XSize=1.8mm|YSize=1.8mm|CornerRadius=0.45mm|HoleSize=0mm|Usage=FLASHONLY|Rotation=180.000|XOffset=0mm|YOffset=0mm|HoleType=Round|Shape=RoundedRectangle|*
%AMROUNDEDRECTD97*
21,1,1.8000,0.9000,0,0,180.0*
21,1,0.9000,1.8000,0,0,180.0*
1,1,0.9000,-0.4500,0.4500*
1,1,0.9000,0.4500,0.4500*
1,1,0.9000,0.4500,-0.4500*
1,1,0.9000,-0.4500,-0.4500*
%
%ADD97ROUNDEDRECTD97*%
%ADD98C,7.0000*%
%ADD99C,0.8000*%
D11*
X664000Y114000D02*
Y126000D01*
X772000Y234000D01*
X704000Y56000D02*
Y68000D01*
Y56000D02*
X720000Y40000D01*
Y-228000D02*
Y40000D01*
Y-228000D02*
X732000Y-240000D01*
X746000D01*
X752000Y-246000D01*
X798000Y4000D02*
X844000D01*
X912000Y-64000D01*
Y-260000D02*
Y-64000D01*
X864000Y-308000D02*
X912000Y-260000D01*
X290000Y-308000D02*
X864000D01*
X286000Y-304000D02*
X290000Y-308000D01*
X258000Y-304000D02*
X286000D01*
X246000Y-292000D02*
X258000Y-304000D01*
X576000Y-168000D02*
Y-76000D01*
Y-168000D02*
X700000Y-292000D01*
X856000D01*
X896000Y-252000D01*
Y-143300D01*
X880000Y-127300D02*
X896000Y-143300D01*
X760000Y-218000D02*
Y-204000D01*
X752000Y-196000D02*
X760000Y-204000D01*
X752000Y-196000D02*
Y-20000D01*
X784000Y12000D01*
Y24000D01*
X532000Y-192000D02*
Y-108000D01*
Y-192000D02*
X588000Y-248000D01*
Y-258000D02*
Y-248000D01*
X708000Y208000D02*
X752000Y252000D01*
X672000Y208000D02*
X708000D01*
X608000Y144000D02*
X672000Y208000D01*
X608000Y132000D02*
Y144000D01*
Y132000D02*
X612000Y128000D01*
X783000Y244000D02*
X791000Y252000D01*
X760000Y244000D02*
X783000D01*
X716000Y200000D02*
X760000Y244000D01*
X676000Y200000D02*
X716000D01*
X616000Y140000D02*
X676000Y200000D01*
X654000Y-142000D02*
Y-104000D01*
Y-142000D02*
X676000Y-164000D01*
Y-224000D02*
Y-164000D01*
Y-224000D02*
X714000Y-262000D01*
X806000D01*
X812000Y-268000D01*
X336000Y36000D02*
X350000D01*
X300000Y0D02*
X336000Y36000D01*
X300000Y-96000D02*
Y0D01*
X384000Y-36000D02*
X412000Y-64000D01*
Y-132000D02*
Y-64000D01*
X880000Y-256000D02*
Y-203500D01*
X852000Y-284000D02*
X880000Y-256000D01*
X704000Y-284000D02*
X852000D01*
X612000Y-12000D02*
X644000Y-44000D01*
Y-224000D02*
X704000Y-284000D01*
X644000Y-184000D02*
Y-44000D01*
Y-224000D02*
Y-184000D01*
X280000Y-316000D02*
X868000Y-316000D01*
X920000Y-264000D01*
Y-60000D01*
X844000Y16000D02*
X920000Y-60000D01*
X806000Y16000D02*
X844000D01*
X592000Y116000D02*
X604000Y104000D01*
X592000Y116000D02*
Y152000D01*
X664000Y224000D01*
X688000D01*
X732000Y268000D01*
X732000Y-228000D02*
X732000D01*
X728000Y-224000D02*
X732000Y-228000D01*
X728000Y-224000D02*
Y60000D01*
X720000Y68000D02*
X728000Y60000D01*
X624000Y-258000D02*
Y-240000D01*
X544000Y-160000D02*
X624000Y-240000D01*
X544000Y-160000D02*
Y-116000D01*
X792000Y-246000D02*
X792000D01*
X786000Y-240000D02*
X792000Y-246000D01*
X764000Y-240000D02*
X786000D01*
X736000Y-212000D02*
X764000Y-240000D01*
X736000Y-212000D02*
Y60000D01*
X744000Y68000D01*
X460000Y-132000D02*
Y-12000D01*
X428000Y20000D02*
X460000Y-12000D01*
X544000Y68000D02*
X552000Y60000D01*
X544000Y68000D02*
Y140000D01*
X664000Y260000D01*
X684000D01*
X692000Y268000D01*
X560000Y84000D02*
X576000Y68000D01*
X560000Y84000D02*
Y132000D01*
X672000Y244000D01*
X672000D01*
X520000Y-240000D02*
Y-100000D01*
X880000Y-101900D02*
X904000Y-125900D01*
Y-256000D02*
Y-125900D01*
X860000Y-300000D02*
X904000Y-256000D01*
X696000Y-300000D02*
X860000D01*
X556000Y-160000D02*
X696000Y-300000D01*
X556000Y-160000D02*
Y-84000D01*
X564000Y-76000D01*
X552000Y76000D02*
X564000Y64000D01*
X552000Y76000D02*
Y136000D01*
X668000Y252000D01*
X704000D01*
X712000Y260000D01*
X804000D02*
X812000Y268000D01*
X736000Y260000D02*
X804000D01*
X692000Y216000D02*
X736000Y260000D01*
X668000Y216000D02*
X692000D01*
X600000Y148000D02*
X668000Y216000D01*
X600000Y124000D02*
Y148000D01*
Y124000D02*
X608000Y116000D01*
X260000Y48000D02*
X280000D01*
X308000Y76000D01*
X508000Y-168000D02*
Y-92000D01*
X436000Y-240000D02*
X508000Y-168000D01*
X400000Y-240000D02*
X436000D01*
X416000Y-4000D02*
X436000Y-24000D01*
Y-132000D02*
Y-24000D01*
X744000Y-204000D02*
Y12000D01*
X826000Y-254000D02*
X832000Y-260000D01*
X718000Y-254000D02*
X826000D01*
X684000Y-220000D02*
X718000Y-254000D01*
X684000Y-220000D02*
Y-88000D01*
X664000Y-68000D02*
X684000Y-88000D01*
D86*
X614000Y-38000D02*
X620000D01*
X612000Y-36000D02*
X614000Y-38000D01*
X508000Y-36000D02*
X612000D01*
X528000Y28000D02*
X536000Y36000D01*
X634000D01*
X704000Y106000D01*
Y144000D01*
X712000Y152000D02*
X712000D01*
X704000Y144000D02*
X712000Y152000D01*
X512000Y-56000D02*
X620000D01*
X508000Y-52000D02*
X512000Y-56000D01*
X528000Y12000D02*
X544000Y28000D01*
X620000D01*
X712000Y-64000D01*
X528000Y0D02*
X632000D01*
D91*
X112000Y285400D02*
D03*
X736600Y-330200D02*
D03*
Y-355600D02*
D03*
X787400Y-330200D02*
D03*
Y-355600D02*
D03*
X812800Y-330200D02*
D03*
X880000Y-203500D02*
D03*
Y-127300D02*
D03*
Y-101900D02*
D03*
X762000Y-355600D02*
D03*
Y-330200D02*
D03*
X711200Y355600D02*
D03*
Y330200D02*
D03*
X736600Y355600D02*
D03*
Y330200D02*
D03*
X762000Y355600D02*
D03*
Y330200D02*
D03*
X787400Y355600D02*
D03*
Y330200D02*
D03*
X812800Y355600D02*
D03*
Y-355600D02*
D03*
X711200D02*
D03*
X880000Y-152700D02*
D03*
X112000Y260000D02*
D03*
X880000Y-178100D02*
D03*
D92*
X29000Y-63500D02*
D03*
Y63500D02*
D03*
D93*
X120000Y147300D02*
D03*
D94*
X512000Y328000D02*
D03*
X456000D02*
D03*
X344000D02*
D03*
X400000D02*
D03*
D95*
X120000Y172700D02*
D03*
X54219Y-228029D02*
D03*
Y-271971D02*
D03*
D96*
X112000Y234600D02*
D03*
X880000Y-76500D02*
D03*
D97*
X812800Y330200D02*
D03*
X711200Y-330200D02*
D03*
D98*
X50000Y-350000D02*
D03*
X900000D02*
D03*
Y350000D02*
D03*
X50000D02*
D03*
D99*
X398000Y116000D02*
D03*
X386000D02*
D03*
X398000Y136000D02*
D03*
X386000Y136000D02*
D03*
X482000Y142000D02*
D03*
Y130000D02*
D03*
X470000Y142000D02*
D03*
Y130000D02*
D03*
X110000Y-266000D02*
D03*
X100000Y-266000D02*
D03*
X188000Y36000D02*
D03*
X164000Y-184000D02*
D03*
X176000Y-196000D02*
D03*
X164000D02*
D03*
X176000Y-184000D02*
D03*
X534000Y210000D02*
D03*
X522000Y222000D02*
D03*
X534000D02*
D03*
X522000Y210000D02*
D03*
X348000Y-150000D02*
D03*
X838000Y-198000D02*
D03*
X242000Y240000D02*
D03*
X194000Y188000D02*
D03*
X470000Y-8000D02*
D03*
X668000Y-134000D02*
D03*
X664000Y114000D02*
D03*
X772000Y234000D02*
D03*
X708000Y-104000D02*
D03*
X388000Y-274000D02*
D03*
X588000Y-342000D02*
D03*
X474000Y-254000D02*
D03*
X274000Y-74000D02*
D03*
X704000Y68000D02*
D03*
X752000Y-246000D02*
D03*
X334000Y8000D02*
D03*
X672000Y-104000D02*
D03*
X438000Y48000D02*
D03*
X812000Y-104000D02*
D03*
X814000Y-52000D02*
D03*
Y80000D02*
D03*
X798000Y4000D02*
D03*
X246000Y-292000D02*
D03*
X508000Y-274000D02*
D03*
X624000Y-342000D02*
D03*
X162000Y-250000D02*
D03*
X278000Y4000D02*
D03*
X434000Y-346000D02*
D03*
X769000Y-105000D02*
D03*
X784000Y76000D02*
D03*
X576000Y-48000D02*
D03*
X432000Y248000D02*
D03*
X582000Y128000D02*
D03*
X684000Y134000D02*
D03*
X664000Y-186000D02*
D03*
X620000Y-38000D02*
D03*
X508000Y-36000D02*
D03*
X276000Y-172000D02*
D03*
X800000Y-30000D02*
D03*
X564000Y16000D02*
D03*
X392000Y-96000D02*
D03*
X576000Y-76000D02*
D03*
X760000Y-218000D02*
D03*
X784000Y24000D02*
D03*
X582000Y-228000D02*
D03*
X260000Y-48000D02*
D03*
X110000Y-338000D02*
D03*
X502000Y258000D02*
D03*
X330000Y-60000D02*
D03*
X624000Y260000D02*
D03*
X308000Y-116000D02*
D03*
X532000Y-108000D02*
D03*
X588000Y-258000D02*
D03*
X752000Y252000D02*
D03*
X612000Y128000D02*
D03*
X791000Y252000D02*
D03*
X616000Y140000D02*
D03*
X257000Y-208000D02*
D03*
X476000Y258000D02*
D03*
X444000Y272000D02*
D03*
X184000Y240000D02*
D03*
X166000Y-222000D02*
D03*
X650000Y138000D02*
D03*
X704000Y-134000D02*
D03*
X554000Y-346000D02*
D03*
X624000Y-184000D02*
D03*
X870000Y112000D02*
D03*
X260000Y36000D02*
D03*
X272000Y-292000D02*
D03*
X374500Y36000D02*
D03*
X354000Y-254000D02*
D03*
X166000Y-278000D02*
D03*
X234000Y-172000D02*
D03*
X546000Y-44000D02*
D03*
X588000Y260000D02*
D03*
X654000Y-104000D02*
D03*
X812000Y-268000D02*
D03*
X350000Y36000D02*
D03*
X300000Y-96000D02*
D03*
X384000Y-36000D02*
D03*
X412000Y-132000D02*
D03*
X612000Y-12000D02*
D03*
X644000Y-184000D02*
D03*
X525000Y139000D02*
D03*
X413000Y206500D02*
D03*
X646000Y108000D02*
D03*
X366000Y-204000D02*
D03*
X624000Y344000D02*
D03*
X390000Y-76000D02*
D03*
X460000Y188000D02*
D03*
X528000Y28000D02*
D03*
X712000Y152000D02*
D03*
X620000Y-56000D02*
D03*
X508000Y-52000D02*
D03*
X118000Y-250000D02*
D03*
X280000Y-316000D02*
D03*
X806000Y16000D02*
D03*
X604000Y104000D02*
D03*
X732000Y268000D02*
D03*
X784000Y-56000D02*
D03*
X326000Y138000D02*
D03*
X234000Y116000D02*
D03*
X234000Y-192000D02*
D03*
X827000Y156000D02*
D03*
X252000Y-322000D02*
D03*
X850000Y186000D02*
D03*
X668000Y-116000D02*
D03*
X308000Y96000D02*
D03*
X396000Y52000D02*
D03*
X732000Y-228000D02*
D03*
X720000Y68000D02*
D03*
X624000Y-258000D02*
D03*
X544000Y-116000D02*
D03*
X350000Y-36000D02*
D03*
X120000Y-148000D02*
D03*
X426000Y154000D02*
D03*
X260000Y66000D02*
D03*
X792000Y-246000D02*
D03*
X744000Y68000D02*
D03*
X460000Y-132000D02*
D03*
X428000Y20000D02*
D03*
X552000Y60000D02*
D03*
X692000Y268000D02*
D03*
X576000Y68000D02*
D03*
X672000Y244000D02*
D03*
X828000Y69000D02*
D03*
X788000Y-6000D02*
D03*
X576000Y12000D02*
D03*
X412000Y-204000D02*
D03*
X256000Y-116000D02*
D03*
X864000Y176000D02*
D03*
X274000Y114000D02*
D03*
X234000Y-322000D02*
D03*
X546000Y16000D02*
D03*
X564000Y-116000D02*
D03*
X796000Y-52000D02*
D03*
X684000Y116000D02*
D03*
X520000Y-240000D02*
D03*
Y-100000D02*
D03*
X380000Y-8000D02*
D03*
Y8000D02*
D03*
X364000Y-8000D02*
D03*
Y8000D02*
D03*
X336000Y246000D02*
D03*
X148000Y-148000D02*
D03*
X274000Y86000D02*
D03*
X312000Y-160000D02*
D03*
X772000Y-228000D02*
D03*
X838000Y-180000D02*
D03*
X320000Y8000D02*
D03*
X428000Y-4000D02*
D03*
X516000Y-16000D02*
D03*
X564000Y-76000D02*
D03*
X564000Y64000D02*
D03*
X712000Y260000D02*
D03*
X812000Y268000D02*
D03*
X608000Y116000D02*
D03*
X688000Y104000D02*
D03*
X308000Y-76000D02*
D03*
X588000Y344000D02*
D03*
X30000Y-150000D02*
D03*
X426000Y98000D02*
D03*
X828000Y112000D02*
D03*
X818000Y-30000D02*
D03*
X612000Y-134000D02*
D03*
X260000Y48000D02*
D03*
X308000Y76000D02*
D03*
X812000Y-146000D02*
D03*
X796000Y80000D02*
D03*
X704000Y-116000D02*
D03*
X436000Y-204000D02*
D03*
X424000Y-108000D02*
D03*
X508000Y-92000D02*
D03*
X400000Y-240000D02*
D03*
X416000Y-4000D02*
D03*
X436000Y-132000D02*
D03*
X744000Y12000D02*
D03*
Y-204000D02*
D03*
X263000Y189500D02*
D03*
X636000Y-104000D02*
D03*
X152000Y200000D02*
D03*
X292000Y-162000D02*
D03*
X338000Y-130000D02*
D03*
X712000Y-228000D02*
D03*
X564000Y-44000D02*
D03*
X326000Y-18000D02*
D03*
X832000Y-260000D02*
D03*
X664000Y-68000D02*
D03*
X460000Y-204000D02*
D03*
X54000Y-162000D02*
D03*
X528000Y12000D02*
D03*
X712000Y-64000D02*
D03*
X528000Y0D02*
D03*
X632000D02*
D03*
X582000Y110000D02*
D03*
X652000Y124000D02*
D03*
M02*
