G04*
G04 #@! TF.GenerationSoftware,Altium Limited,Altium Designer,20.2.8 (258)*
G04*
G04 Layer_Color=16711935*
%FSLAX44Y44*%
%MOMM*%
G71*
G04*
G04 #@! TF.SameCoordinates,20419356-03F5-4277-A54B-D4DCEC2EED97*
G04*
G04*
G04 #@! TF.FilePolarity,Negative*
G04*
G01*
G75*
%ADD78C,1.9000*%
G04:AMPARAMS|DCode=79|XSize=4.1mm|YSize=4.1mm|CornerRadius=1.05mm|HoleSize=0mm|Usage=FLASHONLY|Rotation=270.000|XOffset=0mm|YOffset=0mm|HoleType=Round|Shape=RoundedRectangle|*
%AMROUNDEDRECTD79*
21,1,4.1000,2.0000,0,0,270.0*
21,1,2.0000,4.1000,0,0,270.0*
1,1,2.1000,-1.0000,-1.0000*
1,1,2.1000,-1.0000,1.0000*
1,1,2.1000,1.0000,1.0000*
1,1,2.1000,1.0000,-1.0000*
%
%ADD79ROUNDEDRECTD79*%
G04:AMPARAMS|DCode=80|XSize=1.6mm|YSize=1.6mm|CornerRadius=0.425mm|HoleSize=0mm|Usage=FLASHONLY|Rotation=90.000|XOffset=0mm|YOffset=0mm|HoleType=Round|Shape=RoundedRectangle|*
%AMROUNDEDRECTD80*
21,1,1.6000,0.7500,0,0,90.0*
21,1,0.7500,1.6000,0,0,90.0*
1,1,0.8500,0.3750,0.3750*
1,1,0.8500,0.3750,-0.3750*
1,1,0.8500,-0.3750,-0.3750*
1,1,0.8500,-0.3750,0.3750*
%
%ADD80ROUNDEDRECTD80*%
%ADD81C,2.4000*%
%ADD82C,1.6000*%
G04:AMPARAMS|DCode=83|XSize=1.9mm|YSize=1.9mm|CornerRadius=0.5mm|HoleSize=0mm|Usage=FLASHONLY|Rotation=90.000|XOffset=0mm|YOffset=0mm|HoleType=Round|Shape=RoundedRectangle|*
%AMROUNDEDRECTD83*
21,1,1.9000,0.9000,0,0,90.0*
21,1,0.9000,1.9000,0,0,90.0*
1,1,1.0000,0.4500,0.4500*
1,1,1.0000,0.4500,-0.4500*
1,1,1.0000,-0.4500,-0.4500*
1,1,1.0000,-0.4500,0.4500*
%
%ADD83ROUNDEDRECTD83*%
G04:AMPARAMS|DCode=84|XSize=1.9mm|YSize=1.9mm|CornerRadius=0.5mm|HoleSize=0mm|Usage=FLASHONLY|Rotation=180.000|XOffset=0mm|YOffset=0mm|HoleType=Round|Shape=RoundedRectangle|*
%AMROUNDEDRECTD84*
21,1,1.9000,0.9000,0,0,180.0*
21,1,0.9000,1.9000,0,0,180.0*
1,1,1.0000,-0.4500,0.4500*
1,1,1.0000,0.4500,0.4500*
1,1,1.0000,0.4500,-0.4500*
1,1,1.0000,-0.4500,-0.4500*
%
%ADD84ROUNDEDRECTD84*%
%ADD85C,7.1000*%
D78*
X112000Y285400D02*
D03*
X736600Y-330200D02*
D03*
Y-355600D02*
D03*
X787400Y-330200D02*
D03*
Y-355600D02*
D03*
X812800Y-330200D02*
D03*
X880000Y-203500D02*
D03*
Y-127300D02*
D03*
Y-101900D02*
D03*
X762000Y-355600D02*
D03*
Y-330200D02*
D03*
X711200Y355600D02*
D03*
Y330200D02*
D03*
X736600Y355600D02*
D03*
Y330200D02*
D03*
X762000Y355600D02*
D03*
Y330200D02*
D03*
X787400Y355600D02*
D03*
Y330200D02*
D03*
X812800Y355600D02*
D03*
Y-355600D02*
D03*
X711200D02*
D03*
X880000Y-152700D02*
D03*
X112000Y260000D02*
D03*
X880000Y-178100D02*
D03*
D79*
X29000Y-63500D02*
D03*
Y63500D02*
D03*
D80*
X120000Y147300D02*
D03*
D81*
X512000Y328000D02*
D03*
X456000D02*
D03*
X344000D02*
D03*
X400000D02*
D03*
D82*
X120000Y172700D02*
D03*
X54219Y-228029D02*
D03*
Y-271971D02*
D03*
D83*
X112000Y234600D02*
D03*
X880000Y-76500D02*
D03*
D84*
X812800Y330200D02*
D03*
X711200Y-330200D02*
D03*
D85*
X50000Y-350000D02*
D03*
X900000D02*
D03*
Y350000D02*
D03*
X50000D02*
D03*
M02*
