G04*
G04 #@! TF.GenerationSoftware,Altium Limited,Altium Designer,20.2.8 (258)*
G04*
G04 Layer_Color=8388736*
%FSLAX44Y44*%
%MOMM*%
G71*
G04*
G04 #@! TF.SameCoordinates,3C6D5B40-6E81-4EE8-AB30-EF2341ADE942*
G04*
G04*
G04 #@! TF.FilePolarity,Positive*
G04*
G01*
G75*
%ADD11C,0.2000*%
D11*
X1000000Y350000D02*
X1005000Y335000D01*
X995000D02*
X1000000Y350000D01*
X995000Y-335000D02*
X1000000Y-350000D01*
X1005000Y-335000D01*
X1000000Y35988D02*
Y350000D01*
Y-350000D02*
Y-43988D01*
X900000Y350000D02*
X1002000D01*
X900000Y-350000D02*
X1002000D01*
X50000Y450000D02*
X65000Y455000D01*
X50000Y450000D02*
X65000Y445000D01*
X885000D02*
X900000Y450000D01*
X885000Y455000D02*
X900000Y450000D01*
X50000D02*
X431012D01*
X510988D02*
X900000D01*
X50000Y350000D02*
Y452000D01*
X900000Y350000D02*
Y452000D01*
X1030000Y400000D02*
X1035000Y385000D01*
X1025000D02*
X1030000Y400000D01*
X1025000Y-385000D02*
X1030000Y-400000D01*
X1035000Y-385000D01*
X1030000Y35988D02*
Y400000D01*
Y-400000D02*
Y-43988D01*
X907000Y400000D02*
X1032000D01*
X907000Y-400000D02*
X1032000D01*
X0Y480000D02*
X15000Y485000D01*
X0Y480000D02*
X15000Y475000D01*
X935000D02*
X950000Y480000D01*
X935000Y485000D02*
X950000Y480000D01*
X0D02*
X431012D01*
X510988D02*
X950000D01*
X0Y357000D02*
Y482000D01*
X950000Y357000D02*
Y482000D01*
X994003Y-39988D02*
Y-29325D01*
X996668D01*
X1007332Y-39988D01*
X1009997D01*
X996668Y-23993D02*
X994003Y-21328D01*
Y-15996D01*
X996668Y-13330D01*
X1007332D01*
X1009997Y-15996D01*
Y-21328D01*
X1007332Y-23993D01*
X996668D01*
X1009997Y-7999D02*
X1007332D01*
Y-5333D01*
X1009997D01*
Y-7999D01*
X996668Y5330D02*
X994003Y7996D01*
Y13328D01*
X996668Y15993D01*
X1007332D01*
X1009997Y13328D01*
Y7996D01*
X1007332Y5330D01*
X996668D01*
Y21325D02*
X994003Y23991D01*
Y29323D01*
X996668Y31988D01*
X1007332D01*
X1009997Y29323D01*
Y23991D01*
X1007332Y21325D01*
X996668D01*
X435012Y453332D02*
X437677Y455997D01*
X443009D01*
X445675Y453332D01*
Y450666D01*
X443009Y448000D01*
X445675Y445334D01*
Y442668D01*
X443009Y440003D01*
X437677D01*
X435012Y442668D01*
Y445334D01*
X437677Y448000D01*
X435012Y450666D01*
Y453332D01*
X437677Y448000D02*
X443009D01*
X461670Y455997D02*
X451007D01*
Y448000D01*
X456338Y450666D01*
X459004D01*
X461670Y448000D01*
Y442668D01*
X459004Y440003D01*
X453672D01*
X451007Y442668D01*
X467001Y440003D02*
Y442668D01*
X469667D01*
Y440003D01*
X467001D01*
X480330Y453332D02*
X482996Y455997D01*
X488328D01*
X490993Y453332D01*
Y442668D01*
X488328Y440003D01*
X482996D01*
X480330Y442668D01*
Y453332D01*
X496325D02*
X498991Y455997D01*
X504323D01*
X506988Y453332D01*
Y442668D01*
X504323Y440003D01*
X498991D01*
X496325Y442668D01*
Y453332D01*
X1026668Y-39988D02*
X1024003Y-37322D01*
Y-31991D01*
X1026668Y-29325D01*
X1029334D01*
X1032000Y-31991D01*
X1034666Y-29325D01*
X1037332D01*
X1039997Y-31991D01*
Y-37322D01*
X1037332Y-39988D01*
X1034666D01*
X1032000Y-37322D01*
X1029334Y-39988D01*
X1026668D01*
X1032000Y-37322D02*
Y-31991D01*
X1026668Y-23993D02*
X1024003Y-21328D01*
Y-15996D01*
X1026668Y-13330D01*
X1037332D01*
X1039997Y-15996D01*
Y-21328D01*
X1037332Y-23993D01*
X1026668D01*
X1039997Y-7999D02*
X1037332D01*
Y-5333D01*
X1039997D01*
Y-7999D01*
X1026668Y5330D02*
X1024003Y7996D01*
Y13328D01*
X1026668Y15993D01*
X1037332D01*
X1039997Y13328D01*
Y7996D01*
X1037332Y5330D01*
X1026668D01*
Y21325D02*
X1024003Y23991D01*
Y29323D01*
X1026668Y31988D01*
X1037332D01*
X1039997Y29323D01*
Y23991D01*
X1037332Y21325D01*
X1026668D01*
X435012Y472668D02*
X437677Y470003D01*
X443009D01*
X445675Y472668D01*
Y483332D01*
X443009Y485997D01*
X437677D01*
X435012Y483332D01*
Y480666D01*
X437677Y478000D01*
X445675D01*
X461670Y485997D02*
X451007D01*
Y478000D01*
X456338Y480666D01*
X459004D01*
X461670Y478000D01*
Y472668D01*
X459004Y470003D01*
X453672D01*
X451007Y472668D01*
X467001Y470003D02*
Y472668D01*
X469667D01*
Y470003D01*
X467001D01*
X480330Y483332D02*
X482996Y485997D01*
X488328D01*
X490993Y483332D01*
Y472668D01*
X488328Y470003D01*
X482996D01*
X480330Y472668D01*
Y483332D01*
X496325D02*
X498991Y485997D01*
X504323D01*
X506988Y483332D01*
Y472668D01*
X504323Y470003D01*
X498991D01*
X496325Y472668D01*
Y483332D01*
M02*
