G04*
G04 #@! TF.GenerationSoftware,Altium Limited,Altium Designer,20.2.8 (258)*
G04*
G04 Layer_Color=65535*
%FSLAX44Y44*%
%MOMM*%
G71*
G04*
G04 #@! TF.SameCoordinates,20419356-03F5-4277-A54B-D4DCEC2EED97*
G04*
G04*
G04 #@! TF.FilePolarity,Positive*
G04*
G01*
G75*
%ADD10C,0.2500*%
%ADD11C,0.2000*%
G36*
X915578Y-225789D02*
X924000Y-230000D01*
X924568Y-230284D01*
X925236Y-231365D01*
X925236Y-232635D01*
X924568Y-233716D01*
X924000Y-234000D01*
X924000D01*
X915578Y-238211D01*
X915003Y-238498D01*
X913719Y-238441D01*
X912626Y-237765D01*
X912000Y-236643D01*
Y-236000D01*
Y-236000D01*
X912000Y-228000D01*
X912000Y-227357D01*
X912626Y-226235D01*
X913719Y-225559D01*
X915003Y-225502D01*
X915578Y-225789D01*
X915578Y-225789D01*
D02*
G37*
D10*
X557250Y136000D02*
G03*
X557250Y136000I-1250J0D01*
G01*
X594250Y76500D02*
G03*
X594250Y76500I-1250J0D01*
G01*
X151750Y-264250D02*
G03*
X151750Y-264250I-1250J0D01*
G01*
X250250Y-80000D02*
G03*
X250250Y-80000I-1250J0D01*
G01*
X347250Y-193750D02*
G03*
X347250Y-193750I-1250J0D01*
G01*
X340250Y25000D02*
G03*
X340250Y25000I-1250J0D01*
G01*
X235525Y-278000D02*
G03*
X235525Y-278000I-1250J0D01*
G01*
X402750Y198000D02*
G03*
X402750Y198000I-1250J0D01*
G01*
X801250Y-108000D02*
G03*
X801250Y-108000I-1250J0D01*
G01*
X833250Y100000D02*
G03*
X833250Y100000I-1250J0D01*
G01*
X275750Y198000D02*
G03*
X275750Y198000I-1250J0D01*
G01*
X359500Y-130000D02*
G03*
X359500Y-130000I-1250J0D01*
G01*
X563250Y-217750D02*
G03*
X563250Y-217750I-1250J0D01*
G01*
D11*
X619000Y66000D02*
G03*
X619000Y66000I-5000J0D01*
G01*
X397500Y-322000D02*
G03*
X397500Y-322000I-17500J0D01*
G01*
X597500Y339000D02*
G03*
X597500Y339000I-500J0D01*
G01*
X517500Y-322000D02*
G03*
X517500Y-322000I-17500J0D01*
G01*
X254500Y-257750D02*
G03*
X254500Y-257750I-5000J0D01*
G01*
X615500Y-337000D02*
G03*
X615500Y-337000I-500J0D01*
G01*
X579500D02*
G03*
X579500Y-337000I-500J0D01*
G01*
X889500Y240000D02*
G03*
X889500Y240000I-17500J0D01*
G01*
X633500Y339000D02*
G03*
X633500Y339000I-500J0D01*
G01*
X188000Y356000D02*
X280000D01*
X188000Y300000D02*
X280000D01*
Y356000D01*
X188000Y300000D02*
Y356000D01*
X598500Y-208500D02*
Y-203500D01*
X609500Y-208500D02*
Y-203500D01*
X543500Y82500D02*
X548500D01*
X543500Y93500D02*
X548500D01*
X524000Y100000D02*
X548000D01*
X524000Y136000D02*
X548000D01*
X562000Y118000D02*
Y120000D01*
X574000Y118000D02*
Y120000D01*
X499500Y82500D02*
X504500D01*
X499500Y93500D02*
X504500D01*
X883500Y150500D02*
X888500D01*
X883500Y161500D02*
X888500D01*
X604000Y-70000D02*
Y70000D01*
X756000Y-70000D02*
Y70000D01*
X610000Y76000D02*
X750000D01*
X610000Y-76000D02*
X750000D01*
X604000Y70000D02*
X610000Y76000D01*
X750000D02*
X756000Y70000D01*
X604000Y-70000D02*
X610000Y-76000D01*
X750000D02*
X756000Y-70000D01*
X517500Y60500D02*
X522500D01*
X517500Y71500D02*
X522500D01*
X407500Y-259500D02*
X412500D01*
X407500Y-248500D02*
X412500D01*
X374000Y-260000D02*
X376000D01*
X374000Y-248000D02*
X376000D01*
X349000Y-334000D02*
Y-310000D01*
X353000Y-353000D02*
X407000D01*
X411000Y-334000D02*
Y-310000D01*
X353000Y-291000D02*
X407000D01*
X407500Y-279500D02*
X412500D01*
X407500Y-268500D02*
X412500D01*
X642000Y128000D02*
Y130000D01*
X630000Y128000D02*
Y130000D01*
X808000Y-10000D02*
X810000D01*
X808000Y-22000D02*
X810000D01*
X804000Y-72000D02*
X806000D01*
X804000Y-60000D02*
X806000D01*
X688000Y-126000D02*
Y-124000D01*
X676000Y-126000D02*
Y-124000D01*
X554000Y-52000D02*
X556000D01*
X554000Y-64000D02*
X556000D01*
X510000Y225500D02*
Y234500D01*
X494000Y225500D02*
Y234500D01*
X137500Y-239000D02*
X142500D01*
X137500Y-261000D02*
X142500D01*
X137500D02*
Y-239000D01*
X142500Y-261000D02*
Y-239000D01*
X594000Y320500D02*
Y323500D01*
X585460Y320730D02*
X588000Y323270D01*
X590540Y320730D01*
X582000Y320500D02*
Y323500D01*
X129500Y-192000D02*
X138500D01*
X129500Y-208000D02*
X138500D01*
X867300Y-62530D02*
X924450D01*
X867300Y-217470D02*
X924450D01*
X867300D02*
Y-62530D01*
X229000Y75000D02*
Y80000D01*
Y-80000D02*
Y-75000D01*
X54000Y80000D02*
X229000D01*
X54000Y-80000D02*
X229000D01*
X43000Y-210000D02*
X60000D01*
X43000Y-290000D02*
X60000D01*
X24750Y134600D02*
X132700D01*
Y185400D01*
X24750D02*
X132700D01*
X829310Y316865D02*
Y368935D01*
X694690D02*
X829310D01*
X694690Y316865D02*
X829310D01*
X694690D02*
Y368935D01*
X67550Y299370D02*
X124700D01*
Y220630D02*
Y299370D01*
X67550Y220630D02*
X124700D01*
X444000Y-159000D02*
Y-137000D01*
X428000D02*
X444000D01*
X428000Y-159000D02*
X444000D01*
X428000D02*
Y-137000D01*
X437000Y226000D02*
X441000D01*
X437000Y206000D02*
X441000D01*
X370750Y-185250D02*
Y-176250D01*
X366500D02*
X370750D01*
X349250D02*
X353500D01*
X349250Y-185250D02*
Y-176250D01*
X473000Y-291000D02*
X527000D01*
X531000Y-334000D02*
Y-310000D01*
X473000Y-353000D02*
X527000D01*
X469000Y-334000D02*
Y-310000D01*
X524304Y315696D02*
X527556Y312444D01*
X496444Y343556D02*
X499696Y340304D01*
X394750Y26500D02*
X398500D01*
Y22750D02*
Y26500D01*
X394750Y-26500D02*
X398500D01*
Y-22750D01*
X345500Y26500D02*
X349250D01*
X345500Y22750D02*
Y26500D01*
Y-26500D02*
Y-22750D01*
Y-26500D02*
X349250D01*
X288500Y-267750D02*
Y-232250D01*
X239500D02*
X288500D01*
X239500Y-267750D02*
X288500D01*
X239500D02*
Y-232250D01*
X383000Y231500D02*
X393000D01*
X383000Y200500D02*
Y231500D01*
X393000Y200500D02*
Y231500D01*
X383000Y200500D02*
X393000D01*
X883500Y181500D02*
X888500D01*
X883500Y170500D02*
X888500D01*
X847000Y162000D02*
X849000D01*
X847000Y150000D02*
X849000D01*
X234000Y221500D02*
Y230500D01*
X218000Y221500D02*
Y230500D01*
X298000Y-184000D02*
Y-182000D01*
X286000Y-184000D02*
Y-182000D01*
X317500Y-184500D02*
Y-179500D01*
X306500Y-184500D02*
Y-179500D01*
X337500Y-184500D02*
Y-179500D01*
X326500Y-184500D02*
Y-179500D01*
X465500Y-184500D02*
Y-179500D01*
X454500Y-184500D02*
Y-179500D01*
X441500Y-184500D02*
Y-179500D01*
X430500Y-184500D02*
Y-179500D01*
X417500Y-184500D02*
Y-179500D01*
X406500Y-184500D02*
Y-179500D01*
X632000Y-126000D02*
Y-124000D01*
X620000Y-126000D02*
Y-124000D01*
X753500Y-128500D02*
Y-123500D01*
X742500Y-128500D02*
Y-123500D01*
X818000Y-126000D02*
Y-124000D01*
X806000Y-126000D02*
Y-124000D01*
X846000Y-190000D02*
Y-188000D01*
X858000Y-190000D02*
Y-188000D01*
X717500Y-252500D02*
Y-247500D01*
X706500Y-252500D02*
Y-247500D01*
X777500Y-252500D02*
Y-247500D01*
X766500Y-252500D02*
Y-247500D01*
X837500Y-292500D02*
Y-287500D01*
X826500Y-292500D02*
Y-287500D01*
X817500Y-292500D02*
Y-287500D01*
X806500Y-292500D02*
Y-287500D01*
X797500Y-292500D02*
Y-287500D01*
X786500Y-292500D02*
Y-287500D01*
X777500Y-292500D02*
Y-287500D01*
X766500Y-292500D02*
Y-287500D01*
X757500Y-292500D02*
Y-287500D01*
X746500Y-292500D02*
Y-287500D01*
X737500Y-292500D02*
Y-287500D01*
X726500Y-292500D02*
Y-287500D01*
X717500Y-292500D02*
Y-287500D01*
X706500Y-292500D02*
Y-287500D01*
X630000Y-321500D02*
Y-318500D01*
X624000Y-321270D02*
X626540Y-318730D01*
X618000Y-321500D02*
Y-318500D01*
X621460Y-318730D02*
X624000Y-321270D01*
X594000Y-321500D02*
Y-318500D01*
X588000Y-321270D02*
X590540Y-318730D01*
X582000Y-321500D02*
Y-318500D01*
X585460Y-318730D02*
X588000Y-321270D01*
X629500Y-282500D02*
Y-277500D01*
X618500Y-282500D02*
Y-277500D01*
X593500Y-282500D02*
Y-277500D01*
X582500Y-282500D02*
Y-277500D01*
X242000Y-302000D02*
X244000D01*
X242000Y-314000D02*
X244000D01*
X186000Y-232000D02*
Y-230000D01*
X174000Y-232000D02*
Y-230000D01*
X207500Y-254500D02*
X212500D01*
X207500Y-265500D02*
X212500D01*
X207500Y-234500D02*
X212500D01*
X207500Y-245500D02*
X212500D01*
X186000Y-270000D02*
Y-268000D01*
X174000Y-270000D02*
Y-268000D01*
X118000Y-314500D02*
Y-305500D01*
X102000Y-314500D02*
Y-305500D01*
X154000Y-170000D02*
Y-168000D01*
X142000Y-170000D02*
Y-168000D01*
X126000Y-170000D02*
Y-168000D01*
X114000Y-170000D02*
Y-168000D01*
X62000Y-139500D02*
Y-130500D01*
X46000Y-139500D02*
Y-130500D01*
X36000Y-130000D02*
Y-128000D01*
X24000Y-130000D02*
Y-128000D01*
X412304Y315696D02*
X415556Y312444D01*
X384444Y343556D02*
X387696Y340304D01*
X356304Y315696D02*
X359556Y312444D01*
X328444Y343556D02*
X331696Y340304D01*
X860000Y271000D02*
X884000D01*
X903000Y213000D02*
Y267000D01*
X860000Y209000D02*
X884000D01*
X841000Y213000D02*
Y267000D01*
X593500Y279500D02*
Y284500D01*
X582500Y279500D02*
Y284500D01*
X629500Y279500D02*
Y284500D01*
X618500Y279500D02*
Y284500D01*
X355500Y233500D02*
Y238500D01*
X344500Y233500D02*
Y238500D01*
X355500Y195500D02*
Y200500D01*
X344500Y195500D02*
Y200500D01*
X379500Y189500D02*
X384500D01*
X379500Y178500D02*
X384500D01*
X768000Y-108000D02*
X792000D01*
X768000Y-144000D02*
X792000D01*
X868000Y68000D02*
Y92000D01*
X832000Y68000D02*
Y92000D01*
X283000Y195500D02*
X293000D01*
X283000Y164500D02*
X293000D01*
X283000D02*
Y195500D01*
X293000Y164500D02*
Y195500D01*
X468304Y315696D02*
X471556Y312444D01*
X440444Y343556D02*
X443696Y340304D01*
X447500Y17500D02*
X452500D01*
X447500Y6500D02*
X452500D01*
X491500Y5500D02*
X496500D01*
X491500Y-5500D02*
X496500D01*
X431500Y-46500D02*
X436500D01*
X431500Y-57500D02*
X436500D01*
X327500Y-70500D02*
X332500D01*
X327500Y-81500D02*
X332500D01*
X431500Y-26500D02*
X436500D01*
X431500Y-37500D02*
X436500D01*
X331500Y157500D02*
Y162500D01*
X320500Y157500D02*
Y162500D01*
X331500Y195500D02*
Y200500D01*
X320500Y195500D02*
Y200500D01*
X291500Y217500D02*
X296500D01*
X291500Y206500D02*
X296500D01*
X527500Y-268500D02*
X532500D01*
X527500Y-279500D02*
X532500D01*
X527500Y-248500D02*
X532500D01*
X527500Y-259500D02*
X532500D01*
X275500Y-90500D02*
X280500D01*
X275500Y-101500D02*
X280500D01*
X327500Y81500D02*
X332500D01*
X327500Y70500D02*
X332500D01*
X367500Y-110500D02*
X372500D01*
X367500Y-121500D02*
X372500D01*
X429500Y-88500D02*
Y-83500D01*
X418500Y-88500D02*
Y-83500D01*
X367500Y-90500D02*
X372500D01*
X367500Y-101500D02*
X372500D01*
X327500Y101500D02*
X332500D01*
X327500Y90500D02*
X332500D01*
X439500Y141500D02*
X444500D01*
X439500Y130500D02*
X444500D01*
X439500Y121500D02*
X444500D01*
X439500Y110500D02*
X444500D01*
X491500Y-14500D02*
X496500D01*
X491500Y-25500D02*
X496500D01*
X327500Y-90500D02*
X332500D01*
X327500Y-101500D02*
X332500D01*
X725500Y123500D02*
Y128500D01*
X714500Y123500D02*
Y128500D01*
X527500Y51500D02*
X532500D01*
X527500Y40500D02*
X532500D01*
X275500Y-110500D02*
X280500D01*
X275500Y-121500D02*
X280500D01*
X293500Y39500D02*
Y44500D01*
X282500Y39500D02*
Y44500D01*
X313500Y39500D02*
Y44500D01*
X302500Y39500D02*
Y44500D01*
X293500Y-32500D02*
Y-27500D01*
X282500Y-32500D02*
Y-27500D01*
X313500Y-32500D02*
Y-27500D01*
X302500Y-32500D02*
Y-27500D01*
X847500Y53500D02*
X852500D01*
X847500Y42500D02*
X852500D01*
X649500Y-208500D02*
Y-203500D01*
X638500Y-208500D02*
Y-203500D01*
X629500Y-208500D02*
Y-203500D01*
X618500Y-208500D02*
Y-203500D01*
X697500Y287500D02*
Y292500D01*
X686500Y287500D02*
Y292500D01*
X717500Y287500D02*
Y292500D01*
X706500Y287500D02*
Y292500D01*
X677500Y287500D02*
Y292500D01*
X666500Y287500D02*
Y292500D01*
X737500Y287500D02*
Y292500D01*
X726500Y287500D02*
Y292500D01*
X817500Y287500D02*
Y292500D01*
X806500Y287500D02*
Y292500D01*
X757500Y287500D02*
Y292500D01*
X746500Y287500D02*
Y292500D01*
X797500Y287500D02*
Y292500D01*
X786500Y287500D02*
Y292500D01*
X777500Y287500D02*
Y292500D01*
X766500Y287500D02*
Y292500D01*
X829310Y-368935D02*
Y-316865D01*
X694690D02*
X829310D01*
X694690Y-368935D02*
X829310D01*
X694690D02*
Y-316865D01*
X161500Y156000D02*
X170500D01*
X161500Y140000D02*
X170500D01*
X510000Y169500D02*
Y178500D01*
X494000Y169500D02*
Y178500D01*
X587500Y-108000D02*
X596500D01*
X587500Y-124000D02*
X596500D01*
X366750Y-133250D02*
X375750D01*
Y-137500D02*
Y-133250D01*
Y-154750D02*
Y-150500D01*
X366750Y-154750D02*
X375750D01*
X586750Y-209250D02*
Y-200250D01*
X582500D02*
X586750D01*
X565250Y-209250D02*
Y-200250D01*
X569500D01*
X235000Y190000D02*
X239000D01*
X235000Y170000D02*
X239000D01*
X468000Y-159000D02*
Y-137000D01*
X452000D02*
X468000D01*
X452000Y-159000D02*
X468000D01*
X452000D02*
Y-137000D01*
X420000Y-159000D02*
Y-137000D01*
X404000D02*
X420000D01*
X404000Y-159000D02*
X420000D01*
X404000D02*
Y-137000D01*
X411500Y280000D02*
X420500D01*
X411500Y264000D02*
X420500D01*
X418000Y190000D02*
X420000D01*
X418000Y178000D02*
X420000D01*
X208000Y221500D02*
Y230500D01*
X192000Y221500D02*
Y230500D01*
X280000Y134000D02*
Y136000D01*
X268000Y134000D02*
Y136000D01*
X258000Y125500D02*
Y134500D01*
X242000Y125500D02*
Y134500D01*
X186000Y178000D02*
Y180000D01*
X174000Y178000D02*
Y180000D01*
X158000Y178000D02*
Y180000D01*
X146000Y178000D02*
Y180000D01*
X256000Y218000D02*
X258000D01*
X256000Y206000D02*
X258000D01*
X494000Y-248000D02*
X496000D01*
X494000Y-260000D02*
X496000D01*
X630000Y320500D02*
Y323500D01*
X621460Y320730D02*
X624000Y323270D01*
X626540Y320730D01*
X618000Y320500D02*
Y323500D01*
X484000Y225500D02*
Y234500D01*
X468000Y225500D02*
Y234500D01*
X410000Y254000D02*
X412000D01*
X410000Y242000D02*
X412000D01*
X254000Y-186000D02*
X256000D01*
X254000Y-198000D02*
X256000D01*
X254000Y-166000D02*
X256000D01*
X254000Y-178000D02*
X256000D01*
X328000Y-110000D02*
X330000D01*
X328000Y-122000D02*
X330000D01*
X294000Y76000D02*
Y78000D01*
X282000Y76000D02*
Y78000D01*
X294000Y-66000D02*
Y-64000D01*
X282000Y-66000D02*
Y-64000D01*
X368000Y-70000D02*
X370000D01*
X368000Y-82000D02*
X370000D01*
X724000Y-126000D02*
Y-124000D01*
X712000Y-126000D02*
Y-124000D01*
X554000Y8000D02*
X556000D01*
X554000Y-4000D02*
X556000D01*
X848000Y118000D02*
X850000D01*
X848000Y106000D02*
X850000D01*
X670000Y-208000D02*
Y-206000D01*
X658000Y-208000D02*
Y-206000D01*
X416000Y54000D02*
X418000D01*
X416000Y42000D02*
X418000D01*
X448000Y-2000D02*
X450000D01*
X448000Y-14000D02*
X450000D01*
X336000Y-40000D02*
Y-38000D01*
X324000Y-40000D02*
Y-38000D01*
X298000Y10000D02*
X300000D01*
X298000Y-2000D02*
X300000D01*
X418000Y144000D02*
Y146000D01*
X406000Y144000D02*
Y146000D01*
X484000Y169500D02*
Y178500D01*
X468000Y169500D02*
Y178500D01*
X418000Y106000D02*
Y108000D01*
X406000Y106000D02*
Y108000D01*
X704000Y124000D02*
Y126000D01*
X692000Y124000D02*
Y126000D01*
X804000Y60000D02*
X806000D01*
X804000Y72000D02*
X806000D01*
X198000Y329333D02*
X200666Y324001D01*
X203332Y329333D01*
X205997Y324001D02*
X208663D01*
X207330D01*
Y331999D01*
X205997Y330666D01*
X212662Y324001D02*
Y325334D01*
X213995D01*
Y324001D01*
X212662D01*
X219326Y330666D02*
X220659Y331999D01*
X223325D01*
X224658Y330666D01*
Y325334D01*
X223325Y324001D01*
X220659D01*
X219326Y325334D01*
Y330666D01*
X227324Y324001D02*
Y325334D01*
X228657D01*
Y324001D01*
X227324D01*
X233988Y330666D02*
X235321Y331999D01*
X237987D01*
X239320Y330666D01*
Y325334D01*
X237987Y324001D01*
X235321D01*
X233988Y325334D01*
Y330666D01*
X198000Y308001D02*
X200666D01*
X199333D01*
Y315999D01*
X198000Y314666D01*
X209996Y308001D02*
X204664D01*
X209996Y313333D01*
Y314666D01*
X208663Y315999D01*
X205997D01*
X204664Y314666D01*
X212662Y308001D02*
Y309334D01*
X213995D01*
Y308001D01*
X212662D01*
X219326Y314666D02*
X220659Y315999D01*
X223325D01*
X224658Y314666D01*
Y309334D01*
X223325Y308001D01*
X220659D01*
X219326Y309334D01*
Y314666D01*
X227324D02*
X228657Y315999D01*
X231323D01*
X232656Y314666D01*
Y313333D01*
X231323Y312000D01*
X229990D01*
X231323D01*
X232656Y310667D01*
Y309334D01*
X231323Y308001D01*
X228657D01*
X227324Y309334D01*
X235321Y308001D02*
Y309334D01*
X236654D01*
Y308001D01*
X235321D01*
X247317D02*
X241986D01*
X247317Y313333D01*
Y314666D01*
X245984Y315999D01*
X243319D01*
X241986Y314666D01*
X249983D02*
X251316Y315999D01*
X253982D01*
X255315Y314666D01*
Y309334D01*
X253982Y308001D01*
X251316D01*
X249983Y309334D01*
Y314666D01*
X263312Y308001D02*
X257981D01*
X263312Y313333D01*
Y314666D01*
X261979Y315999D01*
X259314D01*
X257981Y314666D01*
X271310Y308001D02*
X265978D01*
X271310Y313333D01*
Y314666D01*
X269977Y315999D01*
X267311D01*
X265978Y314666D01*
X198000Y340001D02*
Y347999D01*
X201999D01*
X203332Y346666D01*
Y344000D01*
X201999Y342667D01*
X198000D01*
X205997Y347999D02*
X208663D01*
X207330D01*
Y340001D01*
X205997D01*
X208663D01*
X217994Y346666D02*
X216661Y347999D01*
X213995D01*
X212662Y346666D01*
Y341334D01*
X213995Y340001D01*
X216661D01*
X217994Y341334D01*
X220659Y346666D02*
X221992Y347999D01*
X224658D01*
X225991Y346666D01*
Y345333D01*
X224658Y344000D01*
X223325D01*
X224658D01*
X225991Y342667D01*
Y341334D01*
X224658Y340001D01*
X221992D01*
X220659Y341334D01*
X233988Y340001D02*
X228657D01*
X233988Y345333D01*
Y346666D01*
X232656Y347999D01*
X229990D01*
X228657Y346666D01*
X241986Y347999D02*
X236654D01*
Y340001D01*
X241986D01*
X236654Y344000D02*
X239320D01*
X244652Y347999D02*
X249983D01*
X247317D01*
Y340001D01*
X252649Y347999D02*
Y340001D01*
Y344000D01*
X257981D01*
Y347999D01*
Y340001D01*
X256000Y331999D02*
Y330666D01*
X258666Y328000D01*
X261331Y330666D01*
Y331999D01*
X258666Y328000D02*
Y324001D01*
X269329Y330666D02*
X267996Y331999D01*
X265330D01*
X263997Y330666D01*
Y329333D01*
X265330Y328000D01*
X267996D01*
X269329Y326667D01*
Y325334D01*
X267996Y324001D01*
X265330D01*
X263997Y325334D01*
X868000Y-48001D02*
X870666D01*
X869333D01*
Y-55999D01*
X868000D01*
X870666D01*
X879996Y-49334D02*
X878663Y-48001D01*
X875997D01*
X874665Y-49334D01*
Y-54666D01*
X875997Y-55999D01*
X878663D01*
X879996Y-54666D01*
X887994Y-49334D02*
X886661Y-48001D01*
X883995D01*
X882662Y-49334D01*
Y-50667D01*
X883995Y-52000D01*
X886661D01*
X887994Y-53333D01*
Y-54666D01*
X886661Y-55999D01*
X883995D01*
X882662Y-54666D01*
X890659Y-55999D02*
Y-48001D01*
X894658D01*
X895991Y-49334D01*
Y-52000D01*
X894658Y-53333D01*
X890659D01*
X898657Y-55999D02*
X901323D01*
X899990D01*
Y-48001D01*
X898657Y-49334D01*
X701332Y-377334D02*
X699999Y-376001D01*
X697333D01*
X696000Y-377334D01*
Y-382666D01*
X697333Y-383999D01*
X699999D01*
X701332Y-382666D01*
Y-380000D01*
X698666D01*
X703997Y-383999D02*
Y-376001D01*
X707996D01*
X709329Y-377334D01*
Y-380000D01*
X707996Y-381333D01*
X703997D01*
X711995Y-376001D02*
X714661D01*
X713328D01*
Y-383999D01*
X711995D01*
X714661D01*
X722658Y-376001D02*
X719992D01*
X718659Y-377334D01*
Y-382666D01*
X719992Y-383999D01*
X722658D01*
X723991Y-382666D01*
Y-377334D01*
X722658Y-376001D01*
X734654Y-383999D02*
X737320D01*
X735987D01*
Y-376001D01*
X734654Y-377334D01*
X701332Y382666D02*
X699999Y383999D01*
X697333D01*
X696000Y382666D01*
Y377334D01*
X697333Y376001D01*
X699999D01*
X701332Y377334D01*
Y380000D01*
X698666D01*
X703997Y376001D02*
Y383999D01*
X707996D01*
X709329Y382666D01*
Y380000D01*
X707996Y378667D01*
X703997D01*
X711995Y383999D02*
X714661D01*
X713328D01*
Y376001D01*
X711995D01*
X714661D01*
X722658Y383999D02*
X719992D01*
X718659Y382666D01*
Y377334D01*
X719992Y376001D01*
X722658D01*
X723991Y377334D01*
Y382666D01*
X722658Y383999D01*
X739986Y376001D02*
X734654D01*
X739986Y381333D01*
Y382666D01*
X738653Y383999D01*
X735987D01*
X734654Y382666D01*
X408001Y-124668D02*
Y-127334D01*
Y-126001D01*
X414666D01*
X415999Y-127334D01*
Y-128667D01*
X414666Y-130000D01*
X415999Y-122003D02*
X408001D01*
Y-118004D01*
X409334Y-116671D01*
X412000D01*
X413333Y-118004D01*
Y-122003D01*
X415999Y-114005D02*
Y-111339D01*
Y-112672D01*
X408001D01*
X409334Y-114005D01*
X432001Y-124668D02*
Y-127334D01*
Y-126001D01*
X438666D01*
X439999Y-127334D01*
Y-128667D01*
X438666Y-130000D01*
X439999Y-122003D02*
X432001D01*
Y-118004D01*
X433334Y-116671D01*
X436000D01*
X437333Y-118004D01*
Y-122003D01*
X433334Y-114005D02*
X432001Y-112672D01*
Y-110007D01*
X433334Y-108674D01*
X434667D01*
X436000Y-110007D01*
Y-111339D01*
Y-110007D01*
X437333Y-108674D01*
X438666D01*
X439999Y-110007D01*
Y-112672D01*
X438666Y-114005D01*
X456001Y-124668D02*
Y-127334D01*
Y-126001D01*
X462666D01*
X463999Y-127334D01*
Y-128667D01*
X462666Y-130000D01*
X463999Y-122003D02*
X456001D01*
Y-118004D01*
X457334Y-116671D01*
X460000D01*
X461333Y-118004D01*
Y-122003D01*
X463999Y-108674D02*
Y-114005D01*
X458667Y-108674D01*
X457334D01*
X456001Y-110007D01*
Y-112672D01*
X457334Y-114005D01*
X917999Y222000D02*
X910001D01*
Y225999D01*
X911334Y227332D01*
X914000D01*
X915333Y225999D01*
Y222000D01*
Y224666D02*
X917999Y227332D01*
Y233996D02*
Y231330D01*
X916666Y229997D01*
X914000D01*
X912667Y231330D01*
Y233996D01*
X914000Y235329D01*
X915333D01*
Y229997D01*
X917999Y237995D02*
Y241994D01*
X916666Y243326D01*
X915333Y241994D01*
Y239328D01*
X914000Y237995D01*
X912667Y239328D01*
Y243326D01*
X917999Y249991D02*
Y247325D01*
X916666Y245992D01*
X914000D01*
X912667Y247325D01*
Y249991D01*
X914000Y251324D01*
X915333D01*
Y245992D01*
X911334Y255323D02*
X912667D01*
Y253990D01*
Y256656D01*
Y255323D01*
X916666D01*
X917999Y256656D01*
X620001Y-383324D02*
X627999D01*
Y-377992D01*
X620001Y-369995D02*
Y-375326D01*
X627999D01*
Y-369995D01*
X624000Y-375326D02*
Y-372661D01*
X620001Y-367329D02*
X627999D01*
Y-363330D01*
X626666Y-361997D01*
X621334D01*
X620001Y-363330D01*
Y-367329D01*
X621334Y-359332D02*
X620001Y-357999D01*
Y-355333D01*
X621334Y-354000D01*
X626666D01*
X627999Y-355333D01*
Y-357999D01*
X626666Y-359332D01*
X621334D01*
X584001Y-380658D02*
X591999D01*
Y-375326D01*
X584001Y-367329D02*
Y-372661D01*
X591999D01*
Y-367329D01*
X588000Y-372661D02*
Y-369995D01*
X584001Y-364663D02*
X591999D01*
Y-360664D01*
X590666Y-359332D01*
X585334D01*
X584001Y-360664D01*
Y-364663D01*
X591999Y-356666D02*
Y-354000D01*
Y-355333D01*
X584001D01*
X585334Y-356666D01*
X588000Y354000D02*
Y359332D01*
X585334Y356666D02*
X590666D01*
X584001Y367329D02*
Y361997D01*
X588000D01*
X586667Y364663D01*
Y365996D01*
X588000Y367329D01*
X590666D01*
X591999Y365996D01*
Y363330D01*
X590666Y361997D01*
X584001Y369995D02*
X589333D01*
X591999Y372661D01*
X589333Y375326D01*
X584001D01*
X624000Y354000D02*
Y359332D01*
X621334Y356666D02*
X626666D01*
X621334Y361997D02*
X620001Y363330D01*
Y365996D01*
X621334Y367329D01*
X622667D01*
X624000Y365996D01*
Y364663D01*
Y365996D01*
X625333Y367329D01*
X626666D01*
X627999Y365996D01*
Y363330D01*
X626666Y361997D01*
X620001Y369995D02*
X625333D01*
X627999Y372661D01*
X625333Y375326D01*
X620001D01*
X621334Y377992D02*
X620001Y379325D01*
Y381991D01*
X621334Y383324D01*
X622667D01*
X624000Y381991D01*
Y380658D01*
Y381991D01*
X625333Y383324D01*
X626666D01*
X627999Y381991D01*
Y379325D01*
X626666Y377992D01*
X835120Y-359599D02*
X837786D01*
X836453D01*
Y-351601D01*
X835120Y-352934D01*
X841785D02*
X843117Y-351601D01*
X845783D01*
X847116Y-352934D01*
Y-358266D01*
X845783Y-359599D01*
X843117D01*
X841785Y-358266D01*
Y-352934D01*
X835120Y-332866D02*
X836453Y-334199D01*
X839119D01*
X840452Y-332866D01*
Y-327534D01*
X839119Y-326201D01*
X836453D01*
X835120Y-327534D01*
Y-328867D01*
X836453Y-330200D01*
X840452D01*
X686214Y-334199D02*
X688880D01*
X687547D01*
Y-326201D01*
X686214Y-327534D01*
X688880Y-359599D02*
X683548D01*
X688880Y-354267D01*
Y-352934D01*
X687547Y-351601D01*
X684881D01*
X683548Y-352934D01*
Y327534D02*
X684881Y326201D01*
X687547D01*
X688880Y327534D01*
Y332866D01*
X687547Y334199D01*
X684881D01*
X683548Y332866D01*
Y331533D01*
X684881Y330200D01*
X688880D01*
X676884Y351601D02*
X679550D01*
X678217D01*
Y359599D01*
X676884Y358266D01*
X683548D02*
X684881Y359599D01*
X687547D01*
X688880Y358266D01*
Y352934D01*
X687547Y351601D01*
X684881D01*
X683548Y352934D01*
Y358266D01*
X840452Y351601D02*
X835120D01*
X840452Y356933D01*
Y358266D01*
X839119Y359599D01*
X836453D01*
X835120Y358266D01*
Y326201D02*
X837786D01*
X836453D01*
Y334199D01*
X835120Y332866D01*
X31332Y201332D02*
X28666Y199999D01*
X26000Y197333D01*
Y194667D01*
X27333Y193334D01*
X29999D01*
X31332Y194667D01*
Y196000D01*
X29999Y197333D01*
X26000D01*
X33997Y201332D02*
Y196000D01*
X36663Y193334D01*
X39329Y196000D01*
Y201332D01*
X41995Y197333D02*
X47326D01*
X55324Y193334D02*
X49992D01*
X55324Y198666D01*
Y199999D01*
X53991Y201332D01*
X51325D01*
X49992Y199999D01*
X57990D02*
X59323Y201332D01*
X61988D01*
X63321Y199999D01*
Y194667D01*
X61988Y193334D01*
X59323D01*
X57990Y194667D01*
Y199999D01*
X65987Y201332D02*
Y196000D01*
X68653Y193334D01*
X71319Y196000D01*
Y201332D01*
X81982D02*
X84648D01*
X83315D01*
Y193334D01*
X81982D01*
X84648D01*
X88646D02*
Y198666D01*
X92645D01*
X93978Y197333D01*
Y193334D01*
X96644Y190668D02*
Y198666D01*
X100643D01*
X101975Y197333D01*
Y194667D01*
X100643Y193334D01*
X96644D01*
X104641Y198666D02*
Y194667D01*
X105974Y193334D01*
X109973D01*
Y198666D01*
X113972Y199999D02*
Y198666D01*
X112639D01*
X115304D01*
X113972D01*
Y194667D01*
X115304Y193334D01*
X26000Y251999D02*
Y244001D01*
Y248000D01*
X31332D01*
Y251999D01*
Y244001D01*
X37996D02*
X35330D01*
X33997Y245334D01*
Y248000D01*
X35330Y249333D01*
X37996D01*
X39329Y248000D01*
Y246667D01*
X33997D01*
X43328Y249333D02*
X45994D01*
X47326Y248000D01*
Y244001D01*
X43328D01*
X41995Y245334D01*
X43328Y246667D01*
X47326D01*
X55324Y251999D02*
Y244001D01*
X51325D01*
X49992Y245334D01*
Y248000D01*
X51325Y249333D01*
X55324D01*
X61988Y244001D02*
X59323D01*
X57990Y245334D01*
Y248000D01*
X59323Y249333D01*
X61988D01*
X63321Y248000D01*
Y246667D01*
X57990D01*
X65987Y249333D02*
Y244001D01*
Y246667D01*
X67320Y248000D01*
X68653Y249333D01*
X69986D01*
X26000Y275999D02*
Y269334D01*
X27333Y268001D01*
X29999D01*
X31332Y269334D01*
Y275999D01*
X39329Y274666D02*
X37996Y275999D01*
X35330D01*
X33997Y274666D01*
Y273333D01*
X35330Y272000D01*
X37996D01*
X39329Y270667D01*
Y269334D01*
X37996Y268001D01*
X35330D01*
X33997Y269334D01*
X41995Y275999D02*
Y268001D01*
X45994D01*
X47326Y269334D01*
Y270667D01*
X45994Y272000D01*
X41995D01*
X45994D01*
X47326Y273333D01*
Y274666D01*
X45994Y275999D01*
X41995D01*
X486000Y-360001D02*
Y-367999D01*
X489999D01*
X491332Y-366666D01*
Y-365333D01*
X489999Y-364000D01*
X486000D01*
X489999D01*
X491332Y-362667D01*
Y-361334D01*
X489999Y-360001D01*
X486000D01*
X493997D02*
X499329D01*
X496663D01*
Y-367999D01*
X501995D02*
Y-360001D01*
X507326Y-367999D01*
Y-360001D01*
X509992Y-367999D02*
X512658D01*
X511325D01*
Y-360001D01*
X509992Y-361334D01*
X366000Y-360001D02*
Y-367999D01*
X369999D01*
X371332Y-366666D01*
Y-365333D01*
X369999Y-364000D01*
X366000D01*
X369999D01*
X371332Y-362667D01*
Y-361334D01*
X369999Y-360001D01*
X366000D01*
X373997D02*
X379329D01*
X376663D01*
Y-367999D01*
X381995D02*
Y-360001D01*
X387327Y-367999D01*
Y-360001D01*
X389992Y-361334D02*
X391325Y-360001D01*
X393991D01*
X395324Y-361334D01*
Y-366666D01*
X393991Y-367999D01*
X391325D01*
X389992Y-366666D01*
Y-361334D01*
X344000Y354000D02*
Y359332D01*
X341334Y356666D02*
X346666D01*
X340001Y367329D02*
Y361997D01*
X344000D01*
X342667Y364663D01*
Y365996D01*
X344000Y367329D01*
X346666D01*
X347999Y365996D01*
Y363330D01*
X346666Y361997D01*
X340001Y369995D02*
X345333D01*
X347999Y372661D01*
X345333Y375326D01*
X340001D01*
X400000Y354000D02*
Y359332D01*
X397334Y356666D02*
X402666D01*
X397334Y361997D02*
X396001Y363330D01*
Y365996D01*
X397334Y367329D01*
X398667D01*
X400000Y365996D01*
Y364663D01*
Y365996D01*
X401333Y367329D01*
X402666D01*
X403999Y365996D01*
Y363330D01*
X402666Y361997D01*
X396001Y369995D02*
X401333D01*
X403999Y372661D01*
X401333Y375326D01*
X396001D01*
X397334Y377992D02*
X396001Y379325D01*
Y381991D01*
X397334Y383324D01*
X398667D01*
X400000Y381991D01*
Y380658D01*
Y381991D01*
X401333Y383324D01*
X402666D01*
X403999Y381991D01*
Y379325D01*
X402666Y377992D01*
X453334Y359332D02*
X452001Y357999D01*
Y355333D01*
X453334Y354000D01*
X458666D01*
X459999Y355333D01*
Y357999D01*
X458666Y359332D01*
X456000D01*
Y356666D01*
X459999Y361997D02*
X452001D01*
X459999Y367329D01*
X452001D01*
Y369995D02*
X459999D01*
Y373994D01*
X458666Y375326D01*
X453334D01*
X452001Y373994D01*
Y369995D01*
X509334Y359332D02*
X508001Y357999D01*
Y355333D01*
X509334Y354000D01*
X514666D01*
X515999Y355333D01*
Y357999D01*
X514666Y359332D01*
X512000D01*
Y356666D01*
X515999Y361997D02*
X508001D01*
X515999Y367329D01*
X508001D01*
Y369995D02*
X515999D01*
Y373994D01*
X514666Y375326D01*
X509334D01*
X508001Y373994D01*
Y369995D01*
M02*
