G04*
G04 #@! TF.GenerationSoftware,Altium Limited,Altium Designer,20.2.8 (258)*
G04*
G04 Layer_Color=8388736*
%FSLAX44Y44*%
%MOMM*%
G71*
G04*
G04 #@! TF.SameCoordinates,20419356-03F5-4277-A54B-D4DCEC2EED97*
G04*
G04*
G04 #@! TF.FilePolarity,Negative*
G04*
G01*
G75*
%ADD40R,1.0500X1.7500*%
%ADD41R,0.9500X0.6000*%
%ADD42R,0.9500X0.6000*%
%ADD43R,2.4000X3.0000*%
%ADD44R,4.4500X1.3500*%
%ADD45R,4.4500X1.3500*%
%ADD46R,0.9500X1.2500*%
%ADD47R,14.0000X1.5500*%
%ADD48R,1.5500X14.0000*%
%ADD49R,1.5500X14.0000*%
%ADD50O,0.5000X1.3500*%
G04:AMPARAMS|DCode=51|XSize=1.4mm|YSize=1.1mm|CornerRadius=0.2mm|HoleSize=0mm|Usage=FLASHONLY|Rotation=0.000|XOffset=0mm|YOffset=0mm|HoleType=Round|Shape=RoundedRectangle|*
%AMROUNDEDRECTD51*
21,1,1.4000,0.7000,0,0,0.0*
21,1,1.0000,1.1000,0,0,0.0*
1,1,0.4000,0.5000,-0.3500*
1,1,0.4000,-0.5000,-0.3500*
1,1,0.4000,-0.5000,0.3500*
1,1,0.4000,0.5000,0.3500*
%
%ADD51ROUNDEDRECTD51*%
G04:AMPARAMS|DCode=52|XSize=1.5mm|YSize=1.15mm|CornerRadius=0.2075mm|HoleSize=0mm|Usage=FLASHONLY|Rotation=0.000|XOffset=0mm|YOffset=0mm|HoleType=Round|Shape=RoundedRectangle|*
%AMROUNDEDRECTD52*
21,1,1.5000,0.7350,0,0,0.0*
21,1,1.0850,1.1500,0,0,0.0*
1,1,0.4150,0.5425,-0.3675*
1,1,0.4150,-0.5425,-0.3675*
1,1,0.4150,-0.5425,0.3675*
1,1,0.4150,0.5425,0.3675*
%
%ADD52ROUNDEDRECTD52*%
G04:AMPARAMS|DCode=53|XSize=1.4mm|YSize=1.1mm|CornerRadius=0.2mm|HoleSize=0mm|Usage=FLASHONLY|Rotation=90.000|XOffset=0mm|YOffset=0mm|HoleType=Round|Shape=RoundedRectangle|*
%AMROUNDEDRECTD53*
21,1,1.4000,0.7000,0,0,90.0*
21,1,1.0000,1.1000,0,0,90.0*
1,1,0.4000,0.3500,0.5000*
1,1,0.4000,0.3500,-0.5000*
1,1,0.4000,-0.3500,-0.5000*
1,1,0.4000,-0.3500,0.5000*
%
%ADD53ROUNDEDRECTD53*%
G04:AMPARAMS|DCode=54|XSize=2.4mm|YSize=0.58mm|CornerRadius=0.17mm|HoleSize=0mm|Usage=FLASHONLY|Rotation=0.000|XOffset=0mm|YOffset=0mm|HoleType=Round|Shape=RoundedRectangle|*
%AMROUNDEDRECTD54*
21,1,2.4000,0.2400,0,0,0.0*
21,1,2.0600,0.5800,0,0,0.0*
1,1,0.3400,1.0300,-0.1200*
1,1,0.3400,-1.0300,-0.1200*
1,1,0.3400,-1.0300,0.1200*
1,1,0.3400,1.0300,0.1200*
%
%ADD54ROUNDEDRECTD54*%
G04:AMPARAMS|DCode=55|XSize=0.55mm|YSize=0.95mm|CornerRadius=0.1625mm|HoleSize=0mm|Usage=FLASHONLY|Rotation=270.000|XOffset=0mm|YOffset=0mm|HoleType=Round|Shape=RoundedRectangle|*
%AMROUNDEDRECTD55*
21,1,0.5500,0.6250,0,0,270.0*
21,1,0.2250,0.9500,0,0,270.0*
1,1,0.3250,-0.3125,-0.1125*
1,1,0.3250,-0.3125,0.1125*
1,1,0.3250,0.3125,0.1125*
1,1,0.3250,0.3125,-0.1125*
%
%ADD55ROUNDEDRECTD55*%
G04:AMPARAMS|DCode=56|XSize=1.9mm|YSize=1.4mm|CornerRadius=0.245mm|HoleSize=0mm|Usage=FLASHONLY|Rotation=90.000|XOffset=0mm|YOffset=0mm|HoleType=Round|Shape=RoundedRectangle|*
%AMROUNDEDRECTD56*
21,1,1.9000,0.9100,0,0,90.0*
21,1,1.4100,1.4000,0,0,90.0*
1,1,0.4900,0.4550,0.7050*
1,1,0.4900,0.4550,-0.7050*
1,1,0.4900,-0.4550,-0.7050*
1,1,0.4900,-0.4550,0.7050*
%
%ADD56ROUNDEDRECTD56*%
%ADD57O,0.3000X1.5500*%
%ADD58O,1.5500X0.3000*%
G04:AMPARAMS|DCode=59|XSize=0.6mm|YSize=0.95mm|CornerRadius=0.175mm|HoleSize=0mm|Usage=FLASHONLY|Rotation=180.000|XOffset=0mm|YOffset=0mm|HoleType=Round|Shape=RoundedRectangle|*
%AMROUNDEDRECTD59*
21,1,0.6000,0.6000,0,0,180.0*
21,1,0.2500,0.9500,0,0,180.0*
1,1,0.3500,-0.1250,0.3000*
1,1,0.3500,0.1250,0.3000*
1,1,0.3500,0.1250,-0.3000*
1,1,0.3500,-0.1250,-0.3000*
%
%ADD59ROUNDEDRECTD59*%
G04:AMPARAMS|DCode=60|XSize=0.6mm|YSize=0.95mm|CornerRadius=0.175mm|HoleSize=0mm|Usage=FLASHONLY|Rotation=90.000|XOffset=0mm|YOffset=0mm|HoleType=Round|Shape=RoundedRectangle|*
%AMROUNDEDRECTD60*
21,1,0.6000,0.6000,0,0,90.0*
21,1,0.2500,0.9500,0,0,90.0*
1,1,0.3500,0.3000,0.1250*
1,1,0.3500,0.3000,-0.1250*
1,1,0.3500,-0.3000,-0.1250*
1,1,0.3500,-0.3000,0.1250*
%
%ADD60ROUNDEDRECTD60*%
G04:AMPARAMS|DCode=61|XSize=1.5mm|YSize=1.15mm|CornerRadius=0.2075mm|HoleSize=0mm|Usage=FLASHONLY|Rotation=270.000|XOffset=0mm|YOffset=0mm|HoleType=Round|Shape=RoundedRectangle|*
%AMROUNDEDRECTD61*
21,1,1.5000,0.7350,0,0,270.0*
21,1,1.0850,1.1500,0,0,270.0*
1,1,0.4150,-0.3675,-0.5425*
1,1,0.4150,-0.3675,0.5425*
1,1,0.4150,0.3675,0.5425*
1,1,0.4150,0.3675,-0.5425*
%
%ADD61ROUNDEDRECTD61*%
G04:AMPARAMS|DCode=62|XSize=1.65mm|YSize=1.4mm|CornerRadius=0.375mm|HoleSize=0mm|Usage=FLASHONLY|Rotation=0.000|XOffset=0mm|YOffset=0mm|HoleType=Round|Shape=RoundedRectangle|*
%AMROUNDEDRECTD62*
21,1,1.6500,0.6500,0,0,0.0*
21,1,0.9000,1.4000,0,0,0.0*
1,1,0.7500,0.4500,-0.3250*
1,1,0.7500,-0.4500,-0.3250*
1,1,0.7500,-0.4500,0.3250*
1,1,0.7500,0.4500,0.3250*
%
%ADD62ROUNDEDRECTD62*%
%ADD63O,0.3500X1.0000*%
G04:AMPARAMS|DCode=64|XSize=1.65mm|YSize=1.4mm|CornerRadius=0.375mm|HoleSize=0mm|Usage=FLASHONLY|Rotation=270.000|XOffset=0mm|YOffset=0mm|HoleType=Round|Shape=RoundedRectangle|*
%AMROUNDEDRECTD64*
21,1,1.6500,0.6500,0,0,270.0*
21,1,0.9000,1.4000,0,0,270.0*
1,1,0.7500,-0.3250,-0.4500*
1,1,0.7500,-0.3250,0.4500*
1,1,0.7500,0.3250,0.4500*
1,1,0.7500,0.3250,-0.4500*
%
%ADD64ROUNDEDRECTD64*%
%ADD65O,1.0000X0.3500*%
G04:AMPARAMS|DCode=66|XSize=0.95mm|YSize=0.65mm|CornerRadius=0.1875mm|HoleSize=0mm|Usage=FLASHONLY|Rotation=180.000|XOffset=0mm|YOffset=0mm|HoleType=Round|Shape=RoundedRectangle|*
%AMROUNDEDRECTD66*
21,1,0.9500,0.2750,0,0,180.0*
21,1,0.5750,0.6500,0,0,180.0*
1,1,0.3750,-0.2875,0.1375*
1,1,0.3750,0.2875,0.1375*
1,1,0.3750,0.2875,-0.1375*
1,1,0.3750,-0.2875,-0.1375*
%
%ADD66ROUNDEDRECTD66*%
G04:AMPARAMS|DCode=67|XSize=2.6mm|YSize=2.1mm|CornerRadius=0.55mm|HoleSize=0mm|Usage=FLASHONLY|Rotation=0.000|XOffset=0mm|YOffset=0mm|HoleType=Round|Shape=RoundedRectangle|*
%AMROUNDEDRECTD67*
21,1,2.6000,1.0000,0,0,0.0*
21,1,1.5000,2.1000,0,0,0.0*
1,1,1.1000,0.7500,-0.5000*
1,1,1.1000,-0.7500,-0.5000*
1,1,1.1000,-0.7500,0.5000*
1,1,1.1000,0.7500,0.5000*
%
%ADD67ROUNDEDRECTD67*%
G04:AMPARAMS|DCode=68|XSize=1.9mm|YSize=1.4mm|CornerRadius=0.245mm|HoleSize=0mm|Usage=FLASHONLY|Rotation=0.000|XOffset=0mm|YOffset=0mm|HoleType=Round|Shape=RoundedRectangle|*
%AMROUNDEDRECTD68*
21,1,1.9000,0.9100,0,0,0.0*
21,1,1.4100,1.4000,0,0,0.0*
1,1,0.4900,0.7050,-0.4550*
1,1,0.4900,-0.7050,-0.4550*
1,1,0.4900,-0.7050,0.4550*
1,1,0.4900,0.7050,0.4550*
%
%ADD68ROUNDEDRECTD68*%
G04:AMPARAMS|DCode=69|XSize=1.5mm|YSize=1.1mm|CornerRadius=0.2mm|HoleSize=0mm|Usage=FLASHONLY|Rotation=0.000|XOffset=0mm|YOffset=0mm|HoleType=Round|Shape=RoundedRectangle|*
%AMROUNDEDRECTD69*
21,1,1.5000,0.7000,0,0,0.0*
21,1,1.1000,1.1000,0,0,0.0*
1,1,0.4000,0.5500,-0.3500*
1,1,0.4000,-0.5500,-0.3500*
1,1,0.4000,-0.5500,0.3500*
1,1,0.4000,0.5500,0.3500*
%
%ADD69ROUNDEDRECTD69*%
G04:AMPARAMS|DCode=70|XSize=4.1mm|YSize=3.6mm|CornerRadius=0.925mm|HoleSize=0mm|Usage=FLASHONLY|Rotation=0.000|XOffset=0mm|YOffset=0mm|HoleType=Round|Shape=RoundedRectangle|*
%AMROUNDEDRECTD70*
21,1,4.1000,1.7500,0,0,0.0*
21,1,2.2500,3.6000,0,0,0.0*
1,1,1.8500,1.1250,-0.8750*
1,1,1.8500,-1.1250,-0.8750*
1,1,1.8500,-1.1250,0.8750*
1,1,1.8500,1.1250,0.8750*
%
%ADD70ROUNDEDRECTD70*%
G04:AMPARAMS|DCode=71|XSize=4.7mm|YSize=0.71mm|CornerRadius=0.2025mm|HoleSize=0mm|Usage=FLASHONLY|Rotation=0.000|XOffset=0mm|YOffset=0mm|HoleType=Round|Shape=RoundedRectangle|*
%AMROUNDEDRECTD71*
21,1,4.7000,0.3050,0,0,0.0*
21,1,4.2950,0.7100,0,0,0.0*
1,1,0.4050,2.1475,-0.1525*
1,1,0.4050,-2.1475,-0.1525*
1,1,0.4050,-2.1475,0.1525*
1,1,0.4050,2.1475,0.1525*
%
%ADD71ROUNDEDRECTD71*%
G04:AMPARAMS|DCode=72|XSize=1.3mm|YSize=1.5mm|CornerRadius=0.35mm|HoleSize=0mm|Usage=FLASHONLY|Rotation=270.000|XOffset=0mm|YOffset=0mm|HoleType=Round|Shape=RoundedRectangle|*
%AMROUNDEDRECTD72*
21,1,1.3000,0.8000,0,0,270.0*
21,1,0.6000,1.5000,0,0,270.0*
1,1,0.7000,-0.4000,-0.3000*
1,1,0.7000,-0.4000,0.3000*
1,1,0.7000,0.4000,0.3000*
1,1,0.7000,0.4000,-0.3000*
%
%ADD72ROUNDEDRECTD72*%
G04:AMPARAMS|DCode=73|XSize=1.3mm|YSize=1.5mm|CornerRadius=0.35mm|HoleSize=0mm|Usage=FLASHONLY|Rotation=0.000|XOffset=0mm|YOffset=0mm|HoleType=Round|Shape=RoundedRectangle|*
%AMROUNDEDRECTD73*
21,1,1.3000,0.8000,0,0,0.0*
21,1,0.6000,1.5000,0,0,0.0*
1,1,0.7000,0.3000,-0.4000*
1,1,0.7000,-0.3000,-0.4000*
1,1,0.7000,-0.3000,0.4000*
1,1,0.7000,0.3000,0.4000*
%
%ADD73ROUNDEDRECTD73*%
G04:AMPARAMS|DCode=74|XSize=0.7mm|YSize=1.05mm|CornerRadius=0.2mm|HoleSize=0mm|Usage=FLASHONLY|Rotation=270.000|XOffset=0mm|YOffset=0mm|HoleType=Round|Shape=RoundedRectangle|*
%AMROUNDEDRECTD74*
21,1,0.7000,0.6500,0,0,270.0*
21,1,0.3000,1.0500,0,0,270.0*
1,1,0.4000,-0.3250,-0.1500*
1,1,0.4000,-0.3250,0.1500*
1,1,0.4000,0.3250,0.1500*
1,1,0.4000,0.3250,-0.1500*
%
%ADD74ROUNDEDRECTD74*%
%ADD75R,3.2500X3.2500*%
G04:AMPARAMS|DCode=76|XSize=4.7mm|YSize=0.91mm|CornerRadius=0.2525mm|HoleSize=0mm|Usage=FLASHONLY|Rotation=0.000|XOffset=0mm|YOffset=0mm|HoleType=Round|Shape=RoundedRectangle|*
%AMROUNDEDRECTD76*
21,1,4.7000,0.4050,0,0,0.0*
21,1,4.1950,0.9100,0,0,0.0*
1,1,0.5050,2.0975,-0.2025*
1,1,0.5050,-2.0975,-0.2025*
1,1,0.5050,-2.0975,0.2025*
1,1,0.5050,2.0975,0.2025*
%
%ADD76ROUNDEDRECTD76*%
G04:AMPARAMS|DCode=77|XSize=2.3mm|YSize=1.25mm|CornerRadius=0.2225mm|HoleSize=0mm|Usage=FLASHONLY|Rotation=270.000|XOffset=0mm|YOffset=0mm|HoleType=Round|Shape=RoundedRectangle|*
%AMROUNDEDRECTD77*
21,1,2.3000,0.8050,0,0,270.0*
21,1,1.8550,1.2500,0,0,270.0*
1,1,0.4450,-0.4025,-0.9275*
1,1,0.4450,-0.4025,0.9275*
1,1,0.4450,0.4025,0.9275*
1,1,0.4450,0.4025,-0.9275*
%
%ADD77ROUNDEDRECTD77*%
%ADD78C,1.9000*%
G04:AMPARAMS|DCode=79|XSize=4.1mm|YSize=4.1mm|CornerRadius=1.05mm|HoleSize=0mm|Usage=FLASHONLY|Rotation=270.000|XOffset=0mm|YOffset=0mm|HoleType=Round|Shape=RoundedRectangle|*
%AMROUNDEDRECTD79*
21,1,4.1000,2.0000,0,0,270.0*
21,1,2.0000,4.1000,0,0,270.0*
1,1,2.1000,-1.0000,-1.0000*
1,1,2.1000,-1.0000,1.0000*
1,1,2.1000,1.0000,1.0000*
1,1,2.1000,1.0000,-1.0000*
%
%ADD79ROUNDEDRECTD79*%
G04:AMPARAMS|DCode=80|XSize=1.6mm|YSize=1.6mm|CornerRadius=0.425mm|HoleSize=0mm|Usage=FLASHONLY|Rotation=90.000|XOffset=0mm|YOffset=0mm|HoleType=Round|Shape=RoundedRectangle|*
%AMROUNDEDRECTD80*
21,1,1.6000,0.7500,0,0,90.0*
21,1,0.7500,1.6000,0,0,90.0*
1,1,0.8500,0.3750,0.3750*
1,1,0.8500,0.3750,-0.3750*
1,1,0.8500,-0.3750,-0.3750*
1,1,0.8500,-0.3750,0.3750*
%
%ADD80ROUNDEDRECTD80*%
%ADD81C,2.4000*%
%ADD82C,1.6000*%
G04:AMPARAMS|DCode=83|XSize=1.9mm|YSize=1.9mm|CornerRadius=0.5mm|HoleSize=0mm|Usage=FLASHONLY|Rotation=90.000|XOffset=0mm|YOffset=0mm|HoleType=Round|Shape=RoundedRectangle|*
%AMROUNDEDRECTD83*
21,1,1.9000,0.9000,0,0,90.0*
21,1,0.9000,1.9000,0,0,90.0*
1,1,1.0000,0.4500,0.4500*
1,1,1.0000,0.4500,-0.4500*
1,1,1.0000,-0.4500,-0.4500*
1,1,1.0000,-0.4500,0.4500*
%
%ADD83ROUNDEDRECTD83*%
G04:AMPARAMS|DCode=84|XSize=1.9mm|YSize=1.9mm|CornerRadius=0.5mm|HoleSize=0mm|Usage=FLASHONLY|Rotation=180.000|XOffset=0mm|YOffset=0mm|HoleType=Round|Shape=RoundedRectangle|*
%AMROUNDEDRECTD84*
21,1,1.9000,0.9000,0,0,180.0*
21,1,0.9000,1.9000,0,0,180.0*
1,1,1.0000,-0.4500,0.4500*
1,1,1.0000,0.4500,0.4500*
1,1,1.0000,0.4500,-0.4500*
1,1,1.0000,-0.4500,-0.4500*
%
%ADD84ROUNDEDRECTD84*%
%ADD85C,7.1000*%
G36*
X352250Y20250D02*
X352250Y27000D01*
X352250Y27447D01*
X352592Y28274D01*
X353225Y28907D01*
X354052Y29249D01*
X354500Y29249D01*
X354500Y29250D01*
X389500Y29250D01*
X389948Y29250D01*
X390774Y28907D01*
X391407Y28274D01*
X391750Y27447D01*
X391749Y27000D01*
X391750Y27000D01*
X391750Y20250D01*
X391759Y20152D01*
X391834Y19972D01*
X391972Y19834D01*
X392152Y19760D01*
X392250Y19750D01*
X392250Y19750D01*
X399000Y19750D01*
X399448D01*
X400275Y19407D01*
X400907Y18774D01*
X401250Y17947D01*
X401250Y17500D01*
X401250Y17500D01*
X401250Y-17500D01*
X401250Y-17948D01*
X400907Y-18775D01*
X400274Y-19408D01*
X399447Y-19750D01*
X399000Y-19750D01*
X399000Y-19750D01*
X392250D01*
X392152Y-19760D01*
X391972Y-19834D01*
X391834Y-19972D01*
X391759Y-20153D01*
X391750Y-20250D01*
Y-20250D01*
X391750Y-27000D01*
X391750Y-27448D01*
X391407Y-28275D01*
X390774Y-28908D01*
X389948Y-29250D01*
X389500Y-29250D01*
X389500D01*
X354500Y-29250D01*
X354052Y-29250D01*
X353225Y-28908D01*
X352593Y-28275D01*
X352250Y-27448D01*
X352250Y-27000D01*
Y-27000D01*
X352250Y-20250D01*
X352240Y-20152D01*
X352166Y-19972D01*
X352028Y-19834D01*
X351847Y-19760D01*
X351750Y-19750D01*
X351750Y-19750D01*
X345000Y-19750D01*
X344552D01*
X343725Y-19408D01*
X343092Y-18775D01*
X342750Y-17948D01*
Y-17500D01*
Y-17500D01*
Y17500D01*
X342750Y17947D01*
X343092Y18774D01*
X343725Y19407D01*
X344552Y19749D01*
X344999Y19749D01*
X345000Y19750D01*
X351750D01*
X351847Y19760D01*
X352027Y19834D01*
X352165Y19972D01*
X352240Y20152D01*
X352249Y20249D01*
X352250Y20250D01*
D02*
G37*
D40*
X401500Y216000D02*
D03*
X374500D02*
D03*
X301500Y180000D02*
D03*
X274500D02*
D03*
D41*
X460000Y-148000D02*
D03*
X436000D02*
D03*
D42*
X412000D02*
D03*
D43*
X80000Y-250000D02*
D03*
D44*
X264000Y-222000D02*
D03*
D45*
Y-278000D02*
D03*
D46*
X150500Y-250000D02*
D03*
X129500D02*
D03*
D47*
X680000Y87000D02*
D03*
X680000Y-87000D02*
D03*
D48*
X767000Y-0D02*
D03*
D49*
X593000D02*
D03*
D50*
X273525Y-222000D02*
D03*
X286225Y-278000D02*
D03*
Y-222000D02*
D03*
X260825Y-278000D02*
D03*
X241775D02*
D03*
X260825Y-222000D02*
D03*
X267175Y-278000D02*
D03*
Y-222000D02*
D03*
X254475Y-278000D02*
D03*
X279875Y-222000D02*
D03*
X254475D02*
D03*
X279875Y-278000D02*
D03*
X273525D02*
D03*
X248125Y-222000D02*
D03*
X241775D02*
D03*
X248125Y-278000D02*
D03*
D51*
X332000Y-192000D02*
D03*
X312000D02*
D03*
X752000Y-300000D02*
D03*
Y-280000D02*
D03*
X732000Y-300000D02*
D03*
Y-280000D02*
D03*
X792000Y-300000D02*
D03*
Y-280000D02*
D03*
X832000Y-300000D02*
D03*
Y-280000D02*
D03*
X812000Y-300000D02*
D03*
Y-280000D02*
D03*
X588000Y-270000D02*
D03*
X624000D02*
D03*
X332000Y-172000D02*
D03*
X604000Y-196000D02*
D03*
X436000Y-172000D02*
D03*
X460000D02*
D03*
X412000D02*
D03*
X588000Y292000D02*
D03*
X624000D02*
D03*
X588000Y-290000D02*
D03*
X624000D02*
D03*
X288000Y52000D02*
D03*
X308000D02*
D03*
X288000Y-40000D02*
D03*
X308000D02*
D03*
X604000Y-216000D02*
D03*
X644000D02*
D03*
X624000D02*
D03*
X644000Y-196000D02*
D03*
X712000Y-300000D02*
D03*
Y-260000D02*
D03*
Y-280000D02*
D03*
X772000Y-300000D02*
D03*
Y-260000D02*
D03*
Y-280000D02*
D03*
X692000Y300000D02*
D03*
Y280000D02*
D03*
X712000Y300000D02*
D03*
Y280000D02*
D03*
X672000Y300000D02*
D03*
Y280000D02*
D03*
X732000Y300000D02*
D03*
Y280000D02*
D03*
X812000Y300000D02*
D03*
Y280000D02*
D03*
X752000Y300000D02*
D03*
Y280000D02*
D03*
X792000Y300000D02*
D03*
Y280000D02*
D03*
X772000Y300000D02*
D03*
Y280000D02*
D03*
X350000Y246000D02*
D03*
X326000Y150000D02*
D03*
X460000Y-192000D02*
D03*
X412000D02*
D03*
X720000Y136000D02*
D03*
Y116000D02*
D03*
X308000Y-20000D02*
D03*
X288000D02*
D03*
X308000Y32000D02*
D03*
X288000D02*
D03*
X424000Y-76000D02*
D03*
X748000Y-136000D02*
D03*
Y-116000D02*
D03*
X326000Y208000D02*
D03*
Y170000D02*
D03*
Y188000D02*
D03*
X350000Y226000D02*
D03*
Y208000D02*
D03*
X588000Y272000D02*
D03*
X624000D02*
D03*
X350000Y188000D02*
D03*
X312000Y-172000D02*
D03*
X624000Y-196000D02*
D03*
X712000Y-240000D02*
D03*
X772000D02*
D03*
X436000Y-192000D02*
D03*
X424000Y-96000D02*
D03*
D52*
X292000Y-192000D02*
D03*
X180000Y-260000D02*
D03*
Y-240000D02*
D03*
X148000Y-178000D02*
D03*
X120000D02*
D03*
X30000Y-120000D02*
D03*
X288000Y68000D02*
D03*
Y-56000D02*
D03*
X626000Y-116000D02*
D03*
X664000Y-216000D02*
D03*
X152000Y170000D02*
D03*
X30000Y-138000D02*
D03*
X852000Y-198000D02*
D03*
X148000Y-160000D02*
D03*
X120000D02*
D03*
X274000Y126000D02*
D03*
X180000Y188000D02*
D03*
X152000D02*
D03*
X292000Y-174000D02*
D03*
X180000Y-222000D02*
D03*
Y-278000D02*
D03*
X288000Y86000D02*
D03*
Y-74000D02*
D03*
X330000Y-48000D02*
D03*
X412000Y154000D02*
D03*
Y98000D02*
D03*
X568000Y128000D02*
D03*
X812000Y-116000D02*
D03*
X636000Y138000D02*
D03*
X698000Y134000D02*
D03*
X718000Y-134000D02*
D03*
X682000D02*
D03*
X626000D02*
D03*
X664000Y-198000D02*
D03*
X274000Y144000D02*
D03*
X180000Y170000D02*
D03*
X852000Y-180000D02*
D03*
X568000Y110000D02*
D03*
X812000Y-134000D02*
D03*
X636000Y120000D02*
D03*
X698000Y116000D02*
D03*
X718000Y-116000D02*
D03*
X682000D02*
D03*
X330000Y-30000D02*
D03*
X412000Y136000D02*
D03*
Y116000D02*
D03*
D53*
X220000Y-260000D02*
D03*
Y-240000D02*
D03*
X200000Y-260000D02*
D03*
Y-240000D02*
D03*
X876000Y156000D02*
D03*
X520000Y-254000D02*
D03*
X400000D02*
D03*
X540000Y-274000D02*
D03*
Y-254000D02*
D03*
X420000Y-274000D02*
D03*
Y-254000D02*
D03*
X288000Y-116000D02*
D03*
Y-96000D02*
D03*
X340000Y76000D02*
D03*
Y96000D02*
D03*
X896000Y176000D02*
D03*
Y156000D02*
D03*
X380000Y-116000D02*
D03*
X392000Y184000D02*
D03*
X284000Y212000D02*
D03*
X520000Y-274000D02*
D03*
X400000D02*
D03*
X320000Y-76000D02*
D03*
X268000Y-116000D02*
D03*
X876000Y176000D02*
D03*
X510000Y66000D02*
D03*
X530000D02*
D03*
X520000Y46000D02*
D03*
X540000D02*
D03*
X340000Y-76000D02*
D03*
Y-96000D02*
D03*
X460000Y12000D02*
D03*
X440000D02*
D03*
X444000Y-52000D02*
D03*
X424000D02*
D03*
X444000Y-32000D02*
D03*
X424000D02*
D03*
X360000Y-116000D02*
D03*
Y-96000D02*
D03*
X268000Y-96000D02*
D03*
X320000Y76000D02*
D03*
X504000Y-0D02*
D03*
X484000D02*
D03*
X484000Y-20000D02*
D03*
X512000Y88000D02*
D03*
X536000D02*
D03*
X556000D02*
D03*
X492000D02*
D03*
X860000Y48000D02*
D03*
X840000D02*
D03*
X304000Y212000D02*
D03*
X372000Y184000D02*
D03*
X320000Y-96000D02*
D03*
X432000Y136000D02*
D03*
X504000Y-20000D02*
D03*
X380000Y-96000D02*
D03*
X320000Y96000D02*
D03*
X452000Y136000D02*
D03*
Y116000D02*
D03*
X432000D02*
D03*
D54*
X80000Y-250000D02*
D03*
Y-242126D02*
D03*
Y-234252D02*
D03*
Y-265748D02*
D03*
Y-257874D02*
D03*
D55*
X150500Y-256500D02*
D03*
Y-243500D02*
D03*
Y-250000D02*
D03*
X129500D02*
D03*
Y-243500D02*
D03*
Y-256500D02*
D03*
D56*
X148000Y-200000D02*
D03*
X120000D02*
D03*
X606000Y-116000D02*
D03*
X152000Y148000D02*
D03*
X430000Y272000D02*
D03*
X180000Y148000D02*
D03*
X402000Y272000D02*
D03*
X578000Y-116000D02*
D03*
D57*
X710000Y87000D02*
D03*
X714000D02*
D03*
X750000D02*
D03*
X658000Y-87000D02*
D03*
X654000D02*
D03*
X626000D02*
D03*
X610000Y87000D02*
D03*
X614000D02*
D03*
X618000D02*
D03*
X634000D02*
D03*
X646000D02*
D03*
X642000D02*
D03*
X694000D02*
D03*
X714000Y-87000D02*
D03*
X678000D02*
D03*
X630000D02*
D03*
X706000Y87000D02*
D03*
X722000Y-87000D02*
D03*
X726000D02*
D03*
Y87000D02*
D03*
X746000Y-87000D02*
D03*
X638000Y87000D02*
D03*
X698000D02*
D03*
X718000Y-87000D02*
D03*
X682000D02*
D03*
X610000D02*
D03*
X614000D02*
D03*
X618000D02*
D03*
X622000D02*
D03*
X634000D02*
D03*
X638000D02*
D03*
X642000D02*
D03*
X646000D02*
D03*
X650000D02*
D03*
X662000D02*
D03*
X666000D02*
D03*
X670000D02*
D03*
X674000D02*
D03*
X686000D02*
D03*
X690000D02*
D03*
X694000D02*
D03*
X698000D02*
D03*
X702000D02*
D03*
X706000D02*
D03*
X710000D02*
D03*
X730000D02*
D03*
X734000D02*
D03*
X738000D02*
D03*
X742000D02*
D03*
X750000D02*
D03*
X746000Y87000D02*
D03*
X742000D02*
D03*
X738000D02*
D03*
X734000D02*
D03*
X730000D02*
D03*
X722000D02*
D03*
X718000D02*
D03*
X702000D02*
D03*
X690000D02*
D03*
X686000D02*
D03*
X682000D02*
D03*
X678000D02*
D03*
X674000D02*
D03*
X670000D02*
D03*
X666000D02*
D03*
X662000D02*
D03*
X658000D02*
D03*
X654000D02*
D03*
X650000D02*
D03*
X630000D02*
D03*
X626000D02*
D03*
X622000D02*
D03*
D58*
X767000Y2000D02*
D03*
Y-2000D02*
D03*
X593000Y-26000D02*
D03*
Y-30000D02*
D03*
Y-22000D02*
D03*
Y-18000D02*
D03*
Y-6000D02*
D03*
Y-70000D02*
D03*
Y-66000D02*
D03*
X767000Y22000D02*
D03*
Y18000D02*
D03*
X593000Y54000D02*
D03*
Y58000D02*
D03*
Y62000D02*
D03*
X767000Y70000D02*
D03*
Y-6000D02*
D03*
Y-62000D02*
D03*
X593000Y-54000D02*
D03*
Y6000D02*
D03*
Y42000D02*
D03*
Y46000D02*
D03*
X767000Y-38000D02*
D03*
Y34000D02*
D03*
Y42000D02*
D03*
X593000Y-34000D02*
D03*
X767000Y62000D02*
D03*
Y66000D02*
D03*
Y-10000D02*
D03*
Y-66000D02*
D03*
X593000Y-58000D02*
D03*
Y2000D02*
D03*
Y70000D02*
D03*
Y66000D02*
D03*
Y50000D02*
D03*
Y38000D02*
D03*
Y34000D02*
D03*
Y30000D02*
D03*
Y26000D02*
D03*
Y22000D02*
D03*
Y18000D02*
D03*
Y14000D02*
D03*
Y10000D02*
D03*
Y-2000D02*
D03*
Y-10000D02*
D03*
Y-14000D02*
D03*
Y-38000D02*
D03*
Y-42000D02*
D03*
Y-46000D02*
D03*
Y-50000D02*
D03*
Y-62000D02*
D03*
X767000Y-70000D02*
D03*
Y-58000D02*
D03*
Y-54000D02*
D03*
Y-50000D02*
D03*
Y-46000D02*
D03*
Y-42000D02*
D03*
Y-34000D02*
D03*
Y-30000D02*
D03*
Y-26000D02*
D03*
Y-22000D02*
D03*
Y-18000D02*
D03*
Y-14000D02*
D03*
Y6000D02*
D03*
Y10000D02*
D03*
Y14000D02*
D03*
Y26000D02*
D03*
Y30000D02*
D03*
Y38000D02*
D03*
Y46000D02*
D03*
Y50000D02*
D03*
Y54000D02*
D03*
Y58000D02*
D03*
D59*
X353500Y-193500D02*
D03*
X569500Y-217500D02*
D03*
X360000Y-172000D02*
D03*
X576000Y-196000D02*
D03*
X366500Y-193500D02*
D03*
X582500Y-217500D02*
D03*
D60*
X358500Y-137500D02*
D03*
X380000Y-144000D02*
D03*
X358500Y-150500D02*
D03*
D61*
X857000Y156000D02*
D03*
X504000Y-254000D02*
D03*
X384000Y-254000D02*
D03*
X410000Y184000D02*
D03*
X266000Y212000D02*
D03*
X420000Y248000D02*
D03*
X486000Y-254000D02*
D03*
X366000Y-254000D02*
D03*
X234000Y-308000D02*
D03*
X246000Y-192000D02*
D03*
Y-172000D02*
D03*
X338000Y-116000D02*
D03*
X378000Y-76000D02*
D03*
X426000Y48000D02*
D03*
X458000Y-8000D02*
D03*
X290000Y4000D02*
D03*
X840000Y112000D02*
D03*
X814000Y-66000D02*
D03*
Y66000D02*
D03*
X818000Y-16000D02*
D03*
X546000Y-58000D02*
D03*
Y2000D02*
D03*
X839000Y156000D02*
D03*
X360000Y-76000D02*
D03*
X248000Y212000D02*
D03*
X428000Y184000D02*
D03*
X402000Y248000D02*
D03*
X264000Y-192000D02*
D03*
Y-172000D02*
D03*
X252000Y-308000D02*
D03*
X858000Y112000D02*
D03*
X796000Y-66000D02*
D03*
Y66000D02*
D03*
X800000Y-16000D02*
D03*
X564000Y-58000D02*
D03*
Y2000D02*
D03*
X320000Y-116000D02*
D03*
X308000Y4000D02*
D03*
X440000Y-8000D02*
D03*
X408000Y48000D02*
D03*
D62*
X539750Y-299500D02*
D03*
X419750D02*
D03*
X539750Y-344500D02*
D03*
X419750D02*
D03*
X340250D02*
D03*
Y-299500D02*
D03*
X460250D02*
D03*
Y-344500D02*
D03*
D63*
X354500Y23750D02*
D03*
X359500D02*
D03*
X379500Y-23750D02*
D03*
X374500Y23750D02*
D03*
X379500D02*
D03*
X354500Y-23750D02*
D03*
X384500Y23750D02*
D03*
X389500Y-23750D02*
D03*
X359500D02*
D03*
X369500D02*
D03*
X374500D02*
D03*
X364500Y23750D02*
D03*
X389500D02*
D03*
X369500D02*
D03*
X384500Y-23750D02*
D03*
X364500D02*
D03*
D64*
X894500Y200250D02*
D03*
X849500D02*
D03*
X894500Y279750D02*
D03*
X849500D02*
D03*
D65*
X395750Y-2500D02*
D03*
Y7500D02*
D03*
X348250D02*
D03*
X395750Y12500D02*
D03*
Y17500D02*
D03*
X348250Y-7500D02*
D03*
Y-2500D02*
D03*
Y-17500D02*
D03*
X395750Y2500D02*
D03*
Y-17500D02*
D03*
X348250Y17500D02*
D03*
Y12500D02*
D03*
X395750Y-12500D02*
D03*
X348250D02*
D03*
Y2500D02*
D03*
X395750Y-7500D02*
D03*
D66*
X436000Y-144000D02*
D03*
Y-152000D02*
D03*
X460000Y-144000D02*
D03*
Y-152000D02*
D03*
X412000Y-144000D02*
D03*
Y-152000D02*
D03*
D67*
X79111Y-205550D02*
D03*
X23993D02*
D03*
Y-294450D02*
D03*
X79111D02*
D03*
D68*
X110000Y-296000D02*
D03*
X54000Y-121000D02*
D03*
X110000Y-324000D02*
D03*
X54000Y-149000D02*
D03*
X502000Y244000D02*
D03*
X476000D02*
D03*
X200000Y240000D02*
D03*
X226000D02*
D03*
X250000Y116000D02*
D03*
X476000Y188000D02*
D03*
X200000Y212000D02*
D03*
X226000D02*
D03*
X250000Y144000D02*
D03*
X502000Y188000D02*
D03*
Y216000D02*
D03*
X476000D02*
D03*
X502000Y160000D02*
D03*
X476000D02*
D03*
D69*
X588000Y312000D02*
D03*
X624000Y312000D02*
D03*
X588000Y-310000D02*
D03*
X624000D02*
D03*
X588000Y332000D02*
D03*
X624000Y332000D02*
D03*
X588000Y-330000D02*
D03*
X624000D02*
D03*
D70*
X29000Y-80000D02*
D03*
Y80000D02*
D03*
D71*
X229000Y35700D02*
D03*
Y-35700D02*
D03*
Y-25500D02*
D03*
Y5100D02*
D03*
Y15300D02*
D03*
Y-15300D02*
D03*
Y-5100D02*
D03*
Y25500D02*
D03*
D72*
X525000Y126000D02*
D03*
X769000Y-118000D02*
D03*
X525000Y110000D02*
D03*
X769000Y-134000D02*
D03*
X547000Y110000D02*
D03*
Y126000D02*
D03*
X791000Y-134000D02*
D03*
Y-118000D02*
D03*
D73*
X842000Y69000D02*
D03*
X858000D02*
D03*
Y91000D02*
D03*
X842000D02*
D03*
D74*
X401500Y206500D02*
D03*
X274500Y189500D02*
D03*
Y170500D02*
D03*
Y180000D02*
D03*
X301500Y170500D02*
D03*
Y189500D02*
D03*
X401500Y216000D02*
D03*
X374500Y225500D02*
D03*
Y206500D02*
D03*
X401500Y225500D02*
D03*
X374500Y216000D02*
D03*
X301500Y180000D02*
D03*
D75*
X372000Y-0D02*
D03*
D76*
X229000Y-47700D02*
D03*
Y-66100D02*
D03*
Y47700D02*
D03*
Y66100D02*
D03*
D77*
X226000Y180000D02*
D03*
X248000D02*
D03*
X428000Y216000D02*
D03*
X450000D02*
D03*
D78*
X112000Y285400D02*
D03*
X736600Y-330200D02*
D03*
Y-355600D02*
D03*
X787400Y-330200D02*
D03*
Y-355600D02*
D03*
X812800Y-330200D02*
D03*
X880000Y-203500D02*
D03*
Y-127300D02*
D03*
Y-101900D02*
D03*
X762000Y-355600D02*
D03*
Y-330200D02*
D03*
X711200Y355600D02*
D03*
Y330200D02*
D03*
X736600Y355600D02*
D03*
Y330200D02*
D03*
X762000Y355600D02*
D03*
Y330200D02*
D03*
X787400Y355600D02*
D03*
Y330200D02*
D03*
X812800Y355600D02*
D03*
Y-355600D02*
D03*
X711200D02*
D03*
X880000Y-152700D02*
D03*
X112000Y260000D02*
D03*
X880000Y-178100D02*
D03*
D79*
X29000Y-63500D02*
D03*
Y63500D02*
D03*
D80*
X120000Y147300D02*
D03*
D81*
X512000Y328000D02*
D03*
X456000D02*
D03*
X344000D02*
D03*
X400000D02*
D03*
D82*
X120000Y172700D02*
D03*
X54219Y-228029D02*
D03*
Y-271971D02*
D03*
D83*
X112000Y234600D02*
D03*
X880000Y-76500D02*
D03*
D84*
X812800Y330200D02*
D03*
X711200Y-330200D02*
D03*
D85*
X50000Y-350000D02*
D03*
X900000D02*
D03*
Y350000D02*
D03*
X50000D02*
D03*
M02*
