G04*
G04 #@! TF.GenerationSoftware,Altium Limited,Altium Designer,20.2.8 (258)*
G04*
G04 Layer_Color=3326705*
%FSLAX44Y44*%
%MOMM*%
G71*
G04*
G04 #@! TF.SameCoordinates,D94C3FF0-480C-42D2-A4DF-6CDED05E9D2A*
G04*
G04*
G04 #@! TF.FilePolarity,Positive*
G04*
G01*
G75*
%ADD11C,0.2000*%
D11*
X679346Y-126355D02*
X678013Y-127688D01*
Y-130354D01*
X679346Y-131687D01*
X684678D01*
X686010Y-130354D01*
Y-127688D01*
X684678Y-126355D01*
X678013Y-118358D02*
X679346Y-121024D01*
X682012Y-123689D01*
X684678D01*
X686010Y-122357D01*
Y-119691D01*
X684678Y-118358D01*
X683345D01*
X682012Y-119691D01*
Y-123689D01*
X674572Y4007D02*
Y-2657D01*
X675905Y-3990D01*
X678571D01*
X679904Y-2657D01*
Y4007D01*
X682569Y-3990D02*
X685235D01*
X683902D01*
Y4007D01*
X682569Y2675D01*
X800364Y-63334D02*
X799031Y-62001D01*
X796365D01*
X795032Y-63334D01*
Y-68665D01*
X796365Y-69998D01*
X799031D01*
X800364Y-68665D01*
X803029Y-69998D02*
X805695D01*
X804362D01*
Y-62001D01*
X803029Y-63334D01*
X815026Y-69998D02*
X809694D01*
X815026Y-64666D01*
Y-63334D01*
X813693Y-62001D01*
X811027D01*
X809694Y-63334D01*
X875994Y172030D02*
Y180027D01*
X879993D01*
X881326Y178694D01*
Y176029D01*
X879993Y174696D01*
X875994D01*
X878660D02*
X881326Y172030D01*
X883991D02*
X886657D01*
X885324D01*
Y180027D01*
X883991Y178694D01*
X890656Y173363D02*
X891989Y172030D01*
X894655D01*
X895988Y173363D01*
Y178694D01*
X894655Y180027D01*
X891989D01*
X890656Y178694D01*
Y177362D01*
X891989Y176029D01*
X895988D01*
X847988Y158693D02*
X846655Y160025D01*
X843989D01*
X842656Y158693D01*
Y153361D01*
X843989Y152028D01*
X846655D01*
X847988Y153361D01*
X850653Y152028D02*
X853319D01*
X851986D01*
Y160025D01*
X850653Y158693D01*
X553645Y-55235D02*
X552312Y-53902D01*
X549646D01*
X548313Y-55235D01*
Y-60567D01*
X549646Y-61900D01*
X552312D01*
X553645Y-60567D01*
X561642Y-53902D02*
X556311D01*
Y-57901D01*
X558976Y-56568D01*
X560309D01*
X561642Y-57901D01*
Y-60567D01*
X560309Y-61900D01*
X557643D01*
X556311Y-60567D01*
X529554Y122161D02*
Y120829D01*
X532220Y118163D01*
X534886Y120829D01*
Y122161D01*
X532220Y118163D02*
Y114164D01*
X537551Y120829D02*
X538884Y122161D01*
X541550D01*
X542883Y120829D01*
Y119496D01*
X541550Y118163D01*
X540217D01*
X541550D01*
X542883Y116830D01*
Y115497D01*
X541550Y114164D01*
X538884D01*
X537551Y115497D01*
X773502Y-121977D02*
Y-123309D01*
X776168Y-125975D01*
X778834Y-123309D01*
Y-121977D01*
X776168Y-125975D02*
Y-129974D01*
X786831D02*
X781499D01*
X786831Y-124642D01*
Y-123309D01*
X785498Y-121977D01*
X782832D01*
X781499Y-123309D01*
X844496Y84017D02*
Y82684D01*
X847162Y80019D01*
X849828Y82684D01*
Y84017D01*
X847162Y80019D02*
Y76020D01*
X852493D02*
X855159D01*
X853826D01*
Y84017D01*
X852493Y82684D01*
X381456Y218891D02*
Y212227D01*
X382789Y210894D01*
X385455D01*
X386788Y212227D01*
Y218891D01*
X394785D02*
X389453D01*
Y214893D01*
X392119Y216226D01*
X393452D01*
X394785Y214893D01*
Y212227D01*
X393452Y210894D01*
X390786D01*
X389453Y212227D01*
X281380Y185109D02*
Y178445D01*
X282713Y177112D01*
X285379D01*
X286712Y178445D01*
Y185109D01*
X293376Y177112D02*
Y185109D01*
X289377Y181111D01*
X294709D01*
X255218Y-245929D02*
Y-252593D01*
X256551Y-253926D01*
X259217D01*
X260550Y-252593D01*
Y-245929D01*
X263215Y-247262D02*
X264548Y-245929D01*
X267214D01*
X268547Y-247262D01*
Y-248594D01*
X267214Y-249927D01*
X265881D01*
X267214D01*
X268547Y-251260D01*
Y-252593D01*
X267214Y-253926D01*
X264548D01*
X263215Y-252593D01*
X363168Y4007D02*
Y-2657D01*
X364501Y-3990D01*
X367167D01*
X368500Y-2657D01*
Y4007D01*
X376497Y-3990D02*
X371165D01*
X376497Y1342D01*
Y2675D01*
X375164Y4007D01*
X372498D01*
X371165Y2675D01*
X501344Y331921D02*
X506676D01*
X504010D01*
Y323924D01*
X509341D02*
Y331921D01*
X513340D01*
X514673Y330588D01*
Y327923D01*
X513340Y326590D01*
X509341D01*
X521338Y323924D02*
Y331921D01*
X517339Y327923D01*
X522671D01*
X445464Y331921D02*
X450796D01*
X448130D01*
Y323924D01*
X453461D02*
Y331921D01*
X457460D01*
X458793Y330588D01*
Y327923D01*
X457460Y326590D01*
X453461D01*
X461459Y330588D02*
X462792Y331921D01*
X465458D01*
X466791Y330588D01*
Y329256D01*
X465458Y327923D01*
X464125D01*
X465458D01*
X466791Y326590D01*
Y325257D01*
X465458Y323924D01*
X462792D01*
X461459Y325257D01*
X389330Y331921D02*
X394662D01*
X391996D01*
Y323924D01*
X397327D02*
Y331921D01*
X401326D01*
X402659Y330588D01*
Y327923D01*
X401326Y326590D01*
X397327D01*
X410657Y323924D02*
X405325D01*
X410657Y329256D01*
Y330588D01*
X409324Y331921D01*
X406658D01*
X405325Y330588D01*
X334720Y331921D02*
X340052D01*
X337386D01*
Y323924D01*
X342717D02*
Y331921D01*
X346716D01*
X348049Y330588D01*
Y327923D01*
X346716Y326590D01*
X342717D01*
X350715Y323924D02*
X353381D01*
X352048D01*
Y331921D01*
X350715Y330588D01*
X498662Y-319366D02*
X497329Y-318033D01*
X494663D01*
X493330Y-319366D01*
Y-320698D01*
X494663Y-322031D01*
X497329D01*
X498662Y-323364D01*
Y-324697D01*
X497329Y-326030D01*
X494663D01*
X493330Y-324697D01*
X501328Y-319366D02*
X502660Y-318033D01*
X505326D01*
X506659Y-319366D01*
Y-320698D01*
X505326Y-322031D01*
X503993D01*
X505326D01*
X506659Y-323364D01*
Y-324697D01*
X505326Y-326030D01*
X502660D01*
X501328Y-324697D01*
X378740Y-319366D02*
X377407Y-318033D01*
X374741D01*
X373408Y-319366D01*
Y-320698D01*
X374741Y-322031D01*
X377407D01*
X378740Y-323364D01*
Y-324697D01*
X377407Y-326030D01*
X374741D01*
X373408Y-324697D01*
X386737Y-326030D02*
X381405D01*
X386737Y-320698D01*
Y-319366D01*
X385404Y-318033D01*
X382738D01*
X381405Y-319366D01*
X871928Y242703D02*
X870595Y244035D01*
X867929D01*
X866596Y242703D01*
Y241370D01*
X867929Y240037D01*
X870595D01*
X871928Y238704D01*
Y237371D01*
X870595Y236038D01*
X867929D01*
X866596Y237371D01*
X874593Y236038D02*
X877259D01*
X875926D01*
Y244035D01*
X874593Y242703D01*
X592022Y271346D02*
X584025D01*
Y275345D01*
X585358Y276678D01*
X588023D01*
X589356Y275345D01*
Y271346D01*
Y274012D02*
X592022Y276678D01*
X584025Y279343D02*
Y284675D01*
X585358D01*
X590689Y279343D01*
X592022D01*
X585358Y287341D02*
X584025Y288674D01*
Y291339D01*
X585358Y292672D01*
X590689D01*
X592022Y291339D01*
Y288674D01*
X590689Y287341D01*
X585358D01*
X628090Y271346D02*
X620093D01*
Y275345D01*
X621426Y276678D01*
X624091D01*
X625424Y275345D01*
Y271346D01*
Y274012D02*
X628090Y276678D01*
X620093Y284675D02*
X621426Y282009D01*
X624091Y279343D01*
X626757D01*
X628090Y280676D01*
Y283342D01*
X626757Y284675D01*
X625424D01*
X624091Y283342D01*
Y279343D01*
X626757Y287341D02*
X628090Y288674D01*
Y291339D01*
X626757Y292672D01*
X621426D01*
X620093Y291339D01*
Y288674D01*
X621426Y287341D01*
X622758D01*
X624091Y288674D01*
Y292672D01*
X354024Y225372D02*
X346027D01*
Y229371D01*
X347360Y230704D01*
X350025D01*
X351358Y229371D01*
Y225372D01*
Y228038D02*
X354024Y230704D01*
X346027Y238701D02*
X347360Y236035D01*
X350025Y233369D01*
X352691D01*
X354024Y234702D01*
Y237368D01*
X352691Y238701D01*
X351358D01*
X350025Y237368D01*
Y233369D01*
X347360Y241367D02*
X346027Y242700D01*
Y245366D01*
X347360Y246698D01*
X348692D01*
X350025Y245366D01*
X351358Y246698D01*
X352691D01*
X354024Y245366D01*
Y242700D01*
X352691Y241367D01*
X351358D01*
X350025Y242700D01*
X348692Y241367D01*
X347360D01*
X350025Y242700D02*
Y245366D01*
X354024Y187272D02*
X346027D01*
Y191271D01*
X347360Y192604D01*
X350025D01*
X351358Y191271D01*
Y187272D01*
Y189938D02*
X354024Y192604D01*
X346027Y200601D02*
X347360Y197935D01*
X350025Y195269D01*
X352691D01*
X354024Y196602D01*
Y199268D01*
X352691Y200601D01*
X351358D01*
X350025Y199268D01*
Y195269D01*
X346027Y203267D02*
Y208598D01*
X347360D01*
X352691Y203267D01*
X354024D01*
X371296Y179906D02*
Y187903D01*
X375295D01*
X376628Y186570D01*
Y183905D01*
X375295Y182572D01*
X371296D01*
X373962D02*
X376628Y179906D01*
X384625Y187903D02*
X381959Y186570D01*
X379293Y183905D01*
Y181239D01*
X380626Y179906D01*
X383292D01*
X384625Y181239D01*
Y182572D01*
X383292Y183905D01*
X379293D01*
X392622Y187903D02*
X389957Y186570D01*
X387291Y183905D01*
Y181239D01*
X388624Y179906D01*
X391290D01*
X392622Y181239D01*
Y182572D01*
X391290Y183905D01*
X387291D01*
X329894Y149426D02*
X321897D01*
Y153425D01*
X323229Y154758D01*
X325895D01*
X327228Y153425D01*
Y149426D01*
Y152092D02*
X329894Y154758D01*
X321897Y162755D02*
X323229Y160089D01*
X325895Y157423D01*
X328561D01*
X329894Y158756D01*
Y161422D01*
X328561Y162755D01*
X327228D01*
X325895Y161422D01*
Y157423D01*
X321897Y170752D02*
Y165421D01*
X325895D01*
X324562Y168087D01*
Y169419D01*
X325895Y170752D01*
X328561D01*
X329894Y169419D01*
Y166754D01*
X328561Y165421D01*
X329894Y187272D02*
X321897D01*
Y191271D01*
X323229Y192604D01*
X325895D01*
X327228Y191271D01*
Y187272D01*
Y189938D02*
X329894Y192604D01*
X321897Y200601D02*
X323229Y197935D01*
X325895Y195269D01*
X328561D01*
X329894Y196602D01*
Y199268D01*
X328561Y200601D01*
X327228D01*
X325895Y199268D01*
Y195269D01*
X329894Y207265D02*
X321897D01*
X325895Y203267D01*
Y208598D01*
X283412Y208100D02*
Y216097D01*
X287411D01*
X288744Y214764D01*
Y212099D01*
X287411Y210766D01*
X283412D01*
X286078D02*
X288744Y208100D01*
X296741Y216097D02*
X294075Y214764D01*
X291409Y212099D01*
Y209433D01*
X292742Y208100D01*
X295408D01*
X296741Y209433D01*
Y210766D01*
X295408Y212099D01*
X291409D01*
X299407Y214764D02*
X300740Y216097D01*
X303406D01*
X304739Y214764D01*
Y213432D01*
X303406Y212099D01*
X302073D01*
X303406D01*
X304739Y210766D01*
Y209433D01*
X303406Y208100D01*
X300740D01*
X299407Y209433D01*
X519238Y-278024D02*
Y-270027D01*
X523237D01*
X524570Y-271360D01*
Y-274025D01*
X523237Y-275358D01*
X519238D01*
X521904D02*
X524570Y-278024D01*
X532567Y-270027D02*
X529901Y-271360D01*
X527235Y-274025D01*
Y-276691D01*
X528568Y-278024D01*
X531234D01*
X532567Y-276691D01*
Y-275358D01*
X531234Y-274025D01*
X527235D01*
X540564Y-278024D02*
X535233D01*
X540564Y-272692D01*
Y-271360D01*
X539232Y-270027D01*
X536566D01*
X535233Y-271360D01*
X400586Y-278024D02*
Y-270027D01*
X404585D01*
X405918Y-271360D01*
Y-274025D01*
X404585Y-275358D01*
X400586D01*
X403252D02*
X405918Y-278024D01*
X413915Y-270027D02*
X411249Y-271360D01*
X408583Y-274025D01*
Y-276691D01*
X409916Y-278024D01*
X412582D01*
X413915Y-276691D01*
Y-275358D01*
X412582Y-274025D01*
X408583D01*
X416581Y-278024D02*
X419247D01*
X417914D01*
Y-270027D01*
X416581Y-271360D01*
X519238Y-257958D02*
Y-249961D01*
X523237D01*
X524570Y-251294D01*
Y-253959D01*
X523237Y-255292D01*
X519238D01*
X521904D02*
X524570Y-257958D01*
X532567Y-249961D02*
X529901Y-251294D01*
X527235Y-253959D01*
Y-256625D01*
X528568Y-257958D01*
X531234D01*
X532567Y-256625D01*
Y-255292D01*
X531234Y-253959D01*
X527235D01*
X535233Y-251294D02*
X536566Y-249961D01*
X539232D01*
X540564Y-251294D01*
Y-256625D01*
X539232Y-257958D01*
X536566D01*
X535233Y-256625D01*
Y-251294D01*
X399316Y-257958D02*
Y-249961D01*
X403315D01*
X404648Y-251294D01*
Y-253959D01*
X403315Y-255292D01*
X399316D01*
X401982D02*
X404648Y-257958D01*
X412645Y-249961D02*
X407313D01*
Y-253959D01*
X409979Y-252626D01*
X411312D01*
X412645Y-253959D01*
Y-256625D01*
X411312Y-257958D01*
X408646D01*
X407313Y-256625D01*
X415311D02*
X416644Y-257958D01*
X419310D01*
X420643Y-256625D01*
Y-251294D01*
X419310Y-249961D01*
X416644D01*
X415311Y-251294D01*
Y-252626D01*
X416644Y-253959D01*
X420643D01*
X592122Y-290626D02*
X584125D01*
Y-286627D01*
X585458Y-285294D01*
X588124D01*
X589456Y-286627D01*
Y-290626D01*
Y-287960D02*
X592122Y-285294D01*
X584125Y-277297D02*
Y-282628D01*
X588124D01*
X586791Y-279962D01*
Y-278629D01*
X588124Y-277297D01*
X590789D01*
X592122Y-278629D01*
Y-281295D01*
X590789Y-282628D01*
X585458Y-274631D02*
X584125Y-273298D01*
Y-270632D01*
X585458Y-269299D01*
X586791D01*
X588124Y-270632D01*
X589456Y-269299D01*
X590789D01*
X592122Y-270632D01*
Y-273298D01*
X590789Y-274631D01*
X589456D01*
X588124Y-273298D01*
X586791Y-274631D01*
X585458D01*
X588124Y-273298D02*
Y-270632D01*
X627936Y-290626D02*
X619939D01*
Y-286627D01*
X621272Y-285294D01*
X623937D01*
X625270Y-286627D01*
Y-290626D01*
Y-287960D02*
X627936Y-285294D01*
X619939Y-277297D02*
Y-282628D01*
X623937D01*
X622605Y-279962D01*
Y-278629D01*
X623937Y-277297D01*
X626603D01*
X627936Y-278629D01*
Y-281295D01*
X626603Y-282628D01*
X619939Y-274631D02*
Y-269299D01*
X621272D01*
X626603Y-274631D01*
X627936D01*
X336090Y-192582D02*
X328093D01*
Y-188583D01*
X329426Y-187250D01*
X332091D01*
X333424Y-188583D01*
Y-192582D01*
Y-189916D02*
X336090Y-187250D01*
X328093Y-179253D02*
Y-184584D01*
X332091D01*
X330759Y-181918D01*
Y-180585D01*
X332091Y-179253D01*
X334757D01*
X336090Y-180585D01*
Y-183251D01*
X334757Y-184584D01*
X328093Y-171255D02*
X329426Y-173921D01*
X332091Y-176587D01*
X334757D01*
X336090Y-175254D01*
Y-172588D01*
X334757Y-171255D01*
X333424D01*
X332091Y-172588D01*
Y-176587D01*
X316024Y-192582D02*
X308027D01*
Y-188583D01*
X309360Y-187250D01*
X312026D01*
X313358Y-188583D01*
Y-192582D01*
Y-189916D02*
X316024Y-187250D01*
X308027Y-179253D02*
Y-184584D01*
X312026D01*
X310693Y-181918D01*
Y-180585D01*
X312026Y-179253D01*
X314691D01*
X316024Y-180585D01*
Y-183251D01*
X314691Y-184584D01*
X308027Y-171255D02*
Y-176587D01*
X312026D01*
X310693Y-173921D01*
Y-172588D01*
X312026Y-171255D01*
X314691D01*
X316024Y-172588D01*
Y-175254D01*
X314691Y-176587D01*
X199338Y-244020D02*
Y-236023D01*
X203337D01*
X204670Y-237355D01*
Y-240021D01*
X203337Y-241354D01*
X199338D01*
X202004D02*
X204670Y-244020D01*
X212667Y-236023D02*
X207335D01*
Y-240021D01*
X210001Y-238688D01*
X211334D01*
X212667Y-240021D01*
Y-242687D01*
X211334Y-244020D01*
X208668D01*
X207335Y-242687D01*
X219332Y-244020D02*
Y-236023D01*
X215333Y-240021D01*
X220665D01*
X199338Y-264086D02*
Y-256089D01*
X203337D01*
X204670Y-257421D01*
Y-260087D01*
X203337Y-261420D01*
X199338D01*
X202004D02*
X204670Y-264086D01*
X212667Y-256089D02*
X207335D01*
Y-260087D01*
X210001Y-258754D01*
X211334D01*
X212667Y-260087D01*
Y-262753D01*
X211334Y-264086D01*
X208668D01*
X207335Y-262753D01*
X215333Y-257421D02*
X216666Y-256089D01*
X219332D01*
X220665Y-257421D01*
Y-258754D01*
X219332Y-260087D01*
X217999D01*
X219332D01*
X220665Y-261420D01*
Y-262753D01*
X219332Y-264086D01*
X216666D01*
X215333Y-262753D01*
X439368Y7948D02*
Y15945D01*
X443367D01*
X444700Y14612D01*
Y11947D01*
X443367Y10614D01*
X439368D01*
X442034D02*
X444700Y7948D01*
X452697Y15945D02*
X447365D01*
Y11947D01*
X450031Y13280D01*
X451364D01*
X452697Y11947D01*
Y9281D01*
X451364Y7948D01*
X448698D01*
X447365Y9281D01*
X460695Y7948D02*
X455363D01*
X460695Y13280D01*
Y14612D01*
X459362Y15945D01*
X456696D01*
X455363Y14612D01*
X484580Y-3990D02*
Y4007D01*
X488579D01*
X489912Y2675D01*
Y9D01*
X488579Y-1324D01*
X484580D01*
X487246D02*
X489912Y-3990D01*
X497909Y4007D02*
X492577D01*
Y9D01*
X495243Y1342D01*
X496576D01*
X497909Y9D01*
Y-2657D01*
X496576Y-3990D01*
X493910D01*
X492577Y-2657D01*
X500575Y-3990D02*
X503241D01*
X501908D01*
Y4007D01*
X500575Y2675D01*
X423366Y-56060D02*
Y-48063D01*
X427365D01*
X428698Y-49395D01*
Y-52061D01*
X427365Y-53394D01*
X423366D01*
X426032D02*
X428698Y-56060D01*
X436695Y-48063D02*
X431363D01*
Y-52061D01*
X434029Y-50728D01*
X435362D01*
X436695Y-52061D01*
Y-54727D01*
X435362Y-56060D01*
X432696D01*
X431363Y-54727D01*
X439361Y-49395D02*
X440694Y-48063D01*
X443360D01*
X444692Y-49395D01*
Y-54727D01*
X443360Y-56060D01*
X440694D01*
X439361Y-54727D01*
Y-49395D01*
X319226Y-79936D02*
Y-71939D01*
X323225D01*
X324558Y-73271D01*
Y-75937D01*
X323225Y-77270D01*
X319226D01*
X321892D02*
X324558Y-79936D01*
X331222D02*
Y-71939D01*
X327223Y-75937D01*
X332555D01*
X335221Y-78603D02*
X336554Y-79936D01*
X339220D01*
X340552Y-78603D01*
Y-73271D01*
X339220Y-71939D01*
X336554D01*
X335221Y-73271D01*
Y-74604D01*
X336554Y-75937D01*
X340552D01*
X439976Y-192582D02*
X431979D01*
Y-188583D01*
X433312Y-187250D01*
X435978D01*
X437310Y-188583D01*
Y-192582D01*
Y-189916D02*
X439976Y-187250D01*
Y-180585D02*
X431979D01*
X435978Y-184584D01*
Y-179253D01*
X433312Y-176587D02*
X431979Y-175254D01*
Y-172588D01*
X433312Y-171255D01*
X434645D01*
X435978Y-172588D01*
X437310Y-171255D01*
X438643D01*
X439976Y-172588D01*
Y-175254D01*
X438643Y-176587D01*
X437310D01*
X435978Y-175254D01*
X434645Y-176587D01*
X433312D01*
X435978Y-175254D02*
Y-172588D01*
X464106Y-192582D02*
X456109D01*
Y-188583D01*
X457442Y-187250D01*
X460107D01*
X461440Y-188583D01*
Y-192582D01*
Y-189916D02*
X464106Y-187250D01*
Y-180585D02*
X456109D01*
X460107Y-184584D01*
Y-179253D01*
X456109Y-176587D02*
Y-171255D01*
X457442D01*
X462773Y-176587D01*
X464106D01*
X416100Y-192582D02*
X408103D01*
Y-188583D01*
X409436Y-187250D01*
X412102D01*
X413434Y-188583D01*
Y-192582D01*
Y-189916D02*
X416100Y-187250D01*
Y-180585D02*
X408103D01*
X412102Y-184584D01*
Y-179253D01*
X408103Y-171255D02*
X409436Y-173921D01*
X412102Y-176587D01*
X414767D01*
X416100Y-175254D01*
Y-172588D01*
X414767Y-171255D01*
X413434D01*
X412102Y-172588D01*
Y-176587D01*
X423366Y-35994D02*
Y-27997D01*
X427365D01*
X428698Y-29330D01*
Y-31995D01*
X427365Y-33328D01*
X423366D01*
X426032D02*
X428698Y-35994D01*
X435362D02*
Y-27997D01*
X431363Y-31995D01*
X436695D01*
X444692Y-27997D02*
X439361D01*
Y-31995D01*
X442027Y-30662D01*
X443360D01*
X444692Y-31995D01*
Y-34661D01*
X443360Y-35994D01*
X440694D01*
X439361Y-34661D01*
X483310Y-24056D02*
Y-16059D01*
X487309D01*
X488642Y-17392D01*
Y-20057D01*
X487309Y-21390D01*
X483310D01*
X485976D02*
X488642Y-24056D01*
X495306D02*
Y-16059D01*
X491307Y-20057D01*
X496639D01*
X503304Y-24056D02*
Y-16059D01*
X499305Y-20057D01*
X504636D01*
X319226Y-100002D02*
Y-92005D01*
X323225D01*
X324558Y-93337D01*
Y-96003D01*
X323225Y-97336D01*
X319226D01*
X321892D02*
X324558Y-100002D01*
X331222D02*
Y-92005D01*
X327223Y-96003D01*
X332555D01*
X335221Y-93337D02*
X336554Y-92005D01*
X339220D01*
X340552Y-93337D01*
Y-94670D01*
X339220Y-96003D01*
X337887D01*
X339220D01*
X340552Y-97336D01*
Y-98669D01*
X339220Y-100002D01*
X336554D01*
X335221Y-98669D01*
X723912Y115326D02*
X715915D01*
Y119325D01*
X717247Y120658D01*
X719913D01*
X721246Y119325D01*
Y115326D01*
Y117992D02*
X723912Y120658D01*
Y127322D02*
X715915D01*
X719913Y123323D01*
Y128655D01*
X723912Y136652D02*
Y131321D01*
X718580Y136652D01*
X717247D01*
X715915Y135320D01*
Y132654D01*
X717247Y131321D01*
X510742Y62050D02*
Y70047D01*
X514741D01*
X516074Y68714D01*
Y66049D01*
X514741Y64716D01*
X510742D01*
X513408D02*
X516074Y62050D01*
X522738D02*
Y70047D01*
X518739Y66049D01*
X524071D01*
X526737Y62050D02*
X529403D01*
X528070D01*
Y70047D01*
X526737Y68714D01*
X519378Y41984D02*
Y49981D01*
X523377D01*
X524710Y48649D01*
Y45983D01*
X523377Y44650D01*
X519378D01*
X522044D02*
X524710Y41984D01*
X531374D02*
Y49981D01*
X527375Y45983D01*
X532707D01*
X535373Y48649D02*
X536706Y49981D01*
X539372D01*
X540704Y48649D01*
Y43317D01*
X539372Y41984D01*
X536706D01*
X535373Y43317D01*
Y48649D01*
X267410Y-120068D02*
Y-112071D01*
X271409D01*
X272742Y-113404D01*
Y-116069D01*
X271409Y-117402D01*
X267410D01*
X270076D02*
X272742Y-120068D01*
X275407Y-113404D02*
X276740Y-112071D01*
X279406D01*
X280739Y-113404D01*
Y-114736D01*
X279406Y-116069D01*
X278073D01*
X279406D01*
X280739Y-117402D01*
Y-118735D01*
X279406Y-120068D01*
X276740D01*
X275407Y-118735D01*
X283405D02*
X284738Y-120068D01*
X287404D01*
X288736Y-118735D01*
Y-113404D01*
X287404Y-112071D01*
X284738D01*
X283405Y-113404D01*
Y-114736D01*
X284738Y-116069D01*
X288736D01*
X292048Y31316D02*
X284051D01*
Y35315D01*
X285383Y36648D01*
X288049D01*
X289382Y35315D01*
Y31316D01*
Y33982D02*
X292048Y36648D01*
X285383Y39313D02*
X284051Y40646D01*
Y43312D01*
X285383Y44645D01*
X286716D01*
X288049Y43312D01*
Y41979D01*
Y43312D01*
X289382Y44645D01*
X290715D01*
X292048Y43312D01*
Y40646D01*
X290715Y39313D01*
X285383Y47311D02*
X284051Y48644D01*
Y51309D01*
X285383Y52642D01*
X286716D01*
X288049Y51309D01*
X289382Y52642D01*
X290715D01*
X292048Y51309D01*
Y48644D01*
X290715Y47311D01*
X289382D01*
X288049Y48644D01*
X286716Y47311D01*
X285383D01*
X288049Y48644D02*
Y51309D01*
X312114Y31316D02*
X304117D01*
Y35315D01*
X305450Y36648D01*
X308115D01*
X309448Y35315D01*
Y31316D01*
Y33982D02*
X312114Y36648D01*
X305450Y39313D02*
X304117Y40646D01*
Y43312D01*
X305450Y44645D01*
X306782D01*
X308115Y43312D01*
Y41979D01*
Y43312D01*
X309448Y44645D01*
X310781D01*
X312114Y43312D01*
Y40646D01*
X310781Y39313D01*
X304117Y47311D02*
Y52642D01*
X305450D01*
X310781Y47311D01*
X312114D01*
X292048Y-40566D02*
X284051D01*
Y-36567D01*
X285383Y-35234D01*
X288049D01*
X289382Y-36567D01*
Y-40566D01*
Y-37900D02*
X292048Y-35234D01*
X285383Y-32569D02*
X284051Y-31236D01*
Y-28570D01*
X285383Y-27237D01*
X286716D01*
X288049Y-28570D01*
Y-29903D01*
Y-28570D01*
X289382Y-27237D01*
X290715D01*
X292048Y-28570D01*
Y-31236D01*
X290715Y-32569D01*
X284051Y-19240D02*
X285383Y-21905D01*
X288049Y-24571D01*
X290715D01*
X292048Y-23238D01*
Y-20573D01*
X290715Y-19240D01*
X289382D01*
X288049Y-20573D01*
Y-24571D01*
X312114Y-40566D02*
X304117D01*
Y-36567D01*
X305450Y-35234D01*
X308115D01*
X309448Y-36567D01*
Y-40566D01*
Y-37900D02*
X312114Y-35234D01*
X305450Y-32569D02*
X304117Y-31236D01*
Y-28570D01*
X305450Y-27237D01*
X306782D01*
X308115Y-28570D01*
Y-29903D01*
Y-28570D01*
X309448Y-27237D01*
X310781D01*
X312114Y-28570D01*
Y-31236D01*
X310781Y-32569D01*
X304117Y-19240D02*
Y-24571D01*
X308115D01*
X306782Y-21905D01*
Y-20573D01*
X308115Y-19240D01*
X310781D01*
X312114Y-20573D01*
Y-23238D01*
X310781Y-24571D01*
X267410Y-100002D02*
Y-92005D01*
X271409D01*
X272742Y-93337D01*
Y-96003D01*
X271409Y-97336D01*
X267410D01*
X270076D02*
X272742Y-100002D01*
X275407Y-93337D02*
X276740Y-92005D01*
X279406D01*
X280739Y-93337D01*
Y-94670D01*
X279406Y-96003D01*
X278073D01*
X279406D01*
X280739Y-97336D01*
Y-98669D01*
X279406Y-100002D01*
X276740D01*
X275407Y-98669D01*
X287404Y-100002D02*
Y-92005D01*
X283405Y-96003D01*
X288736D01*
X319226Y71956D02*
Y79953D01*
X323225D01*
X324558Y78621D01*
Y75955D01*
X323225Y74622D01*
X319226D01*
X321892D02*
X324558Y71956D01*
X327223Y78621D02*
X328556Y79953D01*
X331222D01*
X332555Y78621D01*
Y77288D01*
X331222Y75955D01*
X329889D01*
X331222D01*
X332555Y74622D01*
Y73289D01*
X331222Y71956D01*
X328556D01*
X327223Y73289D01*
X335221Y78621D02*
X336554Y79953D01*
X339220D01*
X340552Y78621D01*
Y77288D01*
X339220Y75955D01*
X337887D01*
X339220D01*
X340552Y74622D01*
Y73289D01*
X339220Y71956D01*
X336554D01*
X335221Y73289D01*
X359358Y-120068D02*
Y-112071D01*
X363357D01*
X364690Y-113404D01*
Y-116069D01*
X363357Y-117402D01*
X359358D01*
X362024D02*
X364690Y-120068D01*
X367355Y-113404D02*
X368688Y-112071D01*
X371354D01*
X372687Y-113404D01*
Y-114736D01*
X371354Y-116069D01*
X370021D01*
X371354D01*
X372687Y-117402D01*
Y-118735D01*
X371354Y-120068D01*
X368688D01*
X367355Y-118735D01*
X380685Y-120068D02*
X375353D01*
X380685Y-114736D01*
Y-113404D01*
X379352Y-112071D01*
X376686D01*
X375353Y-113404D01*
X427938Y-95430D02*
X419941D01*
Y-91431D01*
X421273Y-90098D01*
X423939D01*
X425272Y-91431D01*
Y-95430D01*
Y-92764D02*
X427938Y-90098D01*
X421273Y-87433D02*
X419941Y-86100D01*
Y-83434D01*
X421273Y-82101D01*
X422606D01*
X423939Y-83434D01*
Y-84767D01*
Y-83434D01*
X425272Y-82101D01*
X426605D01*
X427938Y-83434D01*
Y-86100D01*
X426605Y-87433D01*
X427938Y-79435D02*
Y-76769D01*
Y-78102D01*
X419941D01*
X421273Y-79435D01*
X359358Y-100002D02*
Y-92005D01*
X363357D01*
X364690Y-93337D01*
Y-96003D01*
X363357Y-97336D01*
X359358D01*
X362024D02*
X364690Y-100002D01*
X367355Y-93337D02*
X368688Y-92005D01*
X371354D01*
X372687Y-93337D01*
Y-94670D01*
X371354Y-96003D01*
X370021D01*
X371354D01*
X372687Y-97336D01*
Y-98669D01*
X371354Y-100002D01*
X368688D01*
X367355Y-98669D01*
X375353Y-93337D02*
X376686Y-92005D01*
X379352D01*
X380685Y-93337D01*
Y-98669D01*
X379352Y-100002D01*
X376686D01*
X375353Y-98669D01*
Y-93337D01*
X319226Y92022D02*
Y100019D01*
X323225D01*
X324558Y98687D01*
Y96021D01*
X323225Y94688D01*
X319226D01*
X321892D02*
X324558Y92022D01*
X332555D02*
X327223D01*
X332555Y97354D01*
Y98687D01*
X331222Y100019D01*
X328556D01*
X327223Y98687D01*
X335221Y93355D02*
X336554Y92022D01*
X339220D01*
X340552Y93355D01*
Y98687D01*
X339220Y100019D01*
X336554D01*
X335221Y98687D01*
Y97354D01*
X336554Y96021D01*
X340552D01*
X431240Y131900D02*
Y139897D01*
X435239D01*
X436572Y138565D01*
Y135899D01*
X435239Y134566D01*
X431240D01*
X433906D02*
X436572Y131900D01*
X444569D02*
X439237D01*
X444569Y137232D01*
Y138565D01*
X443236Y139897D01*
X440570D01*
X439237Y138565D01*
X447235D02*
X448568Y139897D01*
X451234D01*
X452566Y138565D01*
Y137232D01*
X451234Y135899D01*
X452566Y134566D01*
Y133233D01*
X451234Y131900D01*
X448568D01*
X447235Y133233D01*
Y134566D01*
X448568Y135899D01*
X447235Y137232D01*
Y138565D01*
X448568Y135899D02*
X451234D01*
X431240Y112088D02*
Y120085D01*
X435239D01*
X436572Y118752D01*
Y116087D01*
X435239Y114754D01*
X431240D01*
X433906D02*
X436572Y112088D01*
X444569D02*
X439237D01*
X444569Y117420D01*
Y118752D01*
X443236Y120085D01*
X440570D01*
X439237Y118752D01*
X447235Y120085D02*
X452566D01*
Y118752D01*
X447235Y113421D01*
Y112088D01*
X491454Y83906D02*
Y91903D01*
X495453D01*
X496786Y90570D01*
Y87905D01*
X495453Y86572D01*
X491454D01*
X494120D02*
X496786Y83906D01*
X504783D02*
X499451D01*
X504783Y89238D01*
Y90570D01*
X503450Y91903D01*
X500784D01*
X499451Y90570D01*
X512780Y91903D02*
X510115Y90570D01*
X507449Y87905D01*
Y85239D01*
X508782Y83906D01*
X511447D01*
X512780Y85239D01*
Y86572D01*
X511447Y87905D01*
X507449D01*
X535396Y83906D02*
Y91903D01*
X539395D01*
X540728Y90570D01*
Y87905D01*
X539395Y86572D01*
X535396D01*
X538062D02*
X540728Y83906D01*
X548725D02*
X543393D01*
X548725Y89238D01*
Y90570D01*
X547392Y91903D01*
X544726D01*
X543393Y90570D01*
X556722Y91903D02*
X551391D01*
Y87905D01*
X554057Y89238D01*
X555390D01*
X556722Y87905D01*
Y85239D01*
X555390Y83906D01*
X552724D01*
X551391Y85239D01*
X752012Y-136702D02*
X744015D01*
Y-132703D01*
X745348Y-131370D01*
X748014D01*
X749346Y-132703D01*
Y-136702D01*
Y-134036D02*
X752012Y-131370D01*
Y-123373D02*
Y-128704D01*
X746681Y-123373D01*
X745348D01*
X744015Y-124705D01*
Y-127371D01*
X745348Y-128704D01*
X752012Y-116708D02*
X744015D01*
X748014Y-120707D01*
Y-115375D01*
X875994Y151964D02*
Y159961D01*
X879993D01*
X881326Y158629D01*
Y155963D01*
X879993Y154630D01*
X875994D01*
X878660D02*
X881326Y151964D01*
X883991D02*
X886657D01*
X885324D01*
Y159961D01*
X883991Y158629D01*
X890656D02*
X891989Y159961D01*
X894655D01*
X895988Y158629D01*
Y157296D01*
X894655Y155963D01*
X895988Y154630D01*
Y153297D01*
X894655Y151964D01*
X891989D01*
X890656Y153297D01*
Y154630D01*
X891989Y155963D01*
X890656Y157296D01*
Y158629D01*
X891989Y155963D02*
X894655D01*
X839416Y44016D02*
Y52013D01*
X843415D01*
X844748Y50680D01*
Y48015D01*
X843415Y46682D01*
X839416D01*
X842082D02*
X844748Y44016D01*
X852745D02*
X847413D01*
X852745Y49348D01*
Y50680D01*
X851412Y52013D01*
X848746D01*
X847413Y50680D01*
X855411D02*
X856744Y52013D01*
X859410D01*
X860742Y50680D01*
Y49348D01*
X859410Y48015D01*
X858077D01*
X859410D01*
X860742Y46682D01*
Y45349D01*
X859410Y44016D01*
X856744D01*
X855411Y45349D01*
X608024Y-216588D02*
X600027D01*
Y-212589D01*
X601359Y-211256D01*
X604025D01*
X605358Y-212589D01*
Y-216588D01*
Y-213922D02*
X608024Y-211256D01*
Y-203259D02*
Y-208591D01*
X602692Y-203259D01*
X601359D01*
X600027Y-204592D01*
Y-207258D01*
X601359Y-208591D01*
X608024Y-195262D02*
Y-200593D01*
X602692Y-195262D01*
X601359D01*
X600027Y-196595D01*
Y-199260D01*
X601359Y-200593D01*
X647902Y-215318D02*
X639905D01*
Y-211319D01*
X641237Y-209986D01*
X643903D01*
X645236Y-211319D01*
Y-215318D01*
Y-212652D02*
X647902Y-209986D01*
Y-201989D02*
Y-207321D01*
X642570Y-201989D01*
X641237D01*
X639905Y-203322D01*
Y-205988D01*
X641237Y-207321D01*
X647902Y-199323D02*
Y-196657D01*
Y-197990D01*
X639905D01*
X641237Y-199323D01*
X628090Y-216588D02*
X620093D01*
Y-212589D01*
X621426Y-211256D01*
X624091D01*
X625424Y-212589D01*
Y-216588D01*
Y-213922D02*
X628090Y-211256D01*
Y-203259D02*
Y-208591D01*
X622758Y-203259D01*
X621426D01*
X620093Y-204592D01*
Y-207258D01*
X621426Y-208591D01*
Y-200593D02*
X620093Y-199260D01*
Y-196595D01*
X621426Y-195262D01*
X626757D01*
X628090Y-196595D01*
Y-199260D01*
X626757Y-200593D01*
X621426D01*
X716096Y-259987D02*
X708098D01*
Y-255989D01*
X709431Y-254656D01*
X712097D01*
X713430Y-255989D01*
Y-259987D01*
Y-257321D02*
X716096Y-254656D01*
Y-251990D02*
Y-249324D01*
Y-250657D01*
X708098D01*
X709431Y-251990D01*
X708098Y-245325D02*
Y-239994D01*
X709431D01*
X714763Y-245325D01*
X716096D01*
X776040Y-259987D02*
X768042D01*
Y-255989D01*
X769375Y-254656D01*
X772041D01*
X773374Y-255989D01*
Y-259987D01*
Y-257321D02*
X776040Y-254656D01*
Y-251990D02*
Y-249324D01*
Y-250657D01*
X768042D01*
X769375Y-251990D01*
X768042Y-239994D02*
X769375Y-242659D01*
X772041Y-245325D01*
X774707D01*
X776040Y-243992D01*
Y-241327D01*
X774707Y-239994D01*
X773374D01*
X772041Y-241327D01*
Y-245325D01*
X695908Y279982D02*
X687911D01*
Y283981D01*
X689243Y285314D01*
X691909D01*
X693242Y283981D01*
Y279982D01*
Y282648D02*
X695908Y285314D01*
Y287979D02*
Y290645D01*
Y289312D01*
X687911D01*
X689243Y287979D01*
X687911Y299975D02*
Y294644D01*
X691909D01*
X690576Y297310D01*
Y298643D01*
X691909Y299975D01*
X694575D01*
X695908Y298643D01*
Y295977D01*
X694575Y294644D01*
X715974Y279982D02*
X707977D01*
Y283981D01*
X709309Y285314D01*
X711975D01*
X713308Y283981D01*
Y279982D01*
Y282648D02*
X715974Y285314D01*
Y287979D02*
Y290645D01*
Y289312D01*
X707977D01*
X709309Y287979D01*
X715974Y298643D02*
X707977D01*
X711975Y294644D01*
Y299975D01*
X676096Y279982D02*
X668099D01*
Y283981D01*
X669432Y285314D01*
X672097D01*
X673430Y283981D01*
Y279982D01*
Y282648D02*
X676096Y285314D01*
Y287979D02*
Y290645D01*
Y289312D01*
X668099D01*
X669432Y287979D01*
Y294644D02*
X668099Y295977D01*
Y298643D01*
X669432Y299975D01*
X670764D01*
X672097Y298643D01*
Y297310D01*
Y298643D01*
X673430Y299975D01*
X674763D01*
X676096Y298643D01*
Y295977D01*
X674763Y294644D01*
X736040Y279982D02*
X728043D01*
Y283981D01*
X729376Y285314D01*
X732041D01*
X733374Y283981D01*
Y279982D01*
Y282648D02*
X736040Y285314D01*
Y287979D02*
Y290645D01*
Y289312D01*
X728043D01*
X729376Y287979D01*
X736040Y299975D02*
Y294644D01*
X730708Y299975D01*
X729376D01*
X728043Y298643D01*
Y295977D01*
X729376Y294644D01*
X816050Y281252D02*
X808053D01*
Y285251D01*
X809386Y286584D01*
X812051D01*
X813384Y285251D01*
Y281252D01*
Y283918D02*
X816050Y286584D01*
Y289249D02*
Y291915D01*
Y290582D01*
X808053D01*
X809386Y289249D01*
X816050Y295914D02*
Y298580D01*
Y297247D01*
X808053D01*
X809386Y295914D01*
X756106Y279982D02*
X748109D01*
Y283981D01*
X749442Y285314D01*
X752107D01*
X753440Y283981D01*
Y279982D01*
Y282648D02*
X756106Y285314D01*
Y287979D02*
Y290645D01*
Y289312D01*
X748109D01*
X749442Y287979D01*
Y294644D02*
X748109Y295977D01*
Y298643D01*
X749442Y299975D01*
X754773D01*
X756106Y298643D01*
Y295977D01*
X754773Y294644D01*
X749442D01*
X795984Y283284D02*
X787987D01*
Y287283D01*
X789320Y288616D01*
X791985D01*
X793318Y287283D01*
Y283284D01*
Y285950D02*
X795984Y288616D01*
X794651Y291281D02*
X795984Y292614D01*
Y295280D01*
X794651Y296613D01*
X789320D01*
X787987Y295280D01*
Y292614D01*
X789320Y291281D01*
X790652D01*
X791985Y292614D01*
Y296613D01*
X775918Y283284D02*
X767921D01*
Y287283D01*
X769253Y288616D01*
X771919D01*
X773252Y287283D01*
Y283284D01*
Y285950D02*
X775918Y288616D01*
X769253Y291281D02*
X767921Y292614D01*
Y295280D01*
X769253Y296613D01*
X770586D01*
X771919Y295280D01*
X773252Y296613D01*
X774585D01*
X775918Y295280D01*
Y292614D01*
X774585Y291281D01*
X773252D01*
X771919Y292614D01*
X770586Y291281D01*
X769253D01*
X771919Y292614D02*
Y295280D01*
X736015Y-296787D02*
X728017D01*
Y-292788D01*
X729350Y-291455D01*
X732016D01*
X733349Y-292788D01*
Y-296787D01*
Y-294121D02*
X736015Y-291455D01*
X728017Y-288790D02*
Y-283458D01*
X729350D01*
X734682Y-288790D01*
X736015D01*
X756081Y-296787D02*
X748083D01*
Y-292788D01*
X749416Y-291455D01*
X752082D01*
X753415Y-292788D01*
Y-296787D01*
Y-294121D02*
X756081Y-291455D01*
X748083Y-283458D02*
X749416Y-286124D01*
X752082Y-288790D01*
X754748D01*
X756081Y-287457D01*
Y-284791D01*
X754748Y-283458D01*
X753415D01*
X752082Y-284791D01*
Y-288790D01*
X715949Y-296787D02*
X707951D01*
Y-292788D01*
X709284Y-291455D01*
X711950D01*
X713283Y-292788D01*
Y-296787D01*
Y-294121D02*
X715949Y-291455D01*
X707951Y-283458D02*
Y-288790D01*
X711950D01*
X710617Y-286124D01*
Y-284791D01*
X711950Y-283458D01*
X714616D01*
X715949Y-284791D01*
Y-287457D01*
X714616Y-288790D01*
X775893Y-296787D02*
X767895D01*
Y-292788D01*
X769228Y-291455D01*
X771894D01*
X773227Y-292788D01*
Y-296787D01*
Y-294121D02*
X775893Y-291455D01*
Y-284791D02*
X767895D01*
X771894Y-288790D01*
Y-283458D01*
X816025Y-296787D02*
X808027D01*
Y-292788D01*
X809360Y-291455D01*
X812026D01*
X813359Y-292788D01*
Y-296787D01*
Y-294121D02*
X816025Y-291455D01*
X809360Y-288790D02*
X808027Y-287457D01*
Y-284791D01*
X809360Y-283458D01*
X810693D01*
X812026Y-284791D01*
Y-286124D01*
Y-284791D01*
X813359Y-283458D01*
X814692D01*
X816025Y-284791D01*
Y-287457D01*
X814692Y-288790D01*
X836091Y-296787D02*
X828093D01*
Y-292788D01*
X829426Y-291455D01*
X832092D01*
X833425Y-292788D01*
Y-296787D01*
Y-294121D02*
X836091Y-291455D01*
Y-283458D02*
Y-288790D01*
X830759Y-283458D01*
X829426D01*
X828093Y-284791D01*
Y-287457D01*
X829426Y-288790D01*
X796001Y-295454D02*
X788004D01*
Y-291455D01*
X789337Y-290122D01*
X792003D01*
X793336Y-291455D01*
Y-295454D01*
Y-292788D02*
X796001Y-290122D01*
Y-287457D02*
Y-284791D01*
Y-286124D01*
X788004D01*
X789337Y-287457D01*
X357578Y-185537D02*
Y-180205D01*
X356245Y-178873D01*
X353579D01*
X352246Y-180205D01*
Y-185537D01*
X353579Y-186870D01*
X356245D01*
X354912Y-184204D02*
X357578Y-186870D01*
X356245D02*
X357578Y-185537D01*
X360243Y-180205D02*
X361576Y-178873D01*
X364242D01*
X365575Y-180205D01*
Y-181538D01*
X364242Y-182871D01*
X362909D01*
X364242D01*
X365575Y-184204D01*
Y-185537D01*
X364242Y-186870D01*
X361576D01*
X360243Y-185537D01*
X367992Y-145659D02*
Y-140328D01*
X366659Y-138995D01*
X363993D01*
X362660Y-140328D01*
Y-145659D01*
X363993Y-146992D01*
X366659D01*
X365326Y-144326D02*
X367992Y-146992D01*
X366659D02*
X367992Y-145659D01*
X375989Y-146992D02*
X370657D01*
X375989Y-141660D01*
Y-140328D01*
X374656Y-138995D01*
X371990D01*
X370657Y-140328D01*
X575002Y-209349D02*
Y-204018D01*
X573669Y-202685D01*
X571003D01*
X569670Y-204018D01*
Y-209349D01*
X571003Y-210682D01*
X573669D01*
X572336Y-208016D02*
X575002Y-210682D01*
X573669D02*
X575002Y-209349D01*
X577667Y-210682D02*
X580333D01*
X579000D01*
Y-202685D01*
X577667Y-204018D01*
X432256Y219907D02*
Y211910D01*
X437588D01*
X445585D02*
X440253D01*
X445585Y217242D01*
Y218575D01*
X444252Y219907D01*
X441586D01*
X440253Y218575D01*
X231596Y184093D02*
Y176096D01*
X236928D01*
X239593D02*
X242259D01*
X240926D01*
Y184093D01*
X239593Y182761D01*
X431879Y-153344D02*
Y-156010D01*
Y-154677D01*
X438543D01*
X439876Y-156010D01*
Y-157343D01*
X438543Y-158676D01*
X439876Y-150679D02*
X431879D01*
Y-146680D01*
X433212Y-145347D01*
X435877D01*
X437210Y-146680D01*
Y-150679D01*
X433212Y-142681D02*
X431879Y-141348D01*
Y-138682D01*
X433212Y-137350D01*
X434544D01*
X435877Y-138682D01*
Y-140015D01*
Y-138682D01*
X437210Y-137350D01*
X438543D01*
X439876Y-138682D01*
Y-141348D01*
X438543Y-142681D01*
X456009Y-153344D02*
Y-156010D01*
Y-154677D01*
X462673D01*
X464006Y-156010D01*
Y-157343D01*
X462673Y-158676D01*
X464006Y-150679D02*
X456009D01*
Y-146680D01*
X457341Y-145347D01*
X460007D01*
X461340Y-146680D01*
Y-150679D01*
X464006Y-137350D02*
Y-142681D01*
X458674Y-137350D01*
X457341D01*
X456009Y-138682D01*
Y-141348D01*
X457341Y-142681D01*
X408003Y-152074D02*
Y-154740D01*
Y-153407D01*
X414667D01*
X416000Y-154740D01*
Y-156073D01*
X414667Y-157406D01*
X416000Y-149409D02*
X408003D01*
Y-145410D01*
X409336Y-144077D01*
X412001D01*
X413334Y-145410D01*
Y-149409D01*
X416000Y-141411D02*
Y-138745D01*
Y-140078D01*
X408003D01*
X409336Y-141411D01*
X61416Y264103D02*
Y256106D01*
Y260105D01*
X66748D01*
Y264103D01*
Y256106D01*
X69413Y264103D02*
X74745D01*
Y262771D01*
X69413Y257439D01*
Y256106D01*
X755344Y346907D02*
Y338910D01*
Y342909D01*
X760676D01*
Y346907D01*
Y338910D01*
X768673Y346907D02*
X766007Y345574D01*
X763341Y342909D01*
Y340243D01*
X764674Y338910D01*
X767340D01*
X768673Y340243D01*
Y341576D01*
X767340Y342909D01*
X763341D01*
X755344Y-338893D02*
Y-346890D01*
Y-342891D01*
X760676D01*
Y-338893D01*
Y-346890D01*
X768673Y-338893D02*
X763341D01*
Y-342891D01*
X766007Y-341558D01*
X767340D01*
X768673Y-342891D01*
Y-345557D01*
X767340Y-346890D01*
X764674D01*
X763341Y-345557D01*
X65734Y164027D02*
Y156030D01*
Y160029D01*
X71066D01*
Y164027D01*
Y156030D01*
X77730D02*
Y164027D01*
X73731Y160029D01*
X79063D01*
X36778Y-245929D02*
Y-253926D01*
Y-249927D01*
X42110D01*
Y-245929D01*
Y-253926D01*
X44775Y-247262D02*
X46108Y-245929D01*
X48774D01*
X50107Y-247262D01*
Y-248594D01*
X48774Y-249927D01*
X47441D01*
X48774D01*
X50107Y-251260D01*
Y-252593D01*
X48774Y-253926D01*
X46108D01*
X44775Y-252593D01*
X107390Y4007D02*
Y-3990D01*
Y9D01*
X112722D01*
Y4007D01*
Y-3990D01*
X120719D02*
X115387D01*
X120719Y1342D01*
Y2675D01*
X119386Y4007D01*
X116720D01*
X115387Y2675D01*
X918412Y-135947D02*
Y-143944D01*
Y-139945D01*
X923744D01*
Y-135947D01*
Y-143944D01*
X926409D02*
X929075D01*
X927742D01*
Y-135947D01*
X926409Y-137280D01*
X128724Y-195891D02*
X123392D01*
Y-199889D01*
X126058D01*
X123392D01*
Y-203888D01*
X131389Y-195891D02*
Y-203888D01*
X135388D01*
X136721Y-202555D01*
Y-201222D01*
X135388Y-199889D01*
X131389D01*
X135388D01*
X136721Y-198556D01*
Y-197223D01*
X135388Y-195891D01*
X131389D01*
X143386Y-203888D02*
Y-195891D01*
X139387Y-199889D01*
X144719D01*
X160728Y152089D02*
X155396D01*
Y148091D01*
X158062D01*
X155396D01*
Y144092D01*
X163393Y152089D02*
Y144092D01*
X167392D01*
X168725Y145425D01*
Y146758D01*
X167392Y148091D01*
X163393D01*
X167392D01*
X168725Y149424D01*
Y150757D01*
X167392Y152089D01*
X163393D01*
X171391Y150757D02*
X172724Y152089D01*
X175390D01*
X176723Y150757D01*
Y149424D01*
X175390Y148091D01*
X174057D01*
X175390D01*
X176723Y146758D01*
Y145425D01*
X175390Y144092D01*
X172724D01*
X171391Y145425D01*
X497919Y168728D02*
Y163396D01*
X501917D01*
Y166062D01*
Y163396D01*
X505916D01*
X497919Y171393D02*
X505916D01*
Y175392D01*
X504583Y176725D01*
X503250D01*
X501917Y175392D01*
Y171393D01*
Y175392D01*
X500584Y176725D01*
X499252D01*
X497919Y175392D01*
Y171393D01*
X505916Y184722D02*
Y179391D01*
X500584Y184722D01*
X499252D01*
X497919Y183389D01*
Y180724D01*
X499252Y179391D01*
X587986Y-112069D02*
X582654D01*
Y-116067D01*
X585320D01*
X582654D01*
Y-120066D01*
X590651Y-112069D02*
Y-120066D01*
X594650D01*
X595983Y-118733D01*
Y-117400D01*
X594650Y-116067D01*
X590651D01*
X594650D01*
X595983Y-114734D01*
Y-113401D01*
X594650Y-112069D01*
X590651D01*
X598649Y-120066D02*
X601315D01*
X599982D01*
Y-112069D01*
X598649Y-113401D01*
X105997Y-315396D02*
Y-320728D01*
X109995D01*
Y-318062D01*
Y-320728D01*
X113994D01*
X105997Y-312731D02*
X113994D01*
Y-308732D01*
X112661Y-307399D01*
X111328D01*
X109995Y-308732D01*
Y-312731D01*
Y-308732D01*
X108662Y-307399D01*
X107330D01*
X105997Y-308732D01*
Y-312731D01*
Y-299402D02*
Y-304733D01*
X109995D01*
X108662Y-302067D01*
Y-300735D01*
X109995Y-299402D01*
X112661D01*
X113994Y-300735D01*
Y-303400D01*
X112661Y-304733D01*
X584279Y315796D02*
X592276D01*
Y319795D01*
X590943Y321128D01*
X585611D01*
X584279Y319795D01*
Y315796D01*
Y329125D02*
Y323793D01*
X588277D01*
X586944Y326459D01*
Y327792D01*
X588277Y329125D01*
X590943D01*
X592276Y327792D01*
Y325126D01*
X590943Y323793D01*
X620347Y315796D02*
X628344D01*
Y319795D01*
X627011Y321128D01*
X621679D01*
X620347Y319795D01*
Y315796D01*
X628344Y327792D02*
X620347D01*
X624345Y323793D01*
Y329125D01*
X583745Y-327013D02*
X591743D01*
Y-323014D01*
X590410Y-321681D01*
X585078D01*
X583745Y-323014D01*
Y-327013D01*
X585078Y-319016D02*
X583745Y-317683D01*
Y-315017D01*
X585078Y-313684D01*
X586411D01*
X587744Y-315017D01*
Y-316350D01*
Y-315017D01*
X589077Y-313684D01*
X590410D01*
X591743Y-315017D01*
Y-317683D01*
X590410Y-319016D01*
X619559Y-327013D02*
X627557D01*
Y-323014D01*
X626224Y-321681D01*
X620892D01*
X619559Y-323014D01*
Y-327013D01*
X627557Y-313684D02*
Y-319016D01*
X622225Y-313684D01*
X620892D01*
X619559Y-315017D01*
Y-317683D01*
X620892Y-319016D01*
X134568Y-247453D02*
Y-255450D01*
X138567D01*
X139900Y-254117D01*
Y-248785D01*
X138567Y-247453D01*
X134568D01*
X142565Y-255450D02*
X145231D01*
X143898D01*
Y-247453D01*
X142565Y-248785D01*
X145429Y-174426D02*
X144097Y-175759D01*
Y-178425D01*
X145429Y-179758D01*
X150761D01*
X152094Y-178425D01*
Y-175759D01*
X150761Y-174426D01*
X152094Y-167762D02*
X144097D01*
X148095Y-171761D01*
Y-166429D01*
X145429Y-163763D02*
X144097Y-162430D01*
Y-159764D01*
X145429Y-158432D01*
X146762D01*
X148095Y-159764D01*
X149428Y-158432D01*
X150761D01*
X152094Y-159764D01*
Y-162430D01*
X150761Y-163763D01*
X149428D01*
X148095Y-162430D01*
X146762Y-163763D01*
X145429D01*
X148095Y-162430D02*
Y-159764D01*
X117235Y-174426D02*
X115903Y-175759D01*
Y-178425D01*
X117235Y-179758D01*
X122567D01*
X123900Y-178425D01*
Y-175759D01*
X122567Y-174426D01*
X123900Y-167762D02*
X115903D01*
X119901Y-171761D01*
Y-166429D01*
X115903Y-163763D02*
Y-158432D01*
X117235D01*
X122567Y-163763D01*
X123900D01*
X499252Y224608D02*
X497919Y223275D01*
Y220609D01*
X499252Y219276D01*
X504583D01*
X505916Y220609D01*
Y223275D01*
X504583Y224608D01*
X505916Y231272D02*
X497919D01*
X501917Y227273D01*
Y232605D01*
X497919Y240602D02*
X499252Y237937D01*
X501917Y235271D01*
X504583D01*
X505916Y236604D01*
Y239270D01*
X504583Y240602D01*
X503250D01*
X501917Y239270D01*
Y235271D01*
X473344Y224608D02*
X472011Y223275D01*
Y220609D01*
X473344Y219276D01*
X478675D01*
X480008Y220609D01*
Y223275D01*
X478675Y224608D01*
X480008Y231272D02*
X472011D01*
X476009Y227273D01*
Y232605D01*
X472011Y240602D02*
Y235271D01*
X476009D01*
X474676Y237937D01*
Y239270D01*
X476009Y240602D01*
X478675D01*
X480008Y239270D01*
Y236604D01*
X478675Y235271D01*
X405584Y250578D02*
X404251Y251911D01*
X401585D01*
X400252Y250578D01*
Y245247D01*
X401585Y243914D01*
X404251D01*
X405584Y245247D01*
X412248Y243914D02*
Y251911D01*
X408249Y247913D01*
X413581D01*
X420246Y243914D02*
Y251911D01*
X416247Y247913D01*
X421578D01*
X410664Y274708D02*
X409331Y276041D01*
X406665D01*
X405332Y274708D01*
Y269377D01*
X406665Y268044D01*
X409331D01*
X410664Y269377D01*
X417328Y268044D02*
Y276041D01*
X413329Y272043D01*
X418661D01*
X421327Y274708D02*
X422660Y276041D01*
X425326D01*
X426659Y274708D01*
Y273376D01*
X425326Y272043D01*
X423993D01*
X425326D01*
X426659Y270710D01*
Y269377D01*
X425326Y268044D01*
X422660D01*
X421327Y269377D01*
X413712Y186570D02*
X412379Y187903D01*
X409713D01*
X408380Y186570D01*
Y181239D01*
X409713Y179906D01*
X412379D01*
X413712Y181239D01*
X420376Y179906D02*
Y187903D01*
X416377Y183905D01*
X421709D01*
X429706Y179906D02*
X424375D01*
X429706Y185238D01*
Y186570D01*
X428374Y187903D01*
X425708D01*
X424375Y186570D01*
X197246Y222068D02*
X195913Y220735D01*
Y218069D01*
X197246Y216736D01*
X202577D01*
X203910Y218069D01*
Y220735D01*
X202577Y222068D01*
X203910Y228732D02*
X195913D01*
X199911Y224733D01*
Y230065D01*
X203910Y232731D02*
Y235397D01*
Y234064D01*
X195913D01*
X197246Y232731D01*
X223407Y220544D02*
X222075Y219211D01*
Y216545D01*
X223407Y215212D01*
X228739D01*
X230072Y216545D01*
Y219211D01*
X228739Y220544D01*
X230072Y227208D02*
X222075D01*
X226073Y223209D01*
Y228541D01*
X223407Y231207D02*
X222075Y232540D01*
Y235205D01*
X223407Y236538D01*
X228739D01*
X230072Y235205D01*
Y232540D01*
X228739Y231207D01*
X223407D01*
X271413Y129612D02*
X270081Y128279D01*
Y125613D01*
X271413Y124280D01*
X276745D01*
X278078Y125613D01*
Y128279D01*
X276745Y129612D01*
X271413Y132277D02*
X270081Y133610D01*
Y136276D01*
X271413Y137609D01*
X272746D01*
X274079Y136276D01*
Y134943D01*
Y136276D01*
X275412Y137609D01*
X276745D01*
X278078Y136276D01*
Y133610D01*
X276745Y132277D01*
Y140275D02*
X278078Y141608D01*
Y144274D01*
X276745Y145606D01*
X271413D01*
X270081Y144274D01*
Y141608D01*
X271413Y140275D01*
X272746D01*
X274079Y141608D01*
Y145606D01*
X247283Y124786D02*
X245951Y123453D01*
Y120787D01*
X247283Y119454D01*
X252615D01*
X253948Y120787D01*
Y123453D01*
X252615Y124786D01*
X247283Y127451D02*
X245951Y128784D01*
Y131450D01*
X247283Y132783D01*
X248616D01*
X249949Y131450D01*
Y130117D01*
Y131450D01*
X251282Y132783D01*
X252615D01*
X253948Y131450D01*
Y128784D01*
X252615Y127451D01*
X247283Y135449D02*
X245951Y136782D01*
Y139447D01*
X247283Y140780D01*
X248616D01*
X249949Y139447D01*
X251282Y140780D01*
X252615D01*
X253948Y139447D01*
Y136782D01*
X252615Y135449D01*
X251282D01*
X249949Y136782D01*
X248616Y135449D01*
X247283D01*
X249949Y136782D02*
Y139447D01*
X177433Y173554D02*
X176101Y172221D01*
Y169555D01*
X177433Y168222D01*
X182765D01*
X184098Y169555D01*
Y172221D01*
X182765Y173554D01*
X177433Y176219D02*
X176101Y177552D01*
Y180218D01*
X177433Y181551D01*
X178766D01*
X180099Y180218D01*
Y178885D01*
Y180218D01*
X181432Y181551D01*
X182765D01*
X184098Y180218D01*
Y177552D01*
X182765Y176219D01*
X176101Y184217D02*
Y189548D01*
X177433D01*
X182765Y184217D01*
X184098D01*
X149240Y173554D02*
X147907Y172221D01*
Y169555D01*
X149240Y168222D01*
X154571D01*
X155904Y169555D01*
Y172221D01*
X154571Y173554D01*
X149240Y176219D02*
X147907Y177552D01*
Y180218D01*
X149240Y181551D01*
X150572D01*
X151905Y180218D01*
Y178885D01*
Y180218D01*
X153238Y181551D01*
X154571D01*
X155904Y180218D01*
Y177552D01*
X154571Y176219D01*
X147907Y189548D02*
X149240Y186883D01*
X151905Y184217D01*
X154571D01*
X155904Y185550D01*
Y188216D01*
X154571Y189548D01*
X153238D01*
X151905Y188216D01*
Y184217D01*
X251660Y214764D02*
X250327Y216097D01*
X247661D01*
X246328Y214764D01*
Y209433D01*
X247661Y208100D01*
X250327D01*
X251660Y209433D01*
X254325Y214764D02*
X255658Y216097D01*
X258324D01*
X259657Y214764D01*
Y213432D01*
X258324Y212099D01*
X256991D01*
X258324D01*
X259657Y210766D01*
Y209433D01*
X258324Y208100D01*
X255658D01*
X254325Y209433D01*
X267654Y216097D02*
X262323D01*
Y212099D01*
X264989Y213432D01*
X266322D01*
X267654Y212099D01*
Y209433D01*
X266322Y208100D01*
X263656D01*
X262323Y209433D01*
X489772Y-251294D02*
X488439Y-249961D01*
X485773D01*
X484440Y-251294D01*
Y-256625D01*
X485773Y-257958D01*
X488439D01*
X489772Y-256625D01*
X492438Y-251294D02*
X493770Y-249961D01*
X496436D01*
X497769Y-251294D01*
Y-252626D01*
X496436Y-253959D01*
X495103D01*
X496436D01*
X497769Y-255292D01*
Y-256625D01*
X496436Y-257958D01*
X493770D01*
X492438Y-256625D01*
X504434Y-257958D02*
Y-249961D01*
X500435Y-253959D01*
X505766D01*
X369596Y-251294D02*
X368263Y-249961D01*
X365597D01*
X364264Y-251294D01*
Y-256625D01*
X365597Y-257958D01*
X368263D01*
X369596Y-256625D01*
X372261Y-251294D02*
X373594Y-249961D01*
X376260D01*
X377593Y-251294D01*
Y-252626D01*
X376260Y-253959D01*
X374927D01*
X376260D01*
X377593Y-255292D01*
Y-256625D01*
X376260Y-257958D01*
X373594D01*
X372261Y-256625D01*
X380259Y-251294D02*
X381592Y-249961D01*
X384258D01*
X385591Y-251294D01*
Y-252626D01*
X384258Y-253959D01*
X382925D01*
X384258D01*
X385591Y-255292D01*
Y-256625D01*
X384258Y-257958D01*
X381592D01*
X380259Y-256625D01*
X289294Y-188266D02*
X287961Y-189599D01*
Y-192265D01*
X289294Y-193598D01*
X294625D01*
X295958Y-192265D01*
Y-189599D01*
X294625Y-188266D01*
X289294Y-185600D02*
X287961Y-184267D01*
Y-181602D01*
X289294Y-180269D01*
X290627D01*
X291959Y-181602D01*
Y-182934D01*
Y-181602D01*
X293292Y-180269D01*
X294625D01*
X295958Y-181602D01*
Y-184267D01*
X294625Y-185600D01*
X295958Y-172271D02*
Y-177603D01*
X290627Y-172271D01*
X289294D01*
X287961Y-173604D01*
Y-176270D01*
X289294Y-177603D01*
X177433Y-234878D02*
X176101Y-236211D01*
Y-238877D01*
X177433Y-240210D01*
X182765D01*
X184098Y-238877D01*
Y-236211D01*
X182765Y-234878D01*
X177433Y-232213D02*
X176101Y-230880D01*
Y-228214D01*
X177433Y-226881D01*
X178766D01*
X180099Y-228214D01*
Y-229547D01*
Y-228214D01*
X181432Y-226881D01*
X182765D01*
X184098Y-228214D01*
Y-230880D01*
X182765Y-232213D01*
X184098Y-224215D02*
Y-221549D01*
Y-222882D01*
X176101D01*
X177433Y-224215D01*
Y-274248D02*
X176101Y-275581D01*
Y-278247D01*
X177433Y-279580D01*
X182765D01*
X184098Y-278247D01*
Y-275581D01*
X182765Y-274248D01*
X177433Y-271583D02*
X176101Y-270250D01*
Y-267584D01*
X177433Y-266251D01*
X178766D01*
X180099Y-267584D01*
Y-268917D01*
Y-267584D01*
X181432Y-266251D01*
X182765D01*
X184098Y-267584D01*
Y-270250D01*
X182765Y-271583D01*
X177433Y-263585D02*
X176101Y-262252D01*
Y-259587D01*
X177433Y-258254D01*
X182765D01*
X184098Y-259587D01*
Y-262252D01*
X182765Y-263585D01*
X177433D01*
X237690Y-305427D02*
X236357Y-304095D01*
X233691D01*
X232358Y-305427D01*
Y-310759D01*
X233691Y-312092D01*
X236357D01*
X237690Y-310759D01*
X245687Y-312092D02*
X240355D01*
X245687Y-306760D01*
Y-305427D01*
X244354Y-304095D01*
X241688D01*
X240355Y-305427D01*
X248353Y-310759D02*
X249686Y-312092D01*
X252352D01*
X253685Y-310759D01*
Y-305427D01*
X252352Y-304095D01*
X249686D01*
X248353Y-305427D01*
Y-306760D01*
X249686Y-308093D01*
X253685D01*
X249628Y-189349D02*
X248295Y-188017D01*
X245629D01*
X244296Y-189349D01*
Y-194681D01*
X245629Y-196014D01*
X248295D01*
X249628Y-194681D01*
X257625Y-196014D02*
X252293D01*
X257625Y-190682D01*
Y-189349D01*
X256292Y-188017D01*
X253626D01*
X252293Y-189349D01*
X260291D02*
X261624Y-188017D01*
X264290D01*
X265623Y-189349D01*
Y-190682D01*
X264290Y-192015D01*
X265623Y-193348D01*
Y-194681D01*
X264290Y-196014D01*
X261624D01*
X260291Y-194681D01*
Y-193348D01*
X261624Y-192015D01*
X260291Y-190682D01*
Y-189349D01*
X261624Y-192015D02*
X264290D01*
X249628Y-169284D02*
X248295Y-167951D01*
X245629D01*
X244296Y-169284D01*
Y-174615D01*
X245629Y-175948D01*
X248295D01*
X249628Y-174615D01*
X257625Y-175948D02*
X252293D01*
X257625Y-170616D01*
Y-169284D01*
X256292Y-167951D01*
X253626D01*
X252293Y-169284D01*
X260291Y-167951D02*
X265623D01*
Y-169284D01*
X260291Y-174615D01*
Y-175948D01*
X323542Y-113404D02*
X322209Y-112071D01*
X319543D01*
X318210Y-113404D01*
Y-118735D01*
X319543Y-120068D01*
X322209D01*
X323542Y-118735D01*
X331539Y-120068D02*
X326207D01*
X331539Y-114736D01*
Y-113404D01*
X330206Y-112071D01*
X327540D01*
X326207Y-113404D01*
X339537Y-112071D02*
X336871Y-113404D01*
X334205Y-116069D01*
Y-118735D01*
X335538Y-120068D01*
X338204D01*
X339537Y-118735D01*
Y-117402D01*
X338204Y-116069D01*
X334205D01*
X285383Y71700D02*
X284051Y70367D01*
Y67701D01*
X285383Y66368D01*
X290715D01*
X292048Y67701D01*
Y70367D01*
X290715Y71700D01*
X292048Y79697D02*
Y74365D01*
X286716Y79697D01*
X285383D01*
X284051Y78364D01*
Y75698D01*
X285383Y74365D01*
X284051Y87694D02*
Y82363D01*
X288049D01*
X286716Y85029D01*
Y86362D01*
X288049Y87694D01*
X290715D01*
X292048Y86362D01*
Y83696D01*
X290715Y82363D01*
X285383Y-70286D02*
X284051Y-71619D01*
Y-74285D01*
X285383Y-75618D01*
X290715D01*
X292048Y-74285D01*
Y-71619D01*
X290715Y-70286D01*
X292048Y-62289D02*
Y-67621D01*
X286716Y-62289D01*
X285383D01*
X284051Y-63622D01*
Y-66288D01*
X285383Y-67621D01*
X292048Y-55624D02*
X284051D01*
X288049Y-59623D01*
Y-54292D01*
X363674Y-73271D02*
X362341Y-71939D01*
X359675D01*
X358342Y-73271D01*
Y-78603D01*
X359675Y-79936D01*
X362341D01*
X363674Y-78603D01*
X371671Y-79936D02*
X366339D01*
X371671Y-74604D01*
Y-73271D01*
X370338Y-71939D01*
X367672D01*
X366339Y-73271D01*
X374337D02*
X375670Y-71939D01*
X378336D01*
X379669Y-73271D01*
Y-74604D01*
X378336Y-75937D01*
X377003D01*
X378336D01*
X379669Y-77270D01*
Y-78603D01*
X378336Y-79936D01*
X375670D01*
X374337Y-78603D01*
X411680Y50680D02*
X410347Y52013D01*
X407681D01*
X406348Y50680D01*
Y45349D01*
X407681Y44016D01*
X410347D01*
X411680Y45349D01*
X419677Y44016D02*
X414345D01*
X419677Y49348D01*
Y50680D01*
X418344Y52013D01*
X415678D01*
X414345Y50680D01*
X427674Y44016D02*
X422343D01*
X427674Y49348D01*
Y50680D01*
X426342Y52013D01*
X423676D01*
X422343Y50680D01*
X444954Y-5454D02*
X443621Y-4121D01*
X440955D01*
X439622Y-5454D01*
Y-10785D01*
X440955Y-12118D01*
X443621D01*
X444954Y-10785D01*
X452951Y-12118D02*
X447619D01*
X452951Y-6786D01*
Y-5454D01*
X451618Y-4121D01*
X448952D01*
X447619Y-5454D01*
X455617Y-12118D02*
X458283D01*
X456950D01*
Y-4121D01*
X455617Y-5454D01*
X327294Y-44378D02*
X325961Y-45711D01*
Y-48377D01*
X327294Y-49710D01*
X332625D01*
X333958Y-48377D01*
Y-45711D01*
X332625Y-44378D01*
X333958Y-36381D02*
Y-41713D01*
X328626Y-36381D01*
X327294D01*
X325961Y-37714D01*
Y-40380D01*
X327294Y-41713D01*
Y-33715D02*
X325961Y-32382D01*
Y-29716D01*
X327294Y-28384D01*
X332625D01*
X333958Y-29716D01*
Y-32382D01*
X332625Y-33715D01*
X327294D01*
X294332Y6738D02*
X292999Y8071D01*
X290333D01*
X289000Y6738D01*
Y1407D01*
X290333Y74D01*
X292999D01*
X294332Y1407D01*
X296997Y74D02*
X299663D01*
X298330D01*
Y8071D01*
X296997Y6738D01*
X303662Y1407D02*
X304995Y74D01*
X307661D01*
X308994Y1407D01*
Y6738D01*
X307661Y8071D01*
X304995D01*
X303662Y6738D01*
Y5406D01*
X304995Y4073D01*
X308994D01*
X409336Y140280D02*
X408003Y138947D01*
Y136281D01*
X409336Y134948D01*
X414667D01*
X416000Y136281D01*
Y138947D01*
X414667Y140280D01*
X416000Y142945D02*
Y145611D01*
Y144278D01*
X408003D01*
X409336Y142945D01*
Y149610D02*
X408003Y150943D01*
Y153609D01*
X409336Y154942D01*
X410668D01*
X412001Y153609D01*
X413334Y154942D01*
X414667D01*
X416000Y153609D01*
Y150943D01*
X414667Y149610D01*
X413334D01*
X412001Y150943D01*
X410668Y149610D01*
X409336D01*
X412001Y150943D02*
Y153609D01*
X473344Y169236D02*
X472011Y167903D01*
Y165237D01*
X473344Y163904D01*
X478675D01*
X480008Y165237D01*
Y167903D01*
X478675Y169236D01*
X480008Y171901D02*
Y174567D01*
Y173234D01*
X472011D01*
X473344Y171901D01*
X472011Y178566D02*
Y183897D01*
X473344D01*
X478675Y178566D01*
X480008D01*
X409336Y102434D02*
X408003Y101101D01*
Y98435D01*
X409336Y97102D01*
X414667D01*
X416000Y98435D01*
Y101101D01*
X414667Y102434D01*
X416000Y105099D02*
Y107765D01*
Y106432D01*
X408003D01*
X409336Y105099D01*
X408003Y117095D02*
X409336Y114430D01*
X412001Y111764D01*
X414667D01*
X416000Y113097D01*
Y115763D01*
X414667Y117095D01*
X413334D01*
X412001Y115763D01*
Y111764D01*
X565308Y114416D02*
X563975Y113083D01*
Y110417D01*
X565308Y109084D01*
X570639D01*
X571972Y110417D01*
Y113083D01*
X570639Y114416D01*
X571972Y117081D02*
Y119747D01*
Y118414D01*
X563975D01*
X565308Y117081D01*
X563975Y129078D02*
Y123746D01*
X567973D01*
X566640Y126412D01*
Y127745D01*
X567973Y129078D01*
X570639D01*
X571972Y127745D01*
Y125079D01*
X570639Y123746D01*
X633363Y125548D02*
X632031Y124215D01*
Y121549D01*
X633363Y120216D01*
X638695D01*
X640028Y121549D01*
Y124215D01*
X638695Y125548D01*
X640028Y128213D02*
Y130879D01*
Y129546D01*
X632031D01*
X633363Y128213D01*
X640028Y134878D02*
Y137544D01*
Y136211D01*
X632031D01*
X633363Y134878D01*
X695238Y120404D02*
X693905Y119071D01*
Y116405D01*
X695238Y115072D01*
X700569D01*
X701902Y116405D01*
Y119071D01*
X700569Y120404D01*
X701902Y123069D02*
Y125735D01*
Y124402D01*
X693905D01*
X695238Y123069D01*
Y129734D02*
X693905Y131067D01*
Y133733D01*
X695238Y135066D01*
X700569D01*
X701902Y133733D01*
Y131067D01*
X700569Y129734D01*
X695238D01*
X803602Y68714D02*
X802269Y70047D01*
X799603D01*
X798270Y68714D01*
Y63383D01*
X799603Y62050D01*
X802269D01*
X803602Y63383D01*
X806267D02*
X807600Y62050D01*
X810266D01*
X811599Y63383D01*
Y68714D01*
X810266Y70047D01*
X807600D01*
X806267Y68714D01*
Y67382D01*
X807600Y66049D01*
X811599D01*
X807600Y-13382D02*
X806267Y-12049D01*
X803601D01*
X802268Y-13382D01*
Y-18713D01*
X803601Y-20046D01*
X806267D01*
X807600Y-18713D01*
X810265Y-13382D02*
X811598Y-12049D01*
X814264D01*
X815597Y-13382D01*
Y-14714D01*
X814264Y-16047D01*
X815597Y-17380D01*
Y-18713D01*
X814264Y-20046D01*
X811598D01*
X810265Y-18713D01*
Y-17380D01*
X811598Y-16047D01*
X810265Y-14714D01*
Y-13382D01*
X811598Y-16047D02*
X814264D01*
X715406Y-126420D02*
X714073Y-127753D01*
Y-130419D01*
X715406Y-131752D01*
X720737D01*
X722070Y-130419D01*
Y-127753D01*
X720737Y-126420D01*
X714073Y-123755D02*
Y-118423D01*
X715406D01*
X720737Y-123755D01*
X722070D01*
X553792Y4611D02*
X552459Y5943D01*
X549793D01*
X548460Y4611D01*
Y-721D01*
X549793Y-2054D01*
X552459D01*
X553792Y-721D01*
X560456Y-2054D02*
Y5943D01*
X556457Y1945D01*
X561789D01*
X623208Y-126353D02*
X621875Y-127686D01*
Y-130352D01*
X623208Y-131685D01*
X628540D01*
X629873Y-130352D01*
Y-127686D01*
X628540Y-126353D01*
X623208Y-123688D02*
X621875Y-122355D01*
Y-119689D01*
X623208Y-118356D01*
X624541D01*
X625874Y-119689D01*
Y-121022D01*
Y-119689D01*
X627207Y-118356D01*
X628540D01*
X629873Y-119689D01*
Y-122355D01*
X628540Y-123688D01*
X809230Y-129688D02*
X807897Y-131020D01*
Y-133686D01*
X809230Y-135019D01*
X814562D01*
X815895Y-133686D01*
Y-131020D01*
X814562Y-129688D01*
X815895Y-127022D02*
Y-124356D01*
Y-125689D01*
X807897D01*
X809230Y-127022D01*
X815895Y-116358D02*
X807897D01*
X811896Y-120357D01*
Y-115026D01*
X844240Y114689D02*
X842907Y116021D01*
X840241D01*
X838908Y114689D01*
Y109357D01*
X840241Y108024D01*
X842907D01*
X844240Y109357D01*
X846905Y108024D02*
X849571D01*
X848238D01*
Y116021D01*
X846905Y114689D01*
X853570D02*
X854903Y116021D01*
X857569D01*
X858902Y114689D01*
Y113356D01*
X857569Y112023D01*
X856236D01*
X857569D01*
X858902Y110690D01*
Y109357D01*
X857569Y108024D01*
X854903D01*
X853570Y109357D01*
X661303Y-208208D02*
X659971Y-209541D01*
Y-212207D01*
X661303Y-213540D01*
X666635D01*
X667968Y-212207D01*
Y-209541D01*
X666635Y-208208D01*
X667968Y-200211D02*
Y-205543D01*
X662636Y-200211D01*
X661303D01*
X659971Y-201544D01*
Y-204210D01*
X661303Y-205543D01*
X27320Y-133024D02*
X25987Y-134357D01*
Y-137023D01*
X27320Y-138356D01*
X32651D01*
X33984Y-137023D01*
Y-134357D01*
X32651Y-133024D01*
X25987Y-125027D02*
Y-130359D01*
X29985D01*
X28652Y-127693D01*
Y-126360D01*
X29985Y-125027D01*
X32651D01*
X33984Y-126360D01*
Y-129026D01*
X32651Y-130359D01*
X33984Y-122361D02*
Y-119695D01*
Y-121028D01*
X25987D01*
X27320Y-122361D01*
X51449Y-140390D02*
X50117Y-141723D01*
Y-144389D01*
X51449Y-145722D01*
X56781D01*
X58114Y-144389D01*
Y-141723D01*
X56781Y-140390D01*
X50117Y-132393D02*
Y-137725D01*
X54115D01*
X52782Y-135059D01*
Y-133726D01*
X54115Y-132393D01*
X56781D01*
X58114Y-133726D01*
Y-136392D01*
X56781Y-137725D01*
X51449Y-129727D02*
X50117Y-128394D01*
Y-125729D01*
X51449Y-124396D01*
X56781D01*
X58114Y-125729D01*
Y-128394D01*
X56781Y-129727D01*
X51449D01*
X849387Y-194335D02*
X848055Y-195668D01*
Y-198334D01*
X849387Y-199667D01*
X854719D01*
X856052Y-198334D01*
Y-195668D01*
X854719Y-194335D01*
X856052Y-187671D02*
X848055D01*
X852053Y-191669D01*
Y-186338D01*
X854719Y-183672D02*
X856052Y-182339D01*
Y-179673D01*
X854719Y-178340D01*
X849387D01*
X848055Y-179673D01*
Y-182339D01*
X849387Y-183672D01*
X850720D01*
X852053Y-182339D01*
Y-178340D01*
M02*
