G04*
G04 #@! TF.GenerationSoftware,Altium Limited,Altium Designer,20.2.8 (258)*
G04*
G04 Layer_Color=16711935*
%FSLAX44Y44*%
%MOMM*%
G71*
G04*
G04 #@! TF.SameCoordinates,3C6D5B40-6E81-4EE8-AB30-EF2341ADE942*
G04*
G04*
G04 #@! TF.FilePolarity,Positive*
G04*
G01*
G75*
%ADD89C,0.1000*%
D89*
X604000Y-211000D02*
Y-201000D01*
X599000Y-206000D02*
X609000D01*
X546000Y83000D02*
Y93000D01*
X541000Y88000D02*
X551000D01*
X531000Y118000D02*
X541000D01*
X536000Y113000D02*
Y123000D01*
X568000Y114000D02*
Y124000D01*
X563000Y119000D02*
X573000D01*
X502000Y83000D02*
Y93000D01*
X497000Y88000D02*
X507000D01*
X886000Y151000D02*
Y161000D01*
X881000Y156000D02*
X891000D01*
X675000Y0D02*
X685000D01*
X680000Y-5000D02*
Y5000D01*
X515000Y66000D02*
X525000D01*
X520000Y61000D02*
Y71000D01*
X410000Y-259000D02*
Y-249000D01*
X405000Y-254000D02*
X415000D01*
X375000Y-259000D02*
Y-249000D01*
X370000Y-254000D02*
X380000D01*
X370000Y-322000D02*
X390000D01*
X380000Y-332000D02*
Y-312000D01*
X410000Y-279000D02*
Y-269000D01*
X405000Y-274000D02*
X415000D01*
X631000Y129000D02*
X641000D01*
X636000Y124000D02*
Y134000D01*
X804000Y-16000D02*
X814000D01*
X809000Y-21000D02*
Y-11000D01*
X805000Y-71000D02*
Y-61000D01*
X800000Y-66000D02*
X810000D01*
X677000Y-125000D02*
X687000D01*
X682000Y-130000D02*
Y-120000D01*
X550000Y-58000D02*
X560000D01*
X555000Y-63000D02*
Y-53000D01*
X502000Y225000D02*
Y235000D01*
X497000Y230000D02*
X507000D01*
X140000Y-255000D02*
Y-245000D01*
X135000Y-250000D02*
X145000D01*
X583000Y322000D02*
X593000D01*
X588000Y317000D02*
Y327000D01*
X129000Y-200000D02*
X139000D01*
X134000Y-205000D02*
Y-195000D01*
X911750Y-152700D02*
Y-127300D01*
X899050Y-140000D02*
X924450D01*
X104000Y-12700D02*
Y12700D01*
X91300Y-0D02*
X116700D01*
X40000Y-260000D02*
Y-240000D01*
X30000Y-250000D02*
X50000D01*
X69200Y147300D02*
Y172700D01*
X56500Y160000D02*
X81900D01*
X749300Y342900D02*
X774700D01*
X762000Y330200D02*
Y355600D01*
X80250Y247300D02*
Y272700D01*
X67550Y260000D02*
X92950D01*
X431000Y-148000D02*
X441000D01*
X436000Y-153000D02*
Y-143000D01*
X434000Y216000D02*
X444000D01*
X439000Y211000D02*
Y221000D01*
X355000Y-182750D02*
X365000D01*
X360000Y-187750D02*
Y-177750D01*
X500000Y-332000D02*
Y-312000D01*
X490000Y-322000D02*
X510000D01*
X499300Y328000D02*
X524700D01*
X512000Y315300D02*
Y340700D01*
X367000Y-0D02*
X377000D01*
X372000Y-5000D02*
Y5000D01*
X264000Y-255000D02*
Y-245000D01*
X259000Y-250000D02*
X269000D01*
X388000Y211000D02*
Y221000D01*
X383000Y216000D02*
X393000D01*
X881000Y176000D02*
X891000D01*
X886000Y171000D02*
Y181000D01*
X848000Y151000D02*
Y161000D01*
X843000Y156000D02*
X853000D01*
X226000Y221000D02*
Y231000D01*
X221000Y226000D02*
X231000D01*
X287000Y-183000D02*
X297000D01*
X292000Y-188000D02*
Y-178000D01*
X307000Y-182000D02*
X317000D01*
X312000Y-187000D02*
Y-177000D01*
X327000Y-182000D02*
X337000D01*
X332000Y-187000D02*
Y-177000D01*
X455000Y-182000D02*
X465000D01*
X460000Y-187000D02*
Y-177000D01*
X431000Y-182000D02*
X441000D01*
X436000Y-187000D02*
Y-177000D01*
X407000Y-182000D02*
X417000D01*
X412000Y-187000D02*
Y-177000D01*
X621000Y-125000D02*
X631000D01*
X626000Y-130000D02*
Y-120000D01*
X743000Y-126000D02*
X753000D01*
X748000Y-131000D02*
Y-121000D01*
X807000Y-125000D02*
X817000D01*
X812000Y-130000D02*
Y-120000D01*
X847000Y-189000D02*
X857000D01*
X852000Y-194000D02*
Y-184000D01*
X707000Y-250000D02*
X717000D01*
X712000Y-255000D02*
Y-245000D01*
X767000Y-250000D02*
X777000D01*
X772000Y-255000D02*
Y-245000D01*
X827000Y-290000D02*
X837000D01*
X832000Y-295000D02*
Y-285000D01*
X807000Y-290000D02*
X817000D01*
X812000Y-295000D02*
Y-285000D01*
X787000Y-290000D02*
X797000D01*
X792000Y-295000D02*
Y-285000D01*
X767000Y-290000D02*
X777000D01*
X772000Y-295000D02*
Y-285000D01*
X747000Y-290000D02*
X757000D01*
X752000Y-295000D02*
Y-285000D01*
X727000Y-290000D02*
X737000D01*
X732000Y-295000D02*
Y-285000D01*
X707000Y-290000D02*
X717000D01*
X712000Y-295000D02*
Y-285000D01*
X619000Y-320000D02*
X629000D01*
X624000Y-325000D02*
Y-315000D01*
X583000Y-320000D02*
X593000D01*
X588000Y-325000D02*
Y-315000D01*
X619000Y-280000D02*
X629000D01*
X624000Y-285000D02*
Y-275000D01*
X583000Y-280000D02*
X593000D01*
X588000Y-285000D02*
Y-275000D01*
X238000Y-308000D02*
X248000D01*
X243000Y-313000D02*
Y-303000D01*
X175000Y-231000D02*
X185000D01*
X180000Y-236000D02*
Y-226000D01*
X205000Y-260000D02*
X215000D01*
X210000Y-265000D02*
Y-255000D01*
X205000Y-240000D02*
X215000D01*
X210000Y-245000D02*
Y-235000D01*
X175000Y-269000D02*
X185000D01*
X180000Y-274000D02*
Y-264000D01*
X110000Y-315000D02*
Y-305000D01*
X105000Y-310000D02*
X115000D01*
X143000Y-169000D02*
X153000D01*
X148000Y-174000D02*
Y-164000D01*
X115000Y-169000D02*
X125000D01*
X120000Y-174000D02*
Y-164000D01*
X54000Y-140000D02*
Y-130000D01*
X49000Y-135000D02*
X59000D01*
X25000Y-129000D02*
X35000D01*
X30000Y-134000D02*
Y-124000D01*
X387300Y328000D02*
X412700D01*
X400000Y315300D02*
Y340700D01*
X331300Y328000D02*
X356700D01*
X344000Y315300D02*
Y340700D01*
X872000Y230000D02*
Y250000D01*
X862000Y240000D02*
X882000D01*
X583000Y282000D02*
X593000D01*
X588000Y277000D02*
Y287000D01*
X619000Y282000D02*
X629000D01*
X624000Y277000D02*
Y287000D01*
X345000Y236000D02*
X355000D01*
X350000Y231000D02*
Y241000D01*
X345000Y198000D02*
X355000D01*
X350000Y193000D02*
Y203000D01*
X377000Y184000D02*
X387000D01*
X382000Y179000D02*
Y189000D01*
X780000Y-131000D02*
Y-121000D01*
X775000Y-126000D02*
X785000D01*
X850000Y75000D02*
Y85000D01*
X845000Y80000D02*
X855000D01*
X288000Y175000D02*
Y185000D01*
X283000Y180000D02*
X293000D01*
X443300Y328000D02*
X468700D01*
X456000Y315300D02*
Y340700D01*
X445000Y12000D02*
X455000D01*
X450000Y7000D02*
Y17000D01*
X489000Y-0D02*
X499000D01*
X494000Y-5000D02*
Y5000D01*
X429000Y-52000D02*
X439000D01*
X434000Y-57000D02*
Y-47000D01*
X325000Y-76000D02*
X335000D01*
X330000Y-81000D02*
Y-71000D01*
X429000Y-32000D02*
X439000D01*
X434000Y-37000D02*
Y-27000D01*
X321000Y160000D02*
X331000D01*
X326000Y155000D02*
Y165000D01*
X321000Y198000D02*
X331000D01*
X326000Y193000D02*
Y203000D01*
X289000Y212000D02*
X299000D01*
X294000Y207000D02*
Y217000D01*
X525000Y-274000D02*
X535000D01*
X530000Y-279000D02*
Y-269000D01*
X525000Y-254000D02*
X535000D01*
X530000Y-259000D02*
Y-249000D01*
X273000Y-96000D02*
X283000D01*
X278000Y-101000D02*
Y-91000D01*
X325000Y76000D02*
X335000D01*
X330000Y71000D02*
Y81000D01*
X365000Y-116000D02*
X375000D01*
X370000Y-121000D02*
Y-111000D01*
X419000Y-86000D02*
X429000D01*
X424000Y-91000D02*
Y-81000D01*
X365000Y-96000D02*
X375000D01*
X370000Y-101000D02*
Y-91000D01*
X325000Y96000D02*
X335000D01*
X330000Y91000D02*
Y101000D01*
X437000Y136000D02*
X447000D01*
X442000Y131000D02*
Y141000D01*
X437000Y116000D02*
X447000D01*
X442000Y111000D02*
Y121000D01*
X489000Y-20000D02*
X499000D01*
X494000Y-25000D02*
Y-15000D01*
X325000Y-96000D02*
X335000D01*
X330000Y-101000D02*
Y-91000D01*
X715000Y126000D02*
X725000D01*
X720000Y121000D02*
Y131000D01*
X530000Y41000D02*
Y51000D01*
X525000Y46000D02*
X535000D01*
X273000Y-116000D02*
X283000D01*
X278000Y-121000D02*
Y-111000D01*
X283000Y42000D02*
X293000D01*
X288000Y37000D02*
Y47000D01*
X303000Y42000D02*
X313000D01*
X308000Y37000D02*
Y47000D01*
X283000Y-30000D02*
X293000D01*
X288000Y-35000D02*
Y-25000D01*
X303000Y-30000D02*
X313000D01*
X308000Y-35000D02*
Y-25000D01*
X845000Y48000D02*
X855000D01*
X850000Y43000D02*
Y53000D01*
X639000Y-206000D02*
X649000D01*
X644000Y-211000D02*
Y-201000D01*
X619000Y-206000D02*
X629000D01*
X624000Y-211000D02*
Y-201000D01*
X687000Y290000D02*
X697000D01*
X692000Y285000D02*
Y295000D01*
X707000Y290000D02*
X717000D01*
X712000Y285000D02*
Y295000D01*
X667000Y290000D02*
X677000D01*
X672000Y285000D02*
Y295000D01*
X727000Y290000D02*
X737000D01*
X732000Y285000D02*
Y295000D01*
X807000Y290000D02*
X817000D01*
X812000Y285000D02*
Y295000D01*
X747000Y290000D02*
X757000D01*
X752000Y285000D02*
Y295000D01*
X787000Y290000D02*
X797000D01*
X792000Y285000D02*
Y295000D01*
X767000Y290000D02*
X777000D01*
X772000Y285000D02*
Y295000D01*
X749300Y-342900D02*
X774700D01*
X762000Y-355600D02*
Y-330200D01*
X161000Y148000D02*
X171000D01*
X166000Y143000D02*
Y153000D01*
X502000Y169000D02*
Y179000D01*
X497000Y174000D02*
X507000D01*
X587000Y-116000D02*
X597000D01*
X592000Y-121000D02*
Y-111000D01*
X364250Y-144000D02*
X374250D01*
X369250Y-149000D02*
Y-139000D01*
X571000Y-206750D02*
X581000D01*
X576000Y-211750D02*
Y-201750D01*
X232000Y180000D02*
X242000D01*
X237000Y175000D02*
Y185000D01*
X455000Y-148000D02*
X465000D01*
X460000Y-153000D02*
Y-143000D01*
X407000Y-148000D02*
X417000D01*
X412000Y-153000D02*
Y-143000D01*
X416000Y267000D02*
Y277000D01*
X411000Y272000D02*
X421000D01*
X414000Y184000D02*
X424000D01*
X419000Y179000D02*
Y189000D01*
X200000Y221000D02*
Y231000D01*
X195000Y226000D02*
X205000D01*
X269000Y135000D02*
X279000D01*
X274000Y130000D02*
Y140000D01*
X250000Y125000D02*
Y135000D01*
X245000Y130000D02*
X255000D01*
X175000Y179000D02*
X185000D01*
X180000Y174000D02*
Y184000D01*
X147000Y179000D02*
X157000D01*
X152000Y174000D02*
Y184000D01*
X252000Y212000D02*
X262000D01*
X257000Y207000D02*
Y217000D01*
X490000Y-254000D02*
X500000D01*
X495000Y-259000D02*
Y-249000D01*
X619000Y322000D02*
X629000D01*
X624000Y317000D02*
Y327000D01*
X476000Y225000D02*
Y235000D01*
X471000Y230000D02*
X481000D01*
X406000Y248000D02*
X416000D01*
X411000Y243000D02*
Y253000D01*
X250000Y-192000D02*
X260000D01*
X255000Y-197000D02*
Y-187000D01*
X250000Y-172000D02*
X260000D01*
X255000Y-177000D02*
Y-167000D01*
X324000Y-116000D02*
X334000D01*
X329000Y-121000D02*
Y-111000D01*
X283000Y77000D02*
X293000D01*
X288000Y72000D02*
Y82000D01*
X283000Y-65000D02*
X293000D01*
X288000Y-70000D02*
Y-60000D01*
X364000Y-76000D02*
X374000D01*
X369000Y-81000D02*
Y-71000D01*
X718000Y-130000D02*
Y-120000D01*
X713000Y-125000D02*
X723000D01*
X550000Y2000D02*
X560000D01*
X555000Y-3000D02*
Y7000D01*
X844000Y112000D02*
X854000D01*
X849000Y107000D02*
Y117000D01*
X659000Y-207000D02*
X669000D01*
X664000Y-212000D02*
Y-202000D01*
X412000Y48000D02*
X422000D01*
X417000Y43000D02*
Y53000D01*
X444000Y-8000D02*
X454000D01*
X449000Y-13000D02*
Y-3000D01*
X325000Y-39000D02*
X335000D01*
X330000Y-44000D02*
Y-34000D01*
X294000Y4000D02*
X304000D01*
X299000Y-1000D02*
Y9000D01*
X407000Y145000D02*
X417000D01*
X412000Y140000D02*
Y150000D01*
X476000Y169000D02*
Y179000D01*
X471000Y174000D02*
X481000D01*
X407000Y107000D02*
X417000D01*
X412000Y102000D02*
Y112000D01*
X693000Y125000D02*
X703000D01*
X698000Y120000D02*
Y130000D01*
X805000Y61000D02*
Y71000D01*
X800000Y66000D02*
X810000D01*
M02*
