M48
;Layer_Color=9474304
;FILE_FORMAT=4:4
METRIC,LZ
;TYPE=PLATED
T1F00S00C0.4000
T2F00S00C0.9000
T3F00S00C1.0000
T4F00S00C1.1000
T5F00S00C1.6000
T6F00S00C3.2000
T7F00S00C3.3000
%
T01
X00624Y-00342
X00588Y-00342
X00554Y-00346
X00434Y-00346
X0028Y-00316
X00252Y-00322
X00234
X0011Y-00338
Y-00266
X001Y-00266
X00118Y-0025
X00162
X00166Y-00222
X00164Y-00196
Y-00184
X00176
Y-00196
X00148Y-00148
X0012
X00054Y-00162
X0003Y-0015
X00166Y-00278
X00188Y00036
X0026Y00036
Y00048
Y00066
X00274Y00086
X00308Y00076
X0032Y00008
X00334
X00364Y00008
X0038Y00008
Y-00008
X00364
X0035Y-00036
X00384
X0039Y-00076
X00392Y-00096
X00424Y-00108
X00436Y-00132
X00412
X0046
Y-00204
X00436
X00412
X00366
X00354Y-00254
X00388Y-00274
X004Y-0024
X00474Y-00254
X00508Y-00274
X0052Y-0024
X00582Y-00228
X00588Y-00258
X00564Y-00116
X00544
X00532Y-00108
X0052Y-001
X00508Y-00092
Y-00052
Y-00036
X00516Y-00016
X00528Y0
Y00012
Y00028
X00546Y00016
X00564
X00576Y00012
Y00068
X00564Y00064
X00552Y0006
X00546Y-00044
X00564
X00576Y-00048
Y-00076
X00564
X0047Y-00008
X00428Y-00004
X00416
X00428Y0002
X00438Y00048
X00396Y00052
X003745Y00036
X0035Y00036
X00326Y-00018
X0033Y-0006
X00308Y-00076
X003Y-00096
X00308Y-00116
X00338Y-0013
X00348Y-0015
X00312Y-0016
X00292Y-00162
X00276Y-00172
X00234Y-00172
Y-00192
X00257Y-00208
X00256Y-00116
X00274Y-00074
X0026Y-00048
X00278Y00004
X00272Y-00292
X00246Y-00292
X00624Y-00258
X00624Y-00184
X00644
X00664Y-00186
X00668Y-00134
Y-00116
X00672Y-00104
X00654
X00636
X00612Y-00134
X0062Y-00056
Y-00038
X00612Y-00012
X00632Y0
X00664Y-00068
X00712Y-00064
X00708Y-00104
X00704Y-00116
Y-00134
X00769Y-00105
X00812Y-00104
Y-00146
X00838Y-0018
X00838Y-00198
X00832Y-0026
X00812Y-00268
X00792Y-00246
X00772Y-00228
X0076Y-00218
X00744Y-00204
X00732Y-00228
X00712Y-00228
X00752Y-00246
X00784Y-00056
X00796Y-00052
X00814
X00818Y-0003
X008
X00798Y00004
X00806Y00016
X00784Y00024
X00788Y-00006
X00744Y00012
Y00068
X0072
X00704
X00784Y00076
X00796Y0008
X00814
X00828Y00069
Y00112
X0087
X00864Y00176
X0085Y00186
X00827Y00156
X00712Y00152
X00684Y00134
Y00116
X00688Y00104
X00664Y00114
X00652Y00124
X0065Y00138
X00646Y00108
X00608Y00116
X00612Y00128
X00616Y0014
X00604Y00104
X00624Y0026
X00672Y00244
X00692Y00268
X00712Y0026
X00732Y00268
X00752Y00252
X00772Y00234
X00791Y00252
X00812Y00268
X00624Y00344
X00588Y00344
X00588Y0026
X00502Y00258
X00476
X00444Y00272
X00432Y00248
X00413Y002065
X00426Y00154
X00398Y00136
X00386Y00136
Y00116
X00398
X00426Y00098
X0047Y0013
X00482
Y00142
X0047
X0046Y00188
X00522Y0021
Y00222
X00534
Y0021
X00525Y00139
X00582Y00128
X00582Y0011
X00326Y00138
X00308Y00096
X00274Y00114
X00234Y00116
X00263Y001895
X00194Y00188
X00242Y0024
X00336Y00246
X00184Y0024
X00152Y002
T02
X0012Y001473
Y001727
T03
X00054219Y-00271971
Y-00228029
T04
X007112Y-003556
X007366
Y-003302
X00762
X007874
Y-003556
X00762
X008128
Y-003302
X007112
X0088Y-002035
Y-001781
Y-001527
Y-001273
Y-001019
Y-000765
X008128Y003302
X007874
X00762
X007366
X007112
Y003556
X007366
X00762
X007874
X008128
X00112Y002854
Y0026
Y002346
T05
X00344Y00328
X004
X00456
X00512
T06
X009Y-0035
X0005
X009Y0035
X0005
T07
X00029Y-000635
Y000635
M30
